<?xml version="1.0" encoding="utf-8"?>
<!-- Generator: Adobe Illustrator 22.1.0, SVG Export Plug-In . SVG Version: 6.00 Build 0)  -->
<svg version="1.1" id="Layer_1" xmlns="http://www.w3.org/2000/svg" xmlns:xlink="http://www.w3.org/1999/xlink" x="0px" y="0px"
	 viewBox="0 0 106.5 127.1" style="enable-background:new 0 0 106.5 127.1;" xml:space="preserve">
<style type="text/css">
	.st0{fill:#D85530;}
	.st1{fill:#FFFFFF;}
	.st2{fill:none;stroke:#808285;stroke-width:3.9862;stroke-miterlimit:10;}
	.st3{fill:none;stroke:#808285;stroke-width:3.881;stroke-miterlimit:10;}
	.st4{fill:none;stroke:#DDDDDD;stroke-miterlimit:10;}
	.st5{fill:#58595B;}
	.st6{fill:none;}
	.st7{fill:#3DC0CB;}
	.st8{fill:#375FA3;}
	.st9{fill:#E2E3E1;}
	.st10{fill:#BEBEC0;}
	.st11{fill:#DDDDDD;}
	.st12{fill:#89D1D1;}
	.st13{fill:#C6C7C8;}
	.st14{fill:#DB7458;}
	.st15{fill:#D95630;}
	.st16{fill:#FDEB64;}
	.st17{fill:#FAD548;}
	.st18{fill:#231F20;}
	.st19{fill:#DB7458;stroke:#FFFFFF;stroke-width:3;stroke-miterlimit:10;}
	.st20{fill:none;stroke:#FFFFFF;stroke-width:3.5191;stroke-miterlimit:10;}
	.st21{fill:none;stroke:#FFFFFF;stroke-width:1.7595;stroke-miterlimit:10;}
	.st22{fill:none;stroke:#FFFFFF;stroke-width:3.4938;stroke-miterlimit:10;}
	.st23{fill:none;stroke:#FFFFFF;stroke-width:2.9115;stroke-miterlimit:10;}
	.st24{fill:none;stroke:#FFFFFF;stroke-width:3.3705;stroke-miterlimit:10;}
	.st25{fill:#D95730;}
	.st26{fill:#38BFCC;}
	.st27{fill:#88D2DD;}
	.st28{fill:#D0E0E1;}
	.st29{fill:#C0B7B7;}
	.st30{fill:#B44530;}
	.st31{fill:#DFDEDE;}
	.st32{fill:#369495;}
	.st33{fill:#E6E7E8;}
	.st34{fill:#8F8D8F;}
	.st35{fill:#BCBEC0;}
	.st36{fill:#777677;}
	.st37{clip-path:url(#SVGID_2_);}
	.st38{clip-path:url(#SVGID_4_);fill:none;stroke:#34ACE0;stroke-width:0.5;stroke-miterlimit:10;}
	.st39{fill:#F2F5F9;}
	.st40{fill:#DB5630;}
	.st41{fill:none;stroke:#DDDDDD;stroke-width:1.629;stroke-miterlimit:10;}
	.st42{font-family:'FontAwesome5BrandsRegular';}
	.st43{font-size:121.7512px;}
</style>
<circle class="st0" cx="2386.5" cy="-1041.9" r="79.9"/>
<path class="st1" d="M2339.6-1078.4v60.6c0,2.4,2,4.4,4.4,4.4h82.5c2.4,0,4.4-2,4.4-4.4l0-51.9c0-2.4-2-4.4-4.4-4.4h-49
	c-2.4,0-4.4-2-4.4-4.4l0,0c0-2.4-2-4.4-4.4-4.4h-24.8C2341.5-1082.8,2339.6-1080.8,2339.6-1078.4z"/>
<circle class="st0" cx="2590.9" cy="-1038.5" r="79.9"/>
<path class="st1" d="M2617-988.9h-52.2c-5.8,0-10.6-4.7-10.6-10.6v-72.8c0-5.8,4.7-10.6,10.6-10.6h52.2c5.8,0,10.6,4.7,10.6,10.6
	v72.8C2627.6-993.6,2622.8-988.9,2617-988.9z"/>
<circle class="st0" cx="2388.5" cy="-859.2" r="78.3"/>
<path class="st2" d="M2637.3-555.6v-99.2c0,0,81-13.1,83.4,54.4c2.5,70.5-84.5,52.8-84.5,52.8"/>
<path class="st3" d="M2646.1-556v-89.1c0,0,60.7-8.9,62.2,45.5c0.6,20.2-9.9,31.1-20.5,37c-9.1,5-19.6,6.8-29.9,5.6l-2.5-0.3v-78"/>
<rect x="879.9" y="-1596.1" class="st4" width="1280" height="500"/>
<g id="IjoVtQ.tif">
	
		<image style="overflow:visible;" width="454" height="346" id="Layer_0_4_" xlink:href="8604E2B66299BBE4.png"  transform="matrix(1 0 0 1 1439.519 -1014.8096)">
	</image>
</g>
<polygon class="st5" points="2188,-1018.6 845.6,-1134 845.6,-1634 2205,-1672.9 "/>
<path class="st6" d="M1750.6-1129"/>
<circle class="st0" cx="1191.9" cy="-1344.3" r="116.2"/>
<polygon class="st0" points="1119.2,-1434.9 840.9,-1255.1 840.9,-1096.1 1023.7,-1096.1 1265.2,-1254 "/>
<circle class="st7" cx="1808.9" cy="-1348" r="116.2"/>
<polygon class="st7" points="1881.6,-1257.3 2159.9,-1437.1 2159.9,-1596.1 1977.1,-1596.1 1735.6,-1438.2 "/>
<g id="rTydHl.tif">
	
		<image style="overflow:visible;" width="88" height="88" id="Layer_0_5_" xlink:href="8604E2B66299BBE5.png"  transform="matrix(1 0 0 1 2262.5808 -1493.6097)">
	</image>
</g>
<g id="j1Rxuq.tif">
	
		<image style="overflow:visible;" width="88" height="88" id="Layer_0_6_" xlink:href="8604E2B66299BBE3.png"  transform="matrix(1 0 0 1 1172.5323 -830.2761)">
	</image>
</g>
<image style="overflow:visible;" width="1920" height="1244" xlink:href="../../../interactive-design-2/SAAS High-Fid/Moodboards/smartphone.png"  transform="matrix(0.3155 6.963499e-02 -6.963499e-02 0.3155 755.9706 -1585.4955)">
</image>
<g>
	<path class="st8" d="M1066.9-1202.6c-0.3,0-0.6,0-0.8-0.1l-128.5-28.5c-1-0.2-1.9-0.9-2.5-1.8c-0.6-0.9-0.8-2-0.5-3.1l52.9-238.4
		c0.4-1.9,2-3.2,3.8-3.2c0.3,0,0.6,0,0.9,0.1l127.5,29.4c2.1,0.5,3.5,2.7,3,4.9l-51.9,237.4
		C1070.4-1203.9,1068.8-1202.6,1066.9-1202.6z"/>
	<path class="st9" d="M991.4-1475.6c0.1,0,0.3,0,0.4,0l127.5,29.4c1.1,0.2,1.7,1.4,1.5,2.5l-51.9,237.4c-0.2,0.9-1,1.6-1.9,1.6
		c-0.1,0-0.3,0-0.4,0l-128.5-28.5c-0.7-0.1-1-0.6-1.2-0.9c-0.3-0.5-0.4-1.1-0.3-1.6l52.9-238.4
		C989.7-1474.9,990.5-1475.6,991.4-1475.6 M991.4-1479.6c-2.7,0-5.2,1.9-5.8,4.7l-52.9,238.4c-0.7,3.3,1.3,6.6,4.5,7.3l128.5,28.5
		c0.4,0.1,0.8,0.1,1.3,0.1c2.7,0,5.2-1.9,5.8-4.8l51.9-237.4c0.7-3.3-1.3-6.5-4.5-7.3l-127.5-29.4
		C992.2-1479.6,991.8-1479.6,991.4-1479.6L991.4-1479.6z"/>
</g>
<path class="st7" d="M980.3-1373.5l6.1,60.3c0.2,2.4,2.4,4.1,4.8,3.9l82.1-8.4c2.4-0.2,4.1-2.4,3.9-4.8l-5.3-51.6
	c-0.2-2.4-2.4-4.1-4.8-3.9l-48.8,5c-2.4,0.2-4.5-1.5-4.8-3.9l0,0c-0.2-2.4-2.4-4.1-4.8-3.9l-24.6,2.5
	C981.8-1378,980.1-1375.9,980.3-1373.5z"/>
<g>
	<path class="st1" d="M1044.4-1441.9l39.7-18.5c0,0,4.7,8.7,11.7,8.4l-16.9,24.7c0,0-1,8.8-8.3,9.1
		C1063.3-1417.8,1044.6-1437.5,1044.4-1441.9z"/>
	<polygon class="st10" points="1076.1,-1420.9 1078.9,-1427.4 1106.1,-1469.9 1106.9,-1451.4 	"/>
</g>
<g>
	<path class="st11" d="M1028.4-1392.6c0,0,23.5,12.6,31.7,4.1l-32.6,51.6c0,0-10,3-11.9-0.1L1028.4-1392.6z"/>
	<path class="st1" d="M1039.6-1387.9l11.9-27c0,0,14,23.7,8.6,26.4C1054.7-1385.8,1053.8-1383.5,1039.6-1387.9z"/>
</g>
<g>
	<path class="st11" d="M1134.9-1502c0,0,11,48.5,25,53l32-4.2l-8.5-51.5c0,0-29,12-36,9.2S1134.9-1502,1134.9-1502z"/>
	<path class="st1" d="M1134.9-1502c0,0-0.2-5.8,5-8.2l13.2,14.9C1153.1-1495.3,1145.3-1491.6,1134.9-1502z"/>
</g>
<path class="st12" d="M996.7-1350.4c0,0,1.9,34.8-10.2,37.2c0,0,0.4,3.9,4.8,3.9c4.4,0,89.1-9.5,89.1-9.5s3,0,3-6s-4-45-4-45
	l-84,8.7L996.7-1350.4z"/>
<g>
	<path class="st11" d="M1234.3-1532.8l-4.5,26c0,0,9.5-20,15.2-20L1234.3-1532.8z"/>
	<path class="st1" d="M1281.8-1514.7l-20,37.5c-43.8,4.9-32-27.4-32-29.6s8.3-14.2,8.3-14.2s0.5,10.7,10.7,12.4
		S1281.8-1514.7,1281.8-1514.7z"/>
</g>
<g>
	<path class="st10" d="M1297.9-1535.3l-36.1-11.1c0,0,15.7-22.5,12.9-31.7l26.4,34.7C1301.2-1543.5,1303.6-1538.7,1297.9-1535.3z"/>
	<polygon class="st1" points="1266.8,-1538.1 1287.7,-1538.5 1265.1,-1545.4 	"/>
	<path class="st1" d="M1264.1-1549.9c0,0-8-33.3-10.5-35.6c0,0,27-0.1,22.2,15.1C1270.5-1553.4,1267.5-1553.4,1264.1-1549.9z"/>
</g>
<g>
	<path class="st1" d="M1911.7-1236.8l36.5,35.7c0,0-7.6,8.7-4.3,16.3l-33.9-8.3c0,0-10,2.5-13.4-5.3
		C1893.2-1206.3,1906.9-1234.7,1911.7-1236.8z"/>
	<polygon class="st10" points="1901.8,-1193.5 1910,-1193.2 1967.7,-1181 1947.8,-1172.4 	"/>
</g>
<g>
	<path class="st11" d="M2083.8-1429l0.1,23.5c0,0,5.2-19,10.2-19.9L2083.8-1429z"/>
	<path class="st1" d="M2128.2-1420.6l-11.7,36c-37.6,11.1-32.3-19-32.6-20.9s5-13.7,5-13.7s2.1,9.3,11.3,9.2
		S2128.2-1420.6,2128.2-1420.6z"/>
</g>
<g>
	<path class="st10" d="M2081-1235.3l-37.5-4.6c0,0,11.5-24.9,7.2-33.5l32.1,29.5C2082.8-1243.9,2086-1239.7,2081-1235.3z"/>
	<polygon class="st1" points="2049.8,-1232.6 2070.4,-1236.6 2046.9,-1239.5 	"/>
	<path class="st1" d="M2045.1-1243.7c0,0-13.7-31.4-16.6-33.2c0,0,26.6-4.9,24.5,11C2050.8-1248.3,2047.9-1247.8,2045.1-1243.7z"/>
</g>
<g>
	<path class="st1" d="M2058.4-1335.4c0,0-5.2,10.4,0.4,19.6l6.6-6.5c0,0,33,7.8,51.5,16.7c18.5,8.9,24.3,11.7,24.3,11.7
		s-24.8-31.6-26.2-41.3C2115-1335.3,2072.8-1326.3,2058.4-1335.4z"/>
	<path class="st13" d="M2061.7-1315.5l78.2,20.5c0,0-53.3-26.8-74.5-27.3c0,0-5.3,3.7-6.6,6.5L2061.7-1315.5z"/>
</g>
<g>
	<path class="st11" d="M1934.1-1268l0.1,26.4c0,0,5.8-21.4,11.5-22.4L1934.1-1268z"/>
	<path class="st1" d="M1984-1258.5l-13.1,40.5c-42.2,12.5-36.3-21.3-36.7-23.5s5.7-15.4,5.7-15.4s2.4,10.4,12.7,10.3
		S1984-1258.5,1984-1258.5z"/>
</g>
<polygon class="st7" points="824.7,-988.9 -681.9,-1088.7 -731.1,-1672.9 700.9,-1642.9 "/>
<g>
	<circle class="st14" cx="121.2" cy="-1391.9" r="116.2"/>
	<polygon class="st14" points="29.2,-1320.9 203.8,-1039.3 362.8,-1036.3 448.4,-1088 212.9,-1463.4 	"/>
</g>
<g>
	<circle class="st15" cx="-131.3" cy="-1252.3" r="116.2"/>
	<polygon class="st15" points="-38.8,-1322.5 -211.2,-1605.5 -370.1,-1609.7 -474.3,-1588.1 -223.5,-1181.4 	"/>
</g>
<rect x="-175.4" y="-1045.3" class="st1" width="765.1" height="203.8"/>
<image style="overflow:visible;" width="5032" height="3355" xlink:href="../../../interactive-design-2/SAAS High-Fid/Moodboards/Man with phone.png"  transform="matrix(0.1493 0 0 0.1497 -885.2648 -1599.6204)">
</image>
<path class="st16" d="M-207.1-1423.1h-56.5c-6.1,0-11.1-5-11.1-11.1v-47.4c0-6.1,5-11.1,11.1-11.1h56.5c6.1,0,11.1,5,11.1,11.1v47.4
	C-196-1428.1-201-1423.1-207.1-1423.1z"/>
<path class="st9" d="M-264.5-1492.6c0,0-1.7-34.5,28.2-34.5c33.7,0,30.8,34.5,30.8,34.5l-10.4-0.2c0,0-1.5-26.3-19.1-25.4
	c-18.4,1-18.9,25.6-18.9,25.6H-264.5z"/>
<path class="st17" d="M-204.6-1423.1h-29.7c-4.7,0-8.5-3.8-8.5-8.5v-52.5c0-4.7,3.8-8.5,8.5-8.5h29.7c4.7,0,8.5,3.8,8.5,8.5v52.5
	C-196-1426.9-199.9-1423.1-204.6-1423.1z"/>
<path class="st18" d="M-237.1-1476.2c-0.2,0-0.3,0-0.5,0c-1.6,0.3-9.6,2.1-8.2,11.7c0,0,0.4,2.5,2.2,4c0.8,0.7,1.1,1.7,0.9,2.7
	l-3.2,13.4c-0.1,0.2-0.1,0.4-0.1,0.7v1.4c0,1.5,1.2,2.8,2.8,2.8h12.8c1.5,0,2.8-1.2,2.8-2.8v-1.7c0-0.3,0-0.5-0.1-0.8l-3.7-12.6
	c-0.3-1,0-2,0.7-2.7c1.4-1.4,3.4-4.1,3.1-7.8C-228-1473.3-232.8-1476.1-237.1-1476.2z"/>
<g>
	<circle class="st1" cx="-236.8" cy="-1388.8" r="4.8"/>
	<circle class="st1" cx="-236.8" cy="-1368.2" r="4.8"/>
	<circle class="st1" cx="-236.8" cy="-1347.6" r="4.8"/>
	<circle class="st1" cx="-236.8" cy="-1409.4" r="4.8"/>
	<circle class="st1" cx="-236.8" cy="-1327.5" r="4.8"/>
</g>
<polygon class="st15" points="1552,-1829.8 98,-1858.1 126.2,-2462.7 1519.9,-2486.1 "/>
<g>
	<circle class="st14" cx="803.6" cy="-2105.9" r="116.2"/>
	<polygon class="st14" points="732.4,-2197.8 159.9,-1841.3 448.4,-1863.7 500.3,-1778.1 875.3,-2014.4 	"/>
</g>
<g>
	<circle class="st7" cx="1062.9" cy="-2264" r="116.2"/>
	<polygon class="st7" points="1136.2,-2173.8 1485.6,-2402.9 1412.2,-2514.5 1358.3,-2598.8 989,-2353.7 	"/>
</g>
<image style="overflow:visible;" width="1572" height="1176" xlink:href="../../../interactive-design-2/SAAS High-Fid/Moodboards/Phone.png"  transform="matrix(-0.343 0.1429 0.1429 0.343 1351.8066 -2457.9255)">
</image>
<polygon class="st19" points="988,-2068.4 1169.3,-1981.1 1364,-2291.1 1190.7,-2333.1 "/>
<g>
	<circle class="st8" cx="1054.5" cy="-2324.5" r="50.3"/>
</g>
<path class="st20" d="M1045.1-2354.2l25.8,4.2c4.9,0.8,8.3,5.5,7.4,10.4l-6.9,39.4c-0.9,5.1-5.8,8.4-10.8,7.5l-24.4-4.6
	c-4.5-0.8-7.4-5.1-6.5-9.6l7.9-42C1038.3-2352.4,1041.6-2354.7,1045.1-2354.2z"/>
<line class="st21" x1="1044" y1="-2340.4" x2="1070" y2="-2336.4"/>
<line class="st21" x1="1042.4" y1="-2332.5" x2="1068.4" y2="-2328.5"/>
<line class="st21" x1="1041" y1="-2325.4" x2="1067" y2="-2321.5"/>
<line class="st21" x1="1039.5" y1="-2317.7" x2="1065.5" y2="-2313.8"/>
<line class="st21" x1="1037.9" y1="-2310.5" x2="1063.9" y2="-2306.5"/>
<g>
	<circle class="st8" cx="1151.1" cy="-2284.6" r="42.6"/>
</g>
<path class="st1" d="M1131-2288.5c-0.6-7.5,5-14.3,12.5-14.9c2.6-0.2,5.5,0,8.5,0.7c10.5,2.7,11.5,12.7,11.5,12.7
	c4.2,0,8.5,1.1,10.2,2.8s1.9,6,1.9,6c5.7,0,6.5,0,8.3,3.5c1.8,3.5-2.8,8.1-2.8,8.1l-53.5,1.1c0,0-8.1,1.1-8.1-10.1
	C1119.5-2289.5,1131-2288.5,1131-2288.5L1131-2288.5z"/>
<g>
	<circle class="st8" cx="1305.7" cy="-2262.5" r="43.6"/>
</g>
<path class="st22" d="M1280.5-2281.1l-6,26.6c-0.8,3.4,1.4,6.8,4.8,7.5l43.7,9.9c3.4,0.8,6.8-1.4,7.5-4.8l6-26.6
	c0.8-3.4-1.4-6.8-4.8-7.5l-43.7-9.9c-1.7-0.4-3.4,0-4.8,0.8C1281.9-2284.2,1280.9-2282.8,1280.5-2281.1z"/>
<path class="st23" d="M1304.3-2256.5l-17.6-27.8c-0.5-0.8,0.2-1.8,1.1-1.6l43.6,9.9c1.3,0.3,1.6,2,0.4,2.7L1304.3-2256.5z"/>
<polyline class="st24" points="1279.2,-2247 1298.1,-2264.2 1304.1,-2255.5 1313.4,-2260.7 1322.9,-2237.1 "/>
<g>
	<circle class="st8" cx="1322.6" cy="-2130.4" r="70.5"/>
</g>
<path class="st1" d="M1278.9-2156.9l-6.1,49c-0.2,2,1.2,3.8,3.1,4l85.5,10.6c2,0.2,3.8-1.2,4-3.1l6.1-48.8c0.2-2-1.2-3.8-3.1-4
	l-37.5-4.7c-2-0.2-3.4-2-3.1-4l0.1-0.5c0.2-2-1.2-3.8-3.1-4l-27.9-3.5c-2-0.2-3.8,1.2-4,3.1l0,0c-0.2,1.9-1.9,3.3-3.8,3.1l-6.2-0.4
	C1280.8-2160.2,1279.1-2158.8,1278.9-2156.9z"/>
<g>
	<circle class="st8" cx="1305.7" cy="-2129.8" r="18.9"/>
</g>
<circle class="st1" cx="1305.7" cy="-2129.8" r="11.4"/>
<g>
	<path class="st8" d="M1360-2134.5l-11.8-1.5c-2.1-0.3-3.5-2.1-3.3-4.2l0,0c0.3-2.1,2.1-3.5,4.2-3.3l11.8,1.5
		c2.1,0.3,3.5,2.1,3.3,4.2l0,0C1363.9-2135.7,1362.1-2134.3,1360-2134.5z"/>
</g>
<rect x="3604.7" y="-1512" class="st5" width="907.3" height="183.6"/>
<path class="st7" d="M1108.4-2145.4l38.9-54c2.1-2.8,5.8-3.8,9-2.3l31.9,15.1c3.9,1.9,5.4,6.7,3.1,10.4l0,0
	c-2.3,3.7-0.9,8.6,3.1,10.4l47.4,22.2c4,1.9,5.4,6.9,3,10.6l-34.6,51.5c-2.2,3.3-6.6,4.2-9.9,2.1l-89.8-55.8
	C1106.9-2137.2,1106-2142,1108.4-2145.4z"/>
<path class="st12" d="M1107.3-2139.3l-15.3-63.1l95,50.3l23.2,70.8c0,0-3.4,6.1-9.9,2.1c-6.5-4-89.8-55.8-89.8-55.8L1107.3-2139.3z"
	/>
<g>
	<circle class="st1" cx="1081.1" cy="-2262.5" r="2.7"/>
	<circle class="st1" cx="1085.8" cy="-2251.8" r="2.7"/>
	<circle class="st1" cx="1090.5" cy="-2241.2" r="2.7"/>
	<circle class="st1" cx="1076.3" cy="-2273.1" r="2.7"/>
	<circle class="st1" cx="1095.1" cy="-2230.8" r="2.7"/>
</g>
<g>
	<circle class="st1" cx="1234.2" cy="-2137.7" r="2.7"/>
	<circle class="st1" cx="1222.6" cy="-2138.5" r="2.7"/>
	<circle class="st1" cx="1211" cy="-2139.2" r="2.7"/>
	<circle class="st1" cx="1245.9" cy="-2136.9" r="2.7"/>
	<circle class="st1" cx="1199.6" cy="-2140" r="2.7"/>
</g>
<g>
	<g>
		<circle class="st1" cx="1209.8" cy="-2184" r="2.7"/>
		<circle class="st1" cx="1200.8" cy="-2176.6" r="2.7"/>
		<circle class="st1" cx="1191.8" cy="-2169.3" r="2.7"/>
		<circle class="st1" cx="1218.8" cy="-2191.4" r="2.7"/>
		<circle class="st1" cx="1183" cy="-2162" r="2.7"/>
	</g>
	<g>
		<circle class="st1" cx="1253.2" cy="-2222.6" r="2.7"/>
		<circle class="st1" cx="1244.5" cy="-2214.8" r="2.7"/>
		<circle class="st1" cx="1235.8" cy="-2207" r="2.7"/>
		<circle class="st1" cx="1261.8" cy="-2230.4" r="2.7"/>
		<circle class="st1" cx="1227.4" cy="-2199.4" r="2.7"/>
	</g>
</g>
<g>
	<g>
		<circle class="st1" cx="1154.1" cy="-2211.6" r="2.7"/>
		<circle class="st1" cx="1154.9" cy="-2200" r="2.7"/>
		<circle class="st1" cx="1155.7" cy="-2188.4" r="2.7"/>
		<circle class="st1" cx="1153.2" cy="-2223.3" r="2.7"/>
		<circle class="st1" cx="1156.6" cy="-2177" r="2.7"/>
	</g>
	<g>
		<circle class="st1" cx="1146.2" cy="-2280.9" r="2.7"/>
		<circle class="st1" cx="1151.6" cy="-2234.9" r="2.7"/>
	</g>
</g>
<text transform="matrix(1 0 0 1 2345.5337 -807.083)" class="st1" style="font-family:'Roboto-Black'; font-size:145.6408px;">D</text>
<g id="pLhPJw.tif">
	
		<image style="overflow:visible;" width="276" height="457" id="Layer_0_8_" xlink:href="8604E2B66299BBEC.png"  transform="matrix(1 0 0 1 2729.0156 -888.1152)">
	</image>
</g>
<g id="QpYm1F.tif">
	
		<image style="overflow:visible;" width="276" height="457" id="Layer_0_9_" xlink:href="8604E2B66299BBE6.png"  transform="matrix(1 0 0 1 -2330.5342 -2884.4961)">
	</image>
</g>
<circle class="st7" cx="517.6" cy="-757.6" r="84.2"/>
<g>
	<path class="st10" d="M-2269.8-2307.1l-36.1-11.1c0,0,15.7-22.5,12.9-31.7l26.4,34.7C-2266.5-2315.2-2264.1-2310.5-2269.8-2307.1z"
		/>
	<polygon class="st1" points="-2301,-2309.9 -2280,-2310.2 -2302.7,-2317.2 	"/>
	<path class="st1" d="M-2303.7-2321.6c0,0-8-33.3-10.5-35.6c0,0,27-0.1,22.2,15.1C-2297.3-2325.1-2300.2-2325.1-2303.7-2321.6z"/>
</g>
<g>
	<path class="st11" d="M496.9-781.1c0,0,11,48.5,25,53l32-4.2l-8.5-51.5c0,0-29,12-36,9.2C502.4-777.4,496.9-781.1,496.9-781.1z"/>
	<path class="st1" d="M496.9-781.1c0,0-0.2-5.8,5-8.2l13.2,14.9C515.1-774.4,507.3-770.8,496.9-781.1z"/>
</g>
<circle class="st15" cx="1864.8" cy="441.4" r="128.7"/>
<polygon class="st1" points="1769.7,379.5 1769.7,501 1851.9,501 1851.9,404.6 1827,404.6 1827,379.5 "/>
<polygon class="st10" points="1935.5,379.5 1959.8,404.6 1935.5,404.6 "/>
<polygon class="st10" points="1827,379.5 1851.9,404.6 1827,404.6 "/>
<polygon class="st1" points="1877.3,379.5 1935.5,379.5 1935.5,404.6 1959.8,404.6 1959.8,503.3 1877.3,503.3 "/>
<g>
	<g>
		<path class="st10" d="M1896,417.4c15,0,30,0,45,0c1.6,0,1.6-2.5,0-2.5c-15,0-30,0-45,0C1894.4,414.9,1894.4,417.4,1896,417.4
			L1896,417.4z"/>
	</g>
</g>
<g>
	<g>
		<path class="st10" d="M1917.5,432.1c7.8,0,15.7,0,23.5,0c1.2,0,1.2-1.8,0-1.8c-7.8,0-15.7,0-23.5,0
			C1916.4,430.3,1916.4,432.1,1917.5,432.1L1917.5,432.1z"/>
	</g>
</g>
<g>
	<g>
		<path class="st10" d="M1896,450.5c15,0,30,0,45,0c1.6,0,1.6-2.5,0-2.5c-15,0-30,0-45,0C1894.4,448,1894.4,450.5,1896,450.5
			L1896,450.5z"/>
	</g>
</g>
<g>
	<g>
		<path class="st10" d="M1917.5,467.8c7.5,0,15,0,22.5,0c1.6,0,1.6-2.5,0-2.5c-7.5,0-15,0-22.5,0
			C1915.9,465.3,1915.9,467.8,1917.5,467.8L1917.5,467.8z"/>
	</g>
</g>
<g>
	<g>
		<path class="st10" d="M1896,483.8c15,0,30,0,45,0c1.6,0,1.6-2.5,0-2.5c-15,0-30,0-45,0C1894.4,481.3,1894.4,483.8,1896,483.8
			L1896,483.8z"/>
	</g>
</g>
<polygon class="st7" points="1831.9,420.1 1831.9,442.4 1883.6,442.4 1883.6,450.5 1913.3,431.1 1883.6,412 1883.6,419.8 "/>
<polygon class="st7" points="1895.6,479.7 1895.6,457.5 1844,457.5 1844,449.3 1814.3,468.8 1844,487.9 1844,480.1 "/>
<g>
	<g>
		<path class="st10" d="M1777.8,417.5c15,0,30,0,45,0c1.6,0,1.6-2.5,0-2.5c-15,0-30,0-45,0C1776.2,415,1776.2,417.5,1777.8,417.5
			L1777.8,417.5z"/>
	</g>
</g>
<g>
	<g>
		<path class="st10" d="M1777.8,432.5c15,0,30,0,45,0c1.6,0,1.6-2.5,0-2.5c-15,0-30,0-45,0C1776.2,430,1776.2,432.5,1777.8,432.5
			L1777.8,432.5z"/>
	</g>
</g>
<g>
	<g>
		<path class="st10" d="M1777.8,450.6c15,0,30,0,45,0c1.6,0,1.6-2.5,0-2.5c-15,0-30,0-45,0C1776.2,448.1,1776.2,450.6,1777.8,450.6
			L1777.8,450.6z"/>
	</g>
</g>
<g>
	<g>
		<path class="st10" d="M1777.8,467.8c7.5,0,15,0,22.5,0c1.6,0,1.6-2.5,0-2.5c-7.5,0-15,0-22.5,0
			C1776.2,465.3,1776.2,467.8,1777.8,467.8L1777.8,467.8z"/>
	</g>
</g>
<g>
	<g>
		<path class="st10" d="M1777.8,483.8c15,0,30,0,45,0c1.6,0,1.6-2.5,0-2.5c-15,0-30,0-45,0C1776.2,481.3,1776.2,483.8,1777.8,483.8
			L1777.8,483.8z"/>
	</g>
</g>
<circle class="st25" cx="1888.4" cy="6.1" r="120.5"/>
<g>
	<g>
		<path class="st1" d="M1806.1,24.3c0.1-0.9,0.2-1.8,0.3-2.7c0-0.5,0.3-2,0-0.1c0.1-0.5,0.1-1,0.2-1.6c0.2-1.4,0.5-2.8,0.7-4.1
			c1.5-7.5,3.7-15.2,6.6-22.1c8.5-20.1,24.1-36.8,45.4-43.6c18-5.8,37.4-4.8,55.8-1.1c6.8,1.4,9.8-9.1,2.9-10.5
			c-31.8-6.3-66.5-4.4-91.5,18.3c-15.3,13.9-24.8,33.5-29.1,53.5c-1,4.6-1.9,9.4-2.2,14.1C1794.8,31.3,1805.6,31.3,1806.1,24.3
			L1806.1,24.3z"/>
	</g>
</g>
<g>
	<g>
		<path class="st1" d="M1945.4-30.7c-1.2-0.9-0.2-0.2,0.4,0.3c1,0.9,2,1.8,2.9,2.7c3.2,3.3,6,6.9,8.4,10.8
			c8.9,14.3,12.5,30.9,12.7,47.5c0,5.6,8.7,5.6,8.7,0c-0.2-24.4-8-53.6-28.7-69C1945.3-41.6,1941-34.1,1945.4-30.7L1945.4-30.7z"/>
	</g>
</g>
<path class="st26" d="M1887.4,1.5c0,0-15.7,17.6-13.3,24.6c1.3,3.8,3.9,6.2,7.2,7.1c4.3,1.2,8.9-0.8,11.3-4.6l51.6-80
	c1.2-1.9,2-4.4,0.8-6.2c-0.4-0.6-0.8-1.3-1.9-1.9c-3.3-1.9-5.2-0.7-8.7,3.7C1930.3-50.7,1887.4,1.5,1887.4,1.5z"/>
<g>
	<line class="st25" x1="1820.4" y1="22.8" x2="1840.9" y2="22.8"/>
	<g>
		<path class="st1" d="M1820.4,27.1c6.8,0,13.6,0,20.4,0c5.6,0,5.6-8.7,0-8.7c-6.8,0-13.6,0-20.4,0
			C1814.8,18.4,1814.8,27.1,1820.4,27.1L1820.4,27.1z"/>
	</g>
</g>
<g>
	<line class="st25" x1="1830.4" y1="-11.6" x2="1847.8" y2="-0.8"/>
	<g>
		<path class="st1" d="M1828.2-7.9c5.8,3.6,11.6,7.2,17.4,10.8c4.8,3,9.1-4.6,4.4-7.5c-5.8-3.6-11.6-7.2-17.4-10.8
			C1827.9-18.3,1823.5-10.8,1828.2-7.9L1828.2-7.9z"/>
	</g>
</g>
<g>
	<line class="st25" x1="1854.2" y1="-36.6" x2="1864.8" y2="-19.1"/>
	<g>
		<path class="st1" d="M1850.5-34.4c3.5,5.8,7,11.7,10.5,17.5c2.9,4.8,10.4,0.4,7.5-4.4c-3.5-5.8-7-11.7-10.5-17.5
			C1855.1-43.6,1847.6-39.2,1850.5-34.4L1850.5-34.4z"/>
	</g>
</g>
<g>
	<line class="st25" x1="1887.6" y1="-44.4" x2="1887.8" y2="-23.9"/>
	<g>
		<path class="st1" d="M1883.3-44.4c0.1,6.8,0.1,13.6,0.2,20.4c0.1,5.6,8.8,5.6,8.7,0c-0.1-6.8-0.1-13.6-0.2-20.4
			C1891.9-49.9,1883.2-50,1883.3-44.4L1883.3-44.4z"/>
	</g>
</g>
<g>
	<line class="st25" x1="1945.5" y1="-9" x2="1928" y2="1.4"/>
	<g>
		<path class="st1" d="M1943.4-12.8c-5.9,3.5-11.7,6.9-17.6,10.4c-4.8,2.8-0.4,10.4,4.4,7.5c5.9-3.5,11.7-6.9,17.6-10.4
			C1952.6-8.1,1948.2-15.6,1943.4-12.8L1943.4-12.8z"/>
	</g>
</g>
<g>
	<line class="st25" x1="1954" y1="24.3" x2="1933.6" y2="24.3"/>
	<g>
		<path class="st1" d="M1954,19.9c-6.8,0-13.6,0-20.4,0c-5.6,0-5.6,8.7,0,8.7c6.8,0,13.6,0,20.4,0
			C1959.6,28.6,1959.6,19.9,1954,19.9L1954,19.9z"/>
	</g>
</g>
<circle class="st25" cx="2213.4" cy="247.1" r="120.5"/>
<g>
	<line class="st25" x1="2129.1" y1="251.8" x2="2300.5" y2="251.8"/>
	<g>
		<path class="st1" d="M2129.1,256.8c19.3,0,38.5,0,57.8,0c30.7,0,61.5,0,92.2,0c7.1,0,14.3,0,21.4,0c6.4,0,6.4-10,0-10
			c-19.3,0-38.5,0-57.8,0c-30.7,0-61.5,0-92.2,0c-7.1,0-14.3,0-21.4,0C2122.6,246.8,2122.6,256.8,2129.1,256.8L2129.1,256.8z"/>
	</g>
</g>
<circle class="st26" cx="2154.6" cy="224.9" r="21.8"/>
<circle class="st26" cx="2270.5" cy="224.9" r="21.8"/>
<path class="st1" d="M2188.6,290.8l19.3-31.3c3-4.8,9.9-4.9,13-0.1l19.9,31.3c3.2,5.1-0.4,11.8-6.5,11.8h-39.3
	C2189.1,302.5,2185.5,295.9,2188.6,290.8z"/>
<ellipse transform="matrix(0.5 -0.866 0.866 0.5 951.7563 2078.6755)" class="st27" cx="2276.1" cy="215.1" rx="10.8" ry="15.8"/>
<ellipse transform="matrix(0.5 -0.866 0.866 0.5 956.3258 2078.6755)" class="st28" cx="2278.3" cy="211.1" rx="5.1" ry="9.5"/>
<ellipse transform="matrix(0.5 -0.866 0.866 0.5 893.5063 1977.7834)" class="st27" cx="2159.6" cy="215.1" rx="10.8" ry="15.8"/>
<ellipse transform="matrix(0.5 -0.866 0.866 0.5 898.0758 1977.7834)" class="st28" cx="2161.8" cy="211.1" rx="5.1" ry="9.5"/>
<circle class="st25" cx="2487.3" cy="348.1" r="120.5"/>
<path class="st1" d="M2423.4,292.9c10.2-0.2,37.1,6.1,57.6-14.5c2.8-2.8,6.8-6.4,14,0.7c6.7,6.7,12.8,30,49.8,20.7
	c6-1.5-5.4-0.9-6.2,5.2c-4.3,32.2,5.2,116-46,120c-51.5,4.1-71.6-84.7-75.3-117.9C2416.5,301.5,2417.6,293,2423.4,292.9z"/>
<path class="st29" d="M2487.9,275l0,150.1c0,0,20.9,3.4,38.4-18.5c17.5-22,23.7-45.2,28-74c4.3-28.8,4.3-28.8,4.3-28.8
	s2.3-7.4-5.5-10.4c0,0-0.4-1-7.7-0.5c-7.3,0.6-23.6,2.5-37-4.1c0,0-8.4-4.6-13.5-9.7C2495,279.2,2491.7,274.1,2487.9,275z"/>
<path class="st26" d="M2509.3,387.5h-40.8c-3.1,0-5.6-2.5-5.6-5.6v-47.3c0-3.1,2.5-5.6,5.6-5.6h40.8c3.1,0,5.6,2.5,5.6,5.6v47.3
	C2514.9,385,2512.4,387.5,2509.3,387.5z"/>
<path class="st26" d="M2466.5,332.6c0,0-1.3-26.1,21.4-26.1c25.5,0,23.3,26.1,23.3,26.1l-7.9-0.2c0,0-1.1-19.9-14.4-19.2
	c-13.9,0.7-14.3,19.4-14.3,19.4H2466.5z"/>
<path class="st1" d="M2489,345.1c-0.1,0-0.3,0-0.4,0c-1.2,0.2-7.3,1.6-6.2,8.9c0,0,0.3,1.9,1.7,3c0.6,0.5,0.9,1.3,0.7,2.1l-2.4,10.1
	c0,0.2-0.1,0.3-0.1,0.5v1.1c0,1.2,0.9,2.1,2.1,2.1h4.8h4.8c1.2,0,2.1-0.9,2.1-2.1v-1.2c0-0.2,0-0.4-0.1-0.6l-2.8-9.6
	c-0.2-0.7,0-1.5,0.5-2.1c1-1.1,2.5-3.1,2.4-5.9C2495.8,347.3,2492.2,345.1,2489,345.1z"/>
<circle class="st25" cx="3045.3" cy="215.1" r="120.5"/>
<circle class="st25" cx="3415.2" cy="223.9" r="120.5"/>
<path class="st29" d="M2977.8,263.5V162.8c0-5.5,4.5-9.9,9.9-9.9h35.1c2.7,0,5.3,1.1,7.2,3.1l6.5,6.7c1.8,1.9,4.3,3,6.9,3l60.4,1.4
	c5.4,0.1,9.7,4.5,9.7,9.9V232c0,4.8-3.5,9-8.3,9.8l-97.3,24.4C3001.9,267.3,2977.8,279.3,2977.8,263.5z"/>
<path class="st30" d="M3045.3,335.6l-58.1-60.4l126.3-61.3l44.3,44.3C3157.8,258.2,3132.1,333.3,3045.3,335.6z"/>
<circle class="st25" cx="3831.3" cy="213.9" r="120.5"/>
<path class="st1" d="M2993.1,191.6l-15.3,72c-1.3,6,3.3,11.7,9.5,11.7h113.7c4.6,0,8.5-3.2,9.5-7.7l15.3-74.3
	c1.2-6-3.3-11.6-9.5-11.6h-110.7C2999.5,181.5,2994.3,185.7,2993.1,191.6z"/>
<line class="st10" x1="1947.5" y1="343.5" x2="1971.8" y2="368.6"/>
<path class="st1" d="M1971.8,467.3"/>
<path class="st30" d="M3370.9,285.5l58.7,58c0,0,77.3-4.6,102.5-90.5l-64.3-73.5L3370.9,285.5z"/>
<polygon class="st1" points="3370.9,148.7 3435,148.7 3439.2,176.5 3467.8,179.6 3467.8,285.5 3370.9,285.5 "/>
<polygon class="st10" points="3435,148.7 3467.8,179.6 3435.3,179.5 "/>
<path class="st30" d="M3732.6,252.7l60.3,75.4c0,0,96.7,34.7,148.3-64.9l-49.6-31.7l-40.3-26.3l-53.7,3.3l-12.3,34L3732.6,252.7z"/>
<g>
	<path class="st1" d="M3728.2,246.8c2.3-11.3,8.8-27.6,27.4-30.4c0.5-0.1,0.9-0.1,1.4-0.1h19.1c1.2,0,2.5,0.3,3.6,0.7
		c4.8,2.1,17.1,9.2,22.5,29.3c1.6,5.8-2.8,11.5-8.8,11.5h-56.3C3731.3,257.8,3727,252.5,3728.2,246.8z"/>
	<circle class="st1" cx="3764.2" cy="197.6" r="21.2"/>
</g>
<g>
	<path class="st1" d="M3827.1,146.9l8.7,0.2c2.6,0.1,4.6,2.2,4.5,4.7l-0.1,2.5c0,1.8,0.9,3.4,2.5,4.2c2.5,1.3,6.4,3.4,9.3,5.8
		c1.3,1,3,1.3,4.5,0.8l3.8-1.4c2-0.7,4.3,0,5.5,1.9l4.3,6.7c1.2,1.9,0.9,4.3-0.7,5.8l-3.2,3c-0.9,0.8-1.4,2-1.4,3.2l-0.3,11.7
		c0,1.2,0.4,2.4,1.3,3.3l3.2,3.4c1.5,1.5,1.7,3.9,0.5,5.6l-4.6,7.3c-1.3,2-3.8,2.7-5.9,1.7l-3.4-1.6c-1.3-0.6-2.8-0.6-4.1,0
		l-9.6,4.9c-1.4,0.7-2.4,2.1-2.5,3.7l-0.3,2.9c-0.2,2.4-2.3,4.3-4.7,4.2l-8.9-0.2c-2.3-0.1-4.2-1.8-4.5-4.2l-0.3-3.1
		c-0.1-1.4-0.9-2.6-2-3.4l-9.4-6.3c-1.4-0.9-3.2-1-4.6-0.3l-2.5,1.3c-2,1-4.5,0.4-5.8-1.5l-4-5.7c-1.3-1.9-1.1-4.4,0.6-6l3.7-3.5
		c0.9-0.8,1.4-2,1.4-3.2l0.3-12c0-1.2-0.4-2.4-1.3-3.3l-3.5-3.7c-1.6-1.7-1.7-4.2-0.3-6l4.7-5.9c1.5-1.9,4.3-2.3,6.3-0.9v0
		c2.3,1.6,5.3,1.7,7.6,0.3l8.2-5c1.3-0.8,2.2-2.2,2.2-3.8l0.1-3.8C3822.5,148.8,3824.6,146.8,3827.1,146.9z"/>
	<circle class="st25" cx="3831.2" cy="189.2" r="13.1"/>
</g>
<g>
	<path class="st1" d="M3861.1,246c2.3-11.3,8.8-27.6,27.4-30.4c0.5-0.1,0.9-0.1,1.4-0.1h19.1c1.2,0,2.5,0.3,3.6,0.7
		c4.8,2.1,17.1,9.2,22.5,29.3c1.6,5.8-2.8,11.5-8.8,11.5H3870C3864.2,257,3860,251.6,3861.1,246z"/>
	<circle class="st1" cx="3897.1" cy="196.8" r="21.2"/>
</g>
<circle class="st25" cx="3479.7" cy="561.9" r="120.5"/>
<path class="st30" d="M3419.9,625.4l65.5,57c0,0,112-7.2,114.8-120.5l-80.6-69.8l-51.6,61l-19.9,19.9l-13.7-11.6l-14.6,42.5V625.4z"
	/>
<path class="st1" d="M3413.9,553.1h13.2c4.4,0,7.8,3.9,7.3,8.2c-1.5,12.3-3,35.8,4.4,53.8c2,4.8-1.4,10.1-6.6,10.2
	c-0.1,0-0.2,0-0.3,0h-12.1c-3.1,0-5.9-2-6.9-4.9c-0.6-1.6-1.2-3.7-2-6.6c-2.7-10.2-4-51.2-4-51.2c0,0,0,0,0,0
	C3406.9,562.6,3409.4,553.1,3413.9,553.1z"/>
<path class="st1" d="M3445.8,557.6c-0.7,0.7-1.3,1.6-1.6,2.6c-1.5,4.3-5.4,16.8-3.2,27c2.6,11.8,3.8,22.8,11,29.1
	c0.9,0.8,1.9,1.3,3,1.5c6.8,1.5,34.5,7.1,58.2,5.4c27.2-2,27.2-12,27.2-12v-6.5c0-1.6,0.6-3.2,1.6-4.5c1.8-2.1,4.4-6.1,4.4-10.9
	c0-2.8-0.4-5-0.9-6.5c-0.8-2.5-0.1-5.1,1.8-7l0,0c1.4-1.4,2.2-3.3,2.1-5.3c-0.2-2.6-0.8-6.2-3.3-8.4c-1.6-1.5-2.5-3.6-2.3-5.8
	l0.7-8.7c0.1-1.5-0.2-3-1-4.2c-1.8-3-6.4-7.6-16.6-7.6h-9.3c-5.5,0-8.9-6.1-5.9-10.8l4-6.3c3.5-5.5,5.5-12,5.4-18.5
	c-0.1-4.9-1.2-9.8-5.2-11.6c-9-4.2-12,2.2-12,2.2s-8.5,17.5-11.2,20.2C3490,513.5,3455.4,547.9,3445.8,557.6z"/>
<circle class="st25" cx="4155.5" cy="334" r="120.5"/>
<path class="st30" d="M4074.4,423.1c-3.2-2.8-8.4-69.2-8.4-69.2l38.1-7.5l90.5,101.6C4194.6,448,4132.7,474.3,4074.4,423.1z"/>
<path class="st30" d="M4202.2,335.9l42.4-11.8l30.7,22.3c0,0-4,44.5-34.2,71.6l-32.1-34.5L4202.2,335.9z"/>
<g>
	<path class="st1" d="M4100.3,309.4c-4.7-3.8-10.6-5.9-16.6-5.7c-8.9,0.2-20.3,3.3-22,18.8c-2.8,24.7,0.6,54.4,25.2,62.8
		c21.9,7.5,17.3-56.5,16-71.1C4102.7,312.2,4101.7,310.5,4100.3,309.4L4100.3,309.4z"/>
	<path class="st1" d="M4206,311.1c4.7-3.8,10.6-5.9,16.6-5.7c8.9,0.2,20.3,3.3,22,18.8c2.8,24.7-0.6,54.4-25.2,62.8
		c-21.9,7.5-17.3-56.5-16-71.1C4203.6,313.9,4204.5,312.2,4206,311.1L4206,311.1z"/>
	<path class="st1" d="M4075.2,318.5c0,0,4.6-72.8,72.8-72.8c68.2,0,75.9,52.7,79.2,60c3.3,7.3-6.4,7.3-6.4,7.3s-16.5-61.8-69.2-57.2
		c-52.8,4.6-57,26.3-69.1,62.7H4075.2z"/>
	<circle class="st1" cx="4135.6" cy="409" r="14.1"/>
	<path class="st1" d="M4127,409v-3.9c0,0-36.6-4.2-36.6-28.2h-7.9C4082.5,377,4090.8,409,4127,409z"/>
</g>
<circle class="st25" cx="4435.9" cy="400.6" r="120.5"/>
<path class="st30" d="M4408.7,518c-5-1-20-59.2-20-59.2l94.9-35.7l64,22.9C4547.6,446,4512.4,538.1,4408.7,518z"/>
<path class="st1" d="M4473.5,469h-74.6c-5.6,0-10.2-4.6-10.2-10.2v-86.4c0-5.6,4.6-10.2,10.2-10.2h74.6c5.6,0,10.2,4.6,10.2,10.2
	v86.4C4483.6,464.4,4479,469,4473.5,469z"/>
<path class="st1" d="M4395.3,368.8c0,0-2.4-47.7,39-47.7c46.6,0,42.5,47.7,42.5,47.7l-14.4-0.3c0,0-2.1-36.3-26.4-35
	c-25.5,1.4-26.2,35.4-26.2,35.4H4395.3z"/>
<path class="st25" d="M4436.4,391.5c-0.2,0-0.5,0-0.7,0.1c-2.3,0.4-13.3,2.9-11.3,16.2c0,0,0.6,3.4,3.1,5.5c1.1,0.9,1.6,2.4,1.2,3.8
	l-4.5,18.5c-0.1,0.3-0.1,0.6-0.1,0.9v2c0,2.1,1.7,3.8,3.8,3.8h8.8h8.8c2.1,0,3.8-1.7,3.8-3.8v-2.3c0-0.4-0.1-0.7-0.2-1.1l-5.1-17.5
	c-0.4-1.3,0-2.8,0.9-3.8c1.9-1.9,4.7-5.7,4.3-10.8C4448.9,395.5,4442.2,391.6,4436.4,391.5z"/>
<text transform="matrix(1 0 0 1 3435.0161 -397.5316)" class="st25 st42" style="font-size:63.2937px;"></text>
<text transform="matrix(1 0 0 1 3283.9473 -5.082)" class="st25 st42" style="font-size:63.7536px;"></text>
<rect x="3802.6" y="-469.9" class="st7" width="579.3" height="334"/>
<path class="st1" d="M3882.1-335.4l47.3,29l119.3-34.6l-28-11.7c0,0-18.7-11.7-27-22.5c0,0-9.3,11.1-19.5,15.1
	S3882.1-335.4,3882.1-335.4z"/>
<g>
	<g>
		<path class="st1" d="M3881.4-321.5c11.2,6.7,22.3,13.5,33.5,20.2c3,1.8,6,3.6,9,5.5c1.3,0.8,3,2.2,4.4,2.7c1.8,0.5,3.7-0.5,5.4-1
			c29.2-8.5,58.3-17,87.5-25.5c9.7-2.8,19.5-5.7,29.2-8.5c1.8-0.5,1.1-3.4-0.8-2.9c-23.6,6.9-47.3,13.8-70.9,20.7
			c-13.8,4-27.7,8.1-41.5,12.1c-2.7,0.8-5.5,1.8-8.3,2.4c-0.6,0.1,1.4,0.4,0.8,0.1c-0.6-0.3-1.1-0.7-1.7-1c-2.4-1.5-4.9-2.9-7.3-4.4
			c-12.6-7.6-25.3-15.3-37.9-22.9C3881.2-325.1,3879.7-322.5,3881.4-321.5L3881.4-321.5z"/>
	</g>
</g>
<g>
	<g>
		<path class="st1" d="M3881.4-309c11.1,6.6,22.2,13.2,33.3,19.8c3.1,1.9,6.3,3.7,9.4,5.6c1.6,0.9,3.3,2.4,5.1,3
			c1.8,0.6,3.3-0.2,5.1-0.8c28.6-8.7,57.2-17.4,85.8-26.1c9.7-2.9,19.4-5.9,29-8.8c1.8-0.6,1.1-3.4-0.8-2.9
			c-23.6,7.2-47.1,14.3-70.7,21.5c-13.4,4.1-26.9,8.2-40.3,12.3c-2.4,0.7-4.9,1.8-7.4,2.3c0.5-0.1,1.4,0.5,0.6-0.1
			c-0.6-0.4-1.3-0.8-2-1.2c-2.6-1.5-5.2-3.1-7.8-4.6c-12.6-7.5-25.2-15-37.9-22.5C3881.2-312.6,3879.7-310,3881.4-309L3881.4-309z"
			/>
	</g>
</g>
<g>
	<g>
		<path class="st1" d="M3881.4-296.3c11.1,6.5,22.3,13.1,33.4,19.6c3.1,1.8,6.2,3.6,9.2,5.4c1.5,0.9,3.1,2.3,4.8,2.8
			c1.8,0.6,3.4-0.2,5.3-0.8c28.6-8.6,57.2-17.2,85.8-25.8c9.8-2.9,19.5-5.9,29.3-8.8c1.8-0.6,1.1-3.4-0.8-2.9
			c-23.6,7.1-47.2,14.2-70.8,21.3c-13.5,4.1-26.9,8.1-40.4,12.2c-2.5,0.7-5.1,1.8-7.6,2.3c0.1,0,1.5,0.5,0.7-0.1
			c-0.6-0.4-1.4-0.8-2-1.2c-2.5-1.4-4.9-2.9-7.4-4.3c-12.6-7.4-25.3-14.8-37.9-22.3C3881.2-299.8,3879.7-297.3,3881.4-296.3
			L3881.4-296.3z"/>
	</g>
</g>
<g>
	<g>
		<path class="st1" d="M3881.4-284.4c11.1,6.6,22.2,13.1,33.2,19.7c3.1,1.8,6.1,3.6,9.2,5.5c1.4,0.8,3.1,2.3,4.7,2.8
			c1.8,0.5,3.5-0.4,5.3-0.9c28.8-8.6,57.6-17.3,86.3-25.9c9.7-2.9,19.3-5.8,29-8.7c1.8-0.6,1.1-3.4-0.8-2.9
			c-23.5,7.1-47.1,14.1-70.6,21.2c-13.6,4.1-27.2,8.1-40.7,12.2c-2.6,0.8-5.2,1.8-7.8,2.4c-0.3,0.1,1.5,0.5,0.7,0
			c-0.6-0.4-1.2-0.7-1.8-1c-2.5-1.5-5-3-7.5-4.4c-12.6-7.5-25.2-14.9-37.7-22.4C3881.2-287.9,3879.7-285.3,3881.4-284.4
			L3881.4-284.4z"/>
	</g>
</g>
<path class="st30" d="M4151.5-285.1l27,99.2c1.1,3.9,5.1,6.3,9.1,5.2l135-36.7c3.9-1.1,6.3-5.1,5.2-9.1l-23.1-84.9
	c-1.1-3.9-5.1-6.3-9.1-5.2l-80.2,21.8c-3.9,1.1-8-1.3-9.1-5.2l0,0c-1.1-3.9-5.1-6.3-9.1-5.2l-40.5,11
	C4152.7-293.1,4150.4-289,4151.5-285.1z"/>
<g>
	<path class="st1" d="M4068-410.7l9.4,50.2c0,0-11.2,2.8-12.9,10.8l-23-26.3c0,0-9.6-3.7-7.9-12
		C4035.3-396.3,4062.9-411.7,4068-410.7z"/>
	<polygon class="st10" points="4035,-381 4041.5,-376 4081.7,-332.8 4060.5,-337.2 	"/>
</g>
<g>
	<path class="st11" d="M3922.3-413.6l-5.8,32.2c0,0,11.9-24.7,19-24.7L3922.3-413.6z"/>
	<path class="st1" d="M3981-390.9l-25.1,46.3c-54.2,5.7-39.4-34.1-39.4-36.9c0-2.8,10.3-17.5,10.3-17.5s0.5,13.2,13.2,15.5
		C3952.7-381.2,3981-390.9,3981-390.9z"/>
</g>
<g>
	<path class="st10" d="M4247.6-364.5l-34,16.5c0,0-3.9-27.2-12.2-32l43,7.3C4244.4-372.7,4249.5-370.9,4247.6-364.5z"/>
	<polygon class="st1" points="4222.9,-345.3 4238,-359.8 4216.7,-349.5 	"/>
	<path class="st1" d="M4212.9-352c0,0-28.6-18.9-32-18.8c0,0,19.7-18.5,26.6-4.1C4215.2-358.9,4213.1-357,4212.9-352z"/>
</g>
<g>
	<path class="st1" d="M4225.4-340.4c0,0-10.3,5.6-10.9,16.3l9.2-1.5c0,0,22.5,25.4,32.6,43.3c10,17.9,13.2,23.6,13.2,23.6
		s-2.1-40.1,2.3-48.9C4271.7-307.8,4232-324.6,4225.4-340.4z"/>
	<path class="st13" d="M4216.7-322.2l52.2,61.7c0,0-28.2-52.6-45.3-65.2c0,0-6.4,0-9.2,1.5L4216.7-322.2z"/>
</g>
<path class="st1" d="M3875.9-441.2l-7.3,19.2c0,0,16,17.5,31,8.9c14.9-8.7,10.2-25.9,10.2-25.9l-13-9.9
	C3896.8-448.9,3890.2-424.1,3875.9-441.2z"/>
<path class="st25" d="M4185.2-250.1c0,0,12.8,57.7-6.8,65.1c0,0,1.7,6.4,9.1,5.2c7.4-1.2,146.4-40.5,146.4-40.5s5-0.8,3.4-10.9
	c-1.7-10-19.1-74.2-19.1-74.2L4180-267.5L4185.2-250.1z"/>
<g>
	<path class="st11" d="M4110.2-363.8l-15.1,21.7c0,0,17.1-14.1,22.3-11.7L4110.2-363.8z"/>
	<path class="st1" d="M4145.6-327.4l-34,25.6c-41.7-14.1-17.5-38.3-16.5-40.4c0.9-2,13.5-9.4,13.5-9.4s-4.1,9.9,4.5,15.8
		C4121.7-329.8,4145.6-327.4,4145.6-327.4z"/>
</g>
<g>
	<path class="st10" d="M4160.8-355.8l-28-25.3c0,0,23.7-13.8,25.1-23.3l9.3,42.6C4167.2-361.8,4167.4-356.4,4160.8-355.8z"/>
	<polygon class="st1" points="4133.7,-371.5 4152.9,-362.9 4135.3,-378.8 	"/>
	<path class="st1" d="M4136.3-383.2c0,0,6.8-33.6,5.5-36.7c0,0,24.5,11.3,13.8,23.1C4143.5-383.7,4140.9-385,4136.3-383.2z"/>
</g>
<g>
	<rect x="3802.6" y="-820.6" class="st14" width="579.3" height="334"/>
	<path class="st7" d="M4234-579.4h-301.4c-12.1,0-22-9.9-22-22v-160.1c0-12.1,9.9-22,22-22H4234c12.1,0,22,9.9,22,22v160.1
		C4256-589.4,4246.1-579.4,4234-579.4z"/>
	<path class="st31" d="M4215.7-597h-262.1c-13.8,0-25-11.3-25-25v-118.3c0-13.8,11.3-25,25-25h262.1c13.8,0,25,11.3,25,25V-622
		C4240.8-608.2,4229.5-597,4215.7-597z"/>
	<path class="st7" d="M4290-542.5h-104.5c-9.8,0-17.9-8-17.9-17.9v-154.9c0-9.8,8-17.9,17.9-17.9H4290c9.8,0,17.9,8,17.9,17.9v154.9
		C4307.9-550.6,4299.8-542.5,4290-542.5z"/>
	<path class="st7" d="M4116.9-546.3h-64.8c-1.2,0-2.1-0.9-2.1-2.1V-583c0-1.2,0.9-2.1,2.1-2.1h64.8c1.2,0,2.1,0.9,2.1,2.1v34.6
		C4119-547.3,4118.1-546.3,4116.9-546.3z"/>
	<path class="st31" d="M4277.5-562.8H4200c-7.6,0-13.9-6.3-13.9-13.9v-125.9c0-7.6,6.3-13.9,13.9-13.9h77.5
		c7.6,0,13.9,6.3,13.9,13.9v125.9C4291.3-569,4285.1-562.8,4277.5-562.8z"/>
	<path class="st7" d="M4155-542.5h-141c-1.1,0-2-0.9-2-2v-3.6c0-1.1,0.9-2,2-2h141c1.1,0,2,0.9,2,2v3.6
		C4157-543.4,4156.1-542.5,4155-542.5z"/>
	<path class="st30" d="M4012.3-728.4l-0.9,81.2c0,3.2,2.6,5.9,5.8,5.9l110.5,1.2c3.2,0,5.9-2.6,5.9-5.8l0.7-69.5
		c0-3.2-2.6-5.9-5.8-5.9l-65.7-0.7c-3.2,0-5.8-2.7-5.8-5.9l0,0c0-3.2-2.6-5.9-5.8-5.9l-33.2-0.4
		C4015-734.2,4012.3-731.6,4012.3-728.4z"/>
	<path class="st25" d="M4030.6-694.2c0,0-2.7,46.6-19.2,48c0,0-0.1,5.2,5.8,5.9s120,0.8,120,0.8s4,0.5,4.9-7.5s1.4-60.5,1.4-60.5
		l-113.1-1.1L4030.6-694.2z"/>
	<polygon class="st1" points="4212.3,-681.4 4253.1,-681.4 4255.8,-663.7 4274,-661.8 4274,-594.3 4212.3,-594.3 	"/>
	<polygon class="st10" points="4253.1,-681.4 4274,-661.8 4253.3,-661.8 	"/>
	<circle class="st1" cx="4239.3" cy="-697" r="8.7"/>
	<g>
		<g>
			<path class="st1" d="M4089.7-713.5c10.6-14.2,28.7-27.2,46.3-32.9c30-9.8,66.1,0.5,87.2,23.8c5.1,5.7,12.3,14.5,12.5,22.7
				c0.1,2.6,4.1,2.6,4,0c-0.2-7.6-5.5-15.4-10-21.1c-8.8-11.4-20.8-20-34-25.5c-16.3-6.8-34.7-9.7-52.1-6.1
				c-14.6,3-28.1,10.2-39.7,19.5c-6.5,5.2-12.7,11-17.7,17.6C4084.7-713.5,4088.2-711.5,4089.7-713.5L4089.7-713.5z"/>
		</g>
	</g>
	<rect x="4050" y="-579.4" class="st32" width="69" height="13.7"/>
	<path class="st7" d="M3938-513h-48.2c-10.7,0-19.5-8.7-19.5-19.5v-129.1c0-10.7,8.7-19.5,19.5-19.5h48.2c10.7,0,19.5,8.7,19.5,19.5
		v129.1C3957.5-521.7,3948.8-513,3938-513z"/>
	<path class="st31" d="M3939.2-542.5h-50.4c-5.4,0-9.8-4.4-9.8-9.8V-647c0-5.4,4.4-9.8,9.8-9.8h50.4c5.4,0,9.8,4.4,9.8,9.8v94.7
		C3948.9-546.9,3944.5-542.5,3939.2-542.5z"/>
	<circle class="st32" cx="3913.9" cy="-529.2" r="9.2"/>
	<rect x="3897.9" y="-669.6" class="st32" width="27.8" height="2.5"/>
	<polygon class="st1" points="3893.3,-631.8 3921.4,-631.8 3923.2,-619.6 3935.8,-618.2 3935.8,-571.8 3893.3,-571.8 	"/>
	<polygon class="st10" points="3921.4,-631.8 3935.8,-618.2 3921.5,-618.2 	"/>
	<circle class="st1" cx="3915.6" cy="-645.3" r="5.1"/>
	<g>
		<g>
			<path class="st1" d="M4046.2-713c-15.5-15.3-39.7-23.2-61.2-21.9c-17.1,1.1-36.1,7.3-48.2,19.8c-10.1,10.4-16,24.4-19.4,38.4
				c-1.5,6.4-2.6,12.9-3,19.4c-0.2,3.1-0.7,7.1,0.3,10.2c0.5,1.4,2.8,0.8,2.3-0.6c-0.8-2.4-0.5-5.4-0.3-7.9c0.2-5.3,1-10.5,2-15.7
				c2.7-13.5,7.5-27.1,16.2-37.9c11.1-14,29.4-21.2,46.8-23.1c15-1.6,30.2,1.3,43.8,7.9c6.8,3.4,13.8,7.6,19.2,12.9
				C4045.6-710.2,4047.3-711.9,4046.2-713L4046.2-713z"/>
		</g>
	</g>
</g>
<rect x="3813.6" y="-1171.4" class="st5" width="579.3" height="334"/>
<path class="st33" d="M3980.7-999.9l55-67.5c0,0,6.2,10.2,20,7s49.9,3.5,49.9,3.5l97.1,83.5l5,13c0,0,11.7,17,4,24.7
	c-7.7,7.7-27,0-27,0s14.8,13.5,1.7,26.7c-13.2,13.2-33.7-7.3-33.7-7.3s16.5,15.2,5.7,26c-10.8,10.8-32.7-8-32.7-8s6.6,11.3-2.3,20.2
	c-8.9,8.9-28.7-5.9-28.7-5.9l-20.3-20.3l-80.3-68.2C3994.1-972.6,3993.1-987.5,3980.7-999.9z"/>
<path class="st34" d="M4025.3-1034.4l30.4-15.5l13.8-13.8c0,0,27.2-18.8,55.2-11.2c0,0,18,5,21.5,8.5c0,0,24.4,0.8,35.5-10.3
	l61,80.3c0,0-23.3,14-35,36c0,0-33-22-51-35s-41.7-40.3-41.7-40.3s-18-1.7-36,9c-16.4,9.7-10.9,13.6-36,11.7
	c-5.6-0.4-11.1-1.5-16.4-3.2c-0.5-0.2-0.8-0.3-0.9-0.3C4017.6-1023.2,4017.1-1030.1,4025.3-1034.4z"/>
<path class="st35" d="M4086.5-892.3l3.2,3.2c0,0,25.5-20.3,19.5-32.8c-4.8-10-8.9-10.9-13.5-10.8c-1.8,0-3.2-1.5-3-3.3
	c0.4-3.9,0.3-10.3-3.8-14.4c-5.2-5.2-8.7-6.4-14.7-4.8c-1.5,0.4-3-0.9-2.6-2.5c0.8-3.4,1.3-8.3-1.2-12.2c-3.6-5.5-9-9.8-17.8-8
	c-2.3,0.5-4.4-1.3-4.3-3.6c0.1-2.8-0.3-6.2-2.4-8.2c-4.1-4.1-11.3-9.3-24.1-6.1c-8.9,2.3-28.6,18.8-28.6,18.8l0.7,4.4l27.9,5.5
	L4086.5-892.3z"/>
<path class="st34" d="M3986.6-957.7c0.5-5.7,3.3-11,7.5-14.9c8.5-7.8,27.1-23.3,38.1-20.3c14.5,4,14.8,19.2,9.5,24.5
	c0,0,15-16,25.5,0c0,0,7,10.5-4,21.5c0,0,16.2-12.5,23.5-1.8c7.3,10.7-1.5,19.5-1.5,19.5s12.3-5.2,18.5,4.5c4.4,6.9,3.3,13-5,21.3
	c-8.3,8.3-24.3,21.3-24.3,21.3s-10,8.7-18.7,0c-8.7-8.7,2.7-20,2.7-20s-14.7,15-26.7,7.7s-2.3-23-2.3-23s-19.3,11.7-25.7-2.7
	c-6.3-14.3,8.7-23.3,8.7-23.3s-15.5,3.2-22.7-4C3986.9-950.2,3986.3-954.1,3986.6-957.7z"/>
<path class="st14" d="M3911.8-1026.6l56.2,47.3l81.3-99.3l-72.7-58.7c0,0-40.7,37.3-54.7,79
	C3908-1016.6,3911.8-1026.6,3911.8-1026.6z"/>
<path class="st7" d="M4174.9-1080.2l74.7,100l61.8-47.3c0,0-14.9-59.2-64.4-108.8L4174.9-1080.2z"/>
<circle class="st1" cx="4217.2" cy="-1084.2" r="7.1"/>
<circle class="st1" cx="4239.9" cy="-1102.1" r="7.1"/>
<path class="st36" d="M4115-1035.8l9.3,1.6c0,0,15.9,25.9,86.1,69l-2.8,4.7C4207.7-960.4,4145.4-994.1,4115-1035.8z"/>
<g>
	<g>
		<defs>
			<rect id="SVGID_1_" x="-3471.1" y="-7170.1" width="1920" height="6000"/>
		</defs>
		<clipPath id="SVGID_2_">
			<use xlink:href="#SVGID_1_"  style="overflow:visible;"/>
		</clipPath>
		<g class="st37">
			<defs>
				<rect id="SVGID_3_" x="-3471.1" y="-7170.1" width="1920" height="6000"/>
			</defs>
			<clipPath id="SVGID_4_">
				<use xlink:href="#SVGID_3_"  style="overflow:visible;"/>
			</clipPath>
			<rect x="-3471.1" y="-7170.1" class="st38" width="1920" height="24"/>
			<rect x="-3471.1" y="-7146.1" class="st38" width="1920" height="24"/>
			<rect x="-3471.1" y="-7122.1" class="st38" width="1920" height="24"/>
			<rect x="-3471.1" y="-7098.1" class="st38" width="1920" height="24"/>
			<rect x="-3471.1" y="-7074.1" class="st38" width="1920" height="24"/>
			<rect x="-3471.1" y="-7050.1" class="st38" width="1920" height="24"/>
			<rect x="-3471.1" y="-7026.1" class="st38" width="1920" height="24"/>
			<rect x="-3471.1" y="-7002.1" class="st38" width="1920" height="24"/>
			<rect x="-3471.1" y="-6978.1" class="st38" width="1920" height="24"/>
			<rect x="-3471.1" y="-6954.1" class="st38" width="1920" height="24"/>
			<rect x="-3471.1" y="-6930.1" class="st38" width="1920" height="24"/>
			<rect x="-3471.1" y="-6906.1" class="st38" width="1920" height="24"/>
			<rect x="-3471.1" y="-6882.1" class="st38" width="1920" height="24"/>
			<rect x="-3471.1" y="-6858.1" class="st38" width="1920" height="24"/>
			<rect x="-3471.1" y="-6834.1" class="st38" width="1920" height="24"/>
			<rect x="-3471.1" y="-6810.1" class="st38" width="1920" height="24"/>
			<rect x="-3471.1" y="-6786.1" class="st38" width="1920" height="24"/>
			<rect x="-3471.1" y="-6762.1" class="st38" width="1920" height="24"/>
			<rect x="-3471.1" y="-6738.1" class="st38" width="1920" height="24"/>
			<rect x="-3471.1" y="-6714.1" class="st38" width="1920" height="24"/>
			<rect x="-3471.1" y="-6690.1" class="st38" width="1920" height="24"/>
			<rect x="-3471.1" y="-6666.1" class="st38" width="1920" height="24"/>
			<rect x="-3471.1" y="-6642.1" class="st38" width="1920" height="24"/>
			<rect x="-3471.1" y="-6618.1" class="st38" width="1920" height="24"/>
			<rect x="-3471.1" y="-6594.1" class="st38" width="1920" height="24"/>
			<rect x="-3471.1" y="-6570.1" class="st38" width="1920" height="24"/>
			<rect x="-3471.1" y="-6546.1" class="st38" width="1920" height="24"/>
			<rect x="-3471.1" y="-6522.1" class="st38" width="1920" height="24"/>
			<rect x="-3471.1" y="-6498.1" class="st38" width="1920" height="24"/>
			<rect x="-3471.1" y="-6474.1" class="st38" width="1920" height="24"/>
			<rect x="-3471.1" y="-6450.1" class="st38" width="1920" height="24"/>
			<rect x="-3471.1" y="-6426.1" class="st38" width="1920" height="24"/>
			<rect x="-3471.1" y="-6402.1" class="st38" width="1920" height="24"/>
			<rect x="-3471.1" y="-6378.1" class="st38" width="1920" height="24"/>
			<rect x="-3471.1" y="-6354.1" class="st38" width="1920" height="24"/>
			<rect x="-3471.1" y="-6330.1" class="st38" width="1920" height="24"/>
			<rect x="-3471.1" y="-6306.1" class="st38" width="1920" height="24"/>
			<rect x="-3471.1" y="-6282.1" class="st38" width="1920" height="24"/>
			<rect x="-3471.1" y="-6258.1" class="st38" width="1920" height="24"/>
			<rect x="-3471.1" y="-6234.1" class="st38" width="1920" height="24"/>
			<rect x="-3471.1" y="-6210.1" class="st38" width="1920" height="24"/>
			<rect x="-3471.1" y="-6186.1" class="st38" width="1920" height="24"/>
			<rect x="-3471.1" y="-6162.1" class="st38" width="1920" height="24"/>
			<rect x="-3471.1" y="-6138.1" class="st38" width="1920" height="24"/>
			<rect x="-3471.1" y="-6114.1" class="st38" width="1920" height="24"/>
			<rect x="-3471.1" y="-6090.1" class="st38" width="1920" height="24"/>
			<rect x="-3471.1" y="-6066.1" class="st38" width="1920" height="24"/>
			<rect x="-3471.1" y="-6042.1" class="st38" width="1920" height="24"/>
			<rect x="-3471.1" y="-6018.1" class="st38" width="1920" height="24"/>
			<rect x="-3471.1" y="-5994.1" class="st38" width="1920" height="24"/>
			<rect x="-3471.1" y="-5970.1" class="st38" width="1920" height="24"/>
			<rect x="-3471.1" y="-5946.1" class="st38" width="1920" height="24"/>
			<rect x="-3471.1" y="-5922.1" class="st38" width="1920" height="24"/>
			<rect x="-3471.1" y="-5898.1" class="st38" width="1920" height="24"/>
			<rect x="-3471.1" y="-5874.1" class="st38" width="1920" height="24"/>
			<rect x="-3471.1" y="-5850.1" class="st38" width="1920" height="24"/>
			<rect x="-3471.1" y="-5826.1" class="st38" width="1920" height="24"/>
			<rect x="-3471.1" y="-5802.1" class="st38" width="1920" height="24"/>
			<rect x="-3471.1" y="-5778.1" class="st38" width="1920" height="24"/>
			<rect x="-3471.1" y="-5754.1" class="st38" width="1920" height="24"/>
			<rect x="-3471.1" y="-5730.1" class="st38" width="1920" height="24"/>
			<rect x="-3471.1" y="-5706.1" class="st38" width="1920" height="24"/>
			<rect x="-3471.1" y="-5682.1" class="st38" width="1920" height="24"/>
			<rect x="-3471.1" y="-5658.1" class="st38" width="1920" height="24"/>
			<rect x="-3471.1" y="-5634.1" class="st38" width="1920" height="24"/>
			<rect x="-3471.1" y="-5610.1" class="st38" width="1920" height="24"/>
			<rect x="-3471.1" y="-5586.1" class="st38" width="1920" height="24"/>
			<rect x="-3471.1" y="-5562.1" class="st38" width="1920" height="24"/>
			<rect x="-3471.1" y="-5538.1" class="st38" width="1920" height="24"/>
			<rect x="-3471.1" y="-5514.1" class="st38" width="1920" height="24"/>
			<rect x="-3471.1" y="-5490.1" class="st38" width="1920" height="24"/>
			<rect x="-3471.1" y="-5466.1" class="st38" width="1920" height="24"/>
			<rect x="-3471.1" y="-5442.1" class="st38" width="1920" height="24"/>
			<rect x="-3471.1" y="-5418.1" class="st38" width="1920" height="24"/>
			<rect x="-3471.1" y="-5394.1" class="st38" width="1920" height="24"/>
			<rect x="-3471.1" y="-5370.1" class="st38" width="1920" height="24"/>
			<rect x="-3471.1" y="-5346.1" class="st38" width="1920" height="24"/>
			<rect x="-3471.1" y="-5322.1" class="st38" width="1920" height="24"/>
			<rect x="-3471.1" y="-5298.1" class="st38" width="1920" height="24"/>
			<rect x="-3471.1" y="-5274.1" class="st38" width="1920" height="24"/>
			<rect x="-3471.1" y="-5250.1" class="st38" width="1920" height="24"/>
			<rect x="-3471.1" y="-5226.1" class="st38" width="1920" height="24"/>
			<rect x="-3471.1" y="-5202.1" class="st38" width="1920" height="24"/>
			<rect x="-3471.1" y="-5178.1" class="st38" width="1920" height="24"/>
			<rect x="-3471.1" y="-5154.1" class="st38" width="1920" height="24"/>
			<rect x="-3471.1" y="-5130.1" class="st38" width="1920" height="24"/>
			<rect x="-3471.1" y="-5106.1" class="st38" width="1920" height="24"/>
			<rect x="-3471.1" y="-5082.1" class="st38" width="1920" height="24"/>
			<rect x="-3471.1" y="-5058.1" class="st38" width="1920" height="24"/>
			<rect x="-3471.1" y="-5034.1" class="st38" width="1920" height="24"/>
			<rect x="-3471.1" y="-5010.1" class="st38" width="1920" height="24"/>
			<rect x="-3471.1" y="-4986.1" class="st38" width="1920" height="24"/>
			<rect x="-3471.1" y="-4962.1" class="st38" width="1920" height="24"/>
			<rect x="-3471.1" y="-4938.1" class="st38" width="1920" height="24"/>
			<rect x="-3471.1" y="-4914.1" class="st38" width="1920" height="24"/>
			<rect x="-3471.1" y="-4890.1" class="st38" width="1920" height="24"/>
			<rect x="-3471.1" y="-4866.1" class="st38" width="1920" height="24"/>
			<rect x="-3471.1" y="-4842.1" class="st38" width="1920" height="24"/>
			<rect x="-3471.1" y="-4818.1" class="st38" width="1920" height="24"/>
			<rect x="-3471.1" y="-4794.1" class="st38" width="1920" height="24"/>
			<rect x="-3471.1" y="-4770.1" class="st38" width="1920" height="24"/>
			<rect x="-3471.1" y="-4746.1" class="st38" width="1920" height="24"/>
			<rect x="-3471.1" y="-4722.1" class="st38" width="1920" height="24"/>
			<rect x="-3471.1" y="-4698.1" class="st38" width="1920" height="24"/>
			<rect x="-3471.1" y="-4674.1" class="st38" width="1920" height="24"/>
			<rect x="-3471.1" y="-4650.1" class="st38" width="1920" height="24"/>
			<rect x="-3471.1" y="-4626.1" class="st38" width="1920" height="24"/>
			<rect x="-3471.1" y="-4602.1" class="st38" width="1920" height="24"/>
			<rect x="-3471.1" y="-4578.1" class="st38" width="1920" height="24"/>
			<rect x="-3471.1" y="-4554.1" class="st38" width="1920" height="24"/>
			<rect x="-3471.1" y="-4530.1" class="st38" width="1920" height="24"/>
			<rect x="-3471.1" y="-4506.1" class="st38" width="1920" height="24"/>
			<rect x="-3471.1" y="-4482.1" class="st38" width="1920" height="24"/>
			<rect x="-3471.1" y="-4458.1" class="st38" width="1920" height="24"/>
			<rect x="-3471.1" y="-4434.1" class="st38" width="1920" height="24"/>
			<rect x="-3471.1" y="-4410.1" class="st38" width="1920" height="24"/>
			<rect x="-3471.1" y="-4386.1" class="st38" width="1920" height="24"/>
			<rect x="-3471.1" y="-4362.1" class="st38" width="1920" height="24"/>
			<rect x="-3471.1" y="-4338.1" class="st38" width="1920" height="24"/>
			<rect x="-3471.1" y="-4314.1" class="st38" width="1920" height="24"/>
			<rect x="-3471.1" y="-4290.1" class="st38" width="1920" height="24"/>
			<rect x="-3471.1" y="-4266.1" class="st38" width="1920" height="24"/>
			<rect x="-3471.1" y="-4242.1" class="st38" width="1920" height="24"/>
			<rect x="-3471.1" y="-4218.1" class="st38" width="1920" height="24"/>
			<rect x="-3471.1" y="-4194.1" class="st38" width="1920" height="24"/>
			<rect x="-3471.1" y="-4170.1" class="st38" width="1920" height="24"/>
			<rect x="-3471.1" y="-4146.1" class="st38" width="1920" height="24"/>
			<rect x="-3471.1" y="-4122.1" class="st38" width="1920" height="24"/>
			<rect x="-3471.1" y="-4098.1" class="st38" width="1920" height="24"/>
			<rect x="-3471.1" y="-4074.1" class="st38" width="1920" height="24"/>
			<rect x="-3471.1" y="-4050.1" class="st38" width="1920" height="24"/>
			<rect x="-3471.1" y="-4026.1" class="st38" width="1920" height="24"/>
			<rect x="-3471.1" y="-4002.1" class="st38" width="1920" height="24"/>
			<rect x="-3471.1" y="-3978.1" class="st38" width="1920" height="24"/>
			<rect x="-3471.1" y="-3954.1" class="st38" width="1920" height="24"/>
			<rect x="-3471.1" y="-3930.1" class="st38" width="1920" height="24"/>
			<rect x="-3471.1" y="-3906.1" class="st38" width="1920" height="24"/>
			<rect x="-3471.1" y="-3882.1" class="st38" width="1920" height="24"/>
			<rect x="-3471.1" y="-3858.1" class="st38" width="1920" height="24"/>
			<rect x="-3471.1" y="-3834.1" class="st38" width="1920" height="24"/>
			<rect x="-3471.1" y="-3810.1" class="st38" width="1920" height="24"/>
			<rect x="-3471.1" y="-3786.1" class="st38" width="1920" height="24"/>
			<rect x="-3471.1" y="-3762.1" class="st38" width="1920" height="24"/>
			<rect x="-3471.1" y="-3738.1" class="st38" width="1920" height="24"/>
			<rect x="-3471.1" y="-3714.1" class="st38" width="1920" height="24"/>
			<rect x="-3471.1" y="-3690.1" class="st38" width="1920" height="24"/>
			<rect x="-3471.1" y="-3666.1" class="st38" width="1920" height="24"/>
			<rect x="-3471.1" y="-3642.1" class="st38" width="1920" height="24"/>
			<rect x="-3471.1" y="-3618.1" class="st38" width="1920" height="24"/>
			<rect x="-3471.1" y="-3594.1" class="st38" width="1920" height="24"/>
			<rect x="-3471.1" y="-3570.1" class="st38" width="1920" height="24"/>
			<rect x="-3471.1" y="-3546.1" class="st38" width="1920" height="24"/>
			<rect x="-3471.1" y="-3522.1" class="st38" width="1920" height="24"/>
			<rect x="-3471.1" y="-3498.1" class="st38" width="1920" height="24"/>
			<rect x="-3471.1" y="-3474.1" class="st38" width="1920" height="24"/>
			<rect x="-3471.1" y="-3450.1" class="st38" width="1920" height="24"/>
			<rect x="-3471.1" y="-3426.1" class="st38" width="1920" height="24"/>
			<rect x="-3471.1" y="-3402.1" class="st38" width="1920" height="24"/>
			<rect x="-3471.1" y="-3378.1" class="st38" width="1920" height="24"/>
			<rect x="-3471.1" y="-3354.1" class="st38" width="1920" height="24"/>
			<rect x="-3471.1" y="-3330.1" class="st38" width="1920" height="24"/>
			<rect x="-3471.1" y="-3306.1" class="st38" width="1920" height="24"/>
			<rect x="-3471.1" y="-3282.1" class="st38" width="1920" height="24"/>
			<rect x="-3471.1" y="-3258.1" class="st38" width="1920" height="24"/>
			<rect x="-3471.1" y="-3234.1" class="st38" width="1920" height="24"/>
			<rect x="-3471.1" y="-3210.1" class="st38" width="1920" height="24"/>
			<rect x="-3471.1" y="-3186.1" class="st38" width="1920" height="24"/>
			<rect x="-3471.1" y="-3162.1" class="st38" width="1920" height="24"/>
			<rect x="-3471.1" y="-3138.1" class="st38" width="1920" height="24"/>
			<rect x="-3471.1" y="-3114.1" class="st38" width="1920" height="24"/>
			<rect x="-3471.1" y="-3090.1" class="st38" width="1920" height="24"/>
			<rect x="-3471.1" y="-3066.1" class="st38" width="1920" height="24"/>
			<rect x="-3471.1" y="-3042.1" class="st38" width="1920" height="24"/>
			<rect x="-3471.1" y="-3018.1" class="st38" width="1920" height="24"/>
			<rect x="-3471.1" y="-2994.1" class="st38" width="1920" height="24"/>
			<rect x="-3471.1" y="-2970.1" class="st38" width="1920" height="24"/>
			<rect x="-3471.1" y="-2946.1" class="st38" width="1920" height="24"/>
			<rect x="-3471.1" y="-2922.1" class="st38" width="1920" height="24"/>
			<rect x="-3471.1" y="-2898.1" class="st38" width="1920" height="24"/>
			<rect x="-3471.1" y="-2874.1" class="st38" width="1920" height="24"/>
			<rect x="-3471.1" y="-2850.1" class="st38" width="1920" height="24"/>
			<rect x="-3471.1" y="-2826.1" class="st38" width="1920" height="24"/>
			<rect x="-3471.1" y="-2802.1" class="st38" width="1920" height="24"/>
			<rect x="-3471.1" y="-2778.1" class="st38" width="1920" height="24"/>
			<rect x="-3471.1" y="-2754.1" class="st38" width="1920" height="24"/>
			<rect x="-3471.1" y="-2730.1" class="st38" width="1920" height="24"/>
			<rect x="-3471.1" y="-2706.1" class="st38" width="1920" height="24"/>
			<rect x="-3471.1" y="-2682.1" class="st38" width="1920" height="24"/>
			<rect x="-3471.1" y="-2658.1" class="st38" width="1920" height="24"/>
			<rect x="-3471.1" y="-2634.1" class="st38" width="1920" height="24"/>
			<rect x="-3471.1" y="-2610.1" class="st38" width="1920" height="24"/>
			<rect x="-3471.1" y="-2586.1" class="st38" width="1920" height="24"/>
			<rect x="-3471.1" y="-2562.1" class="st38" width="1920" height="24"/>
			<rect x="-3471.1" y="-2538.1" class="st38" width="1920" height="24"/>
			<rect x="-3471.1" y="-2514.1" class="st38" width="1920" height="24"/>
			<rect x="-3471.1" y="-2490.1" class="st38" width="1920" height="24"/>
			<rect x="-3471.1" y="-2466.1" class="st38" width="1920" height="24"/>
			<rect x="-3471.1" y="-2442.1" class="st38" width="1920" height="24"/>
			<rect x="-3471.1" y="-2418.1" class="st38" width="1920" height="24"/>
			<rect x="-3471.1" y="-2394.1" class="st38" width="1920" height="24"/>
			<rect x="-3471.1" y="-2370.1" class="st38" width="1920" height="24"/>
			<rect x="-3471.1" y="-2346.1" class="st38" width="1920" height="24"/>
			<rect x="-3471.1" y="-2322.1" class="st38" width="1920" height="24"/>
			<rect x="-3471.1" y="-2298.1" class="st38" width="1920" height="24"/>
			<rect x="-3471.1" y="-2274.1" class="st38" width="1920" height="24"/>
			<rect x="-3471.1" y="-2250.1" class="st38" width="1920" height="24"/>
			<rect x="-3471.1" y="-2226.1" class="st38" width="1920" height="24"/>
			<rect x="-3471.1" y="-2202.1" class="st38" width="1920" height="24"/>
			<rect x="-3471.1" y="-2178.1" class="st38" width="1920" height="24"/>
			<rect x="-3471.1" y="-2154.1" class="st38" width="1920" height="24"/>
			<rect x="-3471.1" y="-2130.1" class="st38" width="1920" height="24"/>
			<rect x="-3471.1" y="-2106.1" class="st38" width="1920" height="24"/>
			<rect x="-3471.1" y="-2082.1" class="st38" width="1920" height="24"/>
			<rect x="-3471.1" y="-2058.1" class="st38" width="1920" height="24"/>
			<rect x="-3471.1" y="-2034.1" class="st38" width="1920" height="24"/>
			<rect x="-3471.1" y="-2010.1" class="st38" width="1920" height="24"/>
			<rect x="-3471.1" y="-1986.1" class="st38" width="1920" height="24"/>
			<rect x="-3471.1" y="-1962.1" class="st38" width="1920" height="24"/>
			<rect x="-3471.1" y="-1938.1" class="st38" width="1920" height="24"/>
			<rect x="-3471.1" y="-1914.1" class="st38" width="1920" height="24"/>
			<rect x="-3471.1" y="-1890.1" class="st38" width="1920" height="24"/>
			<rect x="-3471.1" y="-1866.1" class="st38" width="1920" height="24"/>
			<rect x="-3471.1" y="-1842.1" class="st38" width="1920" height="24"/>
			<rect x="-3471.1" y="-1818.1" class="st38" width="1920" height="24"/>
			<rect x="-3471.1" y="-1794.1" class="st38" width="1920" height="24"/>
			<rect x="-3471.1" y="-1770.1" class="st38" width="1920" height="24"/>
			<rect x="-3471.1" y="-1746.1" class="st38" width="1920" height="24"/>
			<rect x="-3471.1" y="-1722.1" class="st38" width="1920" height="24"/>
			<rect x="-3471.1" y="-1698.1" class="st38" width="1920" height="24"/>
			<rect x="-3471.1" y="-1674.1" class="st38" width="1920" height="24"/>
			<rect x="-3471.1" y="-1650.1" class="st38" width="1920" height="24"/>
			<rect x="-3471.1" y="-1626.1" class="st38" width="1920" height="24"/>
			<rect x="-3471.1" y="-1602.1" class="st38" width="1920" height="24"/>
			<rect x="-3471.1" y="-1578.1" class="st38" width="1920" height="24"/>
			<rect x="-3471.1" y="-1554.1" class="st38" width="1920" height="24"/>
			<rect x="-3471.1" y="-1530.1" class="st38" width="1920" height="24"/>
			<rect x="-3471.1" y="-1506.1" class="st38" width="1920" height="24"/>
			<rect x="-3471.1" y="-1482.1" class="st38" width="1920" height="24"/>
			<rect x="-3471.1" y="-1458.1" class="st38" width="1920" height="24"/>
			<rect x="-3471.1" y="-1434.1" class="st38" width="1920" height="24"/>
			<rect x="-3471.1" y="-1410.1" class="st38" width="1920" height="24"/>
			<rect x="-3471.1" y="-1386.1" class="st38" width="1920" height="24"/>
			<rect x="-3471.1" y="-1362.1" class="st38" width="1920" height="24"/>
			<rect x="-3471.1" y="-1338.1" class="st38" width="1920" height="24"/>
			<rect x="-3471.1" y="-1314.1" class="st38" width="1920" height="24"/>
			<rect x="-3471.1" y="-1290.1" class="st38" width="1920" height="24"/>
			<rect x="-3471.1" y="-1266.1" class="st38" width="1920" height="24"/>
			<rect x="-3471.1" y="-1242.1" class="st38" width="1920" height="24"/>
			<rect x="-3471.1" y="-1218.1" class="st38" width="1920" height="24"/>
			<rect x="-3471.1" y="-1194.1" class="st38" width="1920" height="24"/>
		</g>
	</g>
</g>
<g id="vEoRqg.tif">
	<rect x="-798.2" y="-644.8" class="st5" width="378.7" height="360.4"/>
	
		<image style="overflow:visible;" width="375" height="411" id="Layer_0_3_" xlink:href="8604E2B66299BBE7.png"  transform="matrix(1 0 0 2.1019 -1291.2225 -803.0614)">
	</image>
</g>
<rect x="-2337.3" y="-941.8" class="st4" width="1280" height="500"/>
<rect x="-2337.3" y="-941.8" class="st5" width="1280" height="500"/>
<path class="st6" d="M-145.3-295.4"/>
<circle class="st0" cx="-647.2" cy="-387.6" r="49.4"/>
<polygon class="st0" points="-678.1,-426.2 -796.4,-349.8 -796.4,-282.2 -718.7,-282.2 -616.1,-349.3 "/>
<circle class="st7" cx="-561.6" cy="-545" r="47.5"/>
<polygon class="st7" points="-531.9,-507.9 -418,-581.5 -418,-646.5 -492.8,-646.5 -591.6,-581.9 "/>
<image style="overflow:visible;" width="1920" height="1244" xlink:href="../../../interactive-design-2/SAAS High-Fid/Moodboards/smartphone.png"  transform="matrix(0.1341 2.959901e-02 -2.959901e-02 0.1341 -832.5086 -490.1855)">
</image>
<g>
	<path class="st8" d="M-700.3-327.4c-0.1,0-0.2,0-0.4,0l-54.6-12.1c-0.4-0.1-0.8-0.4-1.1-0.8c-0.2-0.4-0.3-0.9-0.2-1.3l22.5-101.3
		c0.2-0.8,0.8-1.3,1.6-1.3c0.1,0,0.2,0,0.4,0l54.2,12.5c0.9,0.2,1.5,1.1,1.3,2.1l-22.1,100.9C-698.9-328-699.6-327.4-700.3-327.4z"
		/>
	<path class="st9" d="M-732.5-443.5c0.1,0,0.1,0,0.2,0l54.2,12.5c0.4,0.1,0.7,0.6,0.6,1.1L-699.5-329c-0.1,0.4-0.4,0.7-0.8,0.7
		c-0.1,0-0.1,0-0.2,0l-54.6-12.1c-0.3-0.1-0.4-0.3-0.5-0.4c-0.1-0.2-0.2-0.5-0.1-0.7l22.5-101.3
		C-733.2-443.2-732.8-443.5-732.5-443.5 M-732.5-445.2c-1.2,0-2.2,0.8-2.5,2l-22.5,101.3c-0.3,1.4,0.6,2.8,1.9,3.1l54.6,12.1
		c0.2,0,0.4,0.1,0.5,0.1c1.2,0,2.2-0.8,2.5-2l22.1-100.9c0.3-1.4-0.5-2.8-1.9-3.1l-54.2-12.5C-732.1-445.2-732.3-445.2-732.5-445.2
		L-732.5-445.2z"/>
</g>
<path class="st7" d="M-737.1-400.1l2.6,25.6c0.1,1,1,1.8,2,1.7l34.9-3.6c1-0.1,1.8-1,1.7-2l-2.2-21.9c-0.1-1-1-1.8-2-1.7l-20.7,2.1
	c-1,0.1-1.9-0.6-2-1.7l0,0c-0.1-1-1-1.8-2-1.7l-10.5,1.1C-736.5-402-737.3-401.1-737.1-400.1z"/>
<g>
	<path class="st1" d="M-709.9-429.2l16.9-7.9c0,0,2,3.7,5,3.6l-7.2,10.5c0,0-0.4,3.7-3.5,3.9C-701.9-418.9-709.8-427.3-709.9-429.2z
		"/>
	<polygon class="st10" points="-696.4,-420.2 -695.3,-423 -683.7,-441.1 -683.3,-433.2 	"/>
</g>
<g>
	<path class="st11" d="M-716.7-408.2c0,0,10,5.4,13.5,1.7l-13.9,21.9c0,0-4.2,1.3-5.1-0.1L-716.7-408.2z"/>
	<path class="st1" d="M-711.9-406.2l5.1-11.5c0,0,6,10.1,3.7,11.2S-705.9-404.3-711.9-406.2z"/>
</g>
<g>
	<path class="st11" d="M-671.4-454.7c0,0,4.7,20.6,10.6,22.5l13.6-1.8l-3.6-21.9c0,0-12.3,5.1-15.3,3.9S-671.4-454.7-671.4-454.7z"
		/>
	<path class="st1" d="M-671.4-454.7c0,0-0.1-2.4,2.1-3.5l5.6,6.4C-663.7-451.8-667-450.3-671.4-454.7z"/>
</g>
<path class="st12" d="M-730.2-390.3c0,0,0.8,14.8-4.3,15.8c0,0,0.2,1.7,2,1.7s37.9-4,37.9-4s1.3,0,1.3-2.6s-1.7-19.1-1.7-19.1
	l-35.7,3.7L-730.2-390.3z"/>
<g>
	<path class="st11" d="M-629.2-467.8l-1.9,11.1c0,0,4-8.5,6.5-8.5L-629.2-467.8z"/>
	<path class="st1" d="M-609-460.1l-8.5,15.9c-18.6,2.1-13.6-11.6-13.6-12.6c0-1,3.5-6,3.5-6s0.2,4.5,4.6,5.3
		C-618.7-456.7-609-460.1-609-460.1z"/>
</g>
<g>
	<path class="st10" d="M-602.2-468.9l-15.3-4.7c0,0,6.7-9.6,5.5-13.5l11.2,14.8C-600.8-472.3-599.7-470.3-602.2-468.9z"/>
	<polygon class="st1" points="-615.4,-470.1 -606.5,-470.2 -616.1,-473.2 	"/>
	<path class="st1" d="M-616.5-475.1c0,0-3.4-14.2-4.5-15.1c0,0,11.5-0.1,9.4,6.4C-613.8-476.5-615.1-476.5-616.5-475.1z"/>
</g>
<g>
	<path class="st11" d="M-1133.4-774.8l0.1,23.5c0,0,5.2-19,10.2-19.9L-1133.4-774.8z"/>
	<path class="st1" d="M-1089-766.3l-11.7,36c-37.6,11.1-32.3-19-32.6-20.9s5-13.7,5-13.7s2.1,9.3,11.3,9.2
		C-1107.7-755.9-1089-766.3-1089-766.3z"/>
</g>
<g id="vEoRqg.tif_1_">
	<rect x="-317.9" y="-650.2" class="st5" width="378.7" height="360.4"/>
</g>
<rect x="-1317.1" y="-259.3" class="st1" width="765.1" height="203.8"/>
<path class="st9" d="M-835.1,51.1c0,0-1.7-34.5,28.2-34.5c33.7,0,30.8,34.5,30.8,34.5l-10.4-0.2c0,0-1.5-26.3-19.1-25.4
	c-18.4,1-18.9,25.6-18.9,25.6H-835.1z"/>
<rect x="-339.9" y="-650.2" class="st7" width="729.8" height="370.7"/>
<g>
	<circle class="st14" cx="164.3" cy="-443.8" r="66.3"/>
	<polygon class="st14" points="112.8,-410.5 212.4,-249.9 303,-248.2 351.8,-277.7 217.5,-491.8 	"/>
</g>
<g>
	<circle class="st15" cx="-100" cy="-450.3" r="66.3"/>
	<polygon class="st15" points="-47.3,-490.3 -145.6,-651.7 -236.2,-654.1 -295.6,-641.7 -152.6,-409.9 	"/>
</g>
<image style="overflow:visible;" width="5032" height="3355" xlink:href="../../../interactive-design-2/SAAS High-Fid/Moodboards/Man with phone.png"  transform="matrix(8.321908e-02 -7.543009e-04 9.743549e-04 0.1075 -508.8279 -649.2532)">
</image>
<path class="st15" d="M254.1-514.2l-2.4-1.7c-1-0.7-1.8-1.5-2.5-2.5l-9.2-9.7l-4.5-5.1c-1.4-1.6-2.6-3.2-3.7-5l-1.3-2
	c-1.5-2-2.2-2.6-4.3-3.9l-2.3-1.4l-71.6-122.1l97.1-3.3l12.5,82.8L254.1-514.2z"/>
<polygon class="st39" points="-332.1,-197.7 -352.3,-177.6 -379.2,-157.4 -389.1,-171.4 -382.6,-211.7 -346.6,-211.7 "/>
<path class="st40" d="M-166.3-459.4l-9.2-5.5l-1.2-2.4c0,0-0.5-0.5-4-4c-3.5-3.5-12.5-18.5-12.5-18.5l-3.5-6.2l-1.6-1.6l0,0
	c0-1.1-0.5-2.2-1.3-2.9c-2.4-2.1-7.4-6.3-10.8-8.2c-4.5-2.5-130.6-219.5-130.6-219.5l146.7,36.3l72,168.8L-166.3-459.4z"/>
<rect x="-1041.7" y="-5096.7" class="st41" width="2085.1" height="814.5"/>
<g id="IjoVtQ.tif_1_">
	
		<image style="overflow:visible;" width="454" height="346" id="Layer_0_1_" xlink:href="5EB4C45C40382847.png"  transform="matrix(1.629 0 0 1.629 -130.1071 -3963.6062)">
	</image>
</g>
<polygon class="st5" points="1639.6,-2643.1 -1110,-3121.8 -1110,-5195.9 1674.4,-5357.3 "/>
<path class="st6" d="M376.7-4335.8"/>
<circle class="st0" cx="385.3" cy="-3834.5" r="189.4"/>
<polygon class="st0" points="266.9,-3982.3 -186.5,-3689.3 -186.5,-3430.3 111.3,-3430.3 504.6,-3687.5 "/>
<image style="overflow:visible;" width="1920" height="1244" xlink:href="../../../interactive-design-2/SAAS High-Fid/Moodboards/smartphone.png"  transform="matrix(0.5139 0.1134 -0.1134 0.5139 -324.8145 -4227.5039)">
</image>
<g>
	<path class="st8" d="M181.8-3603.8c-0.4,0-0.9-0.1-1.3-0.1l-209.3-46.4c-1.7-0.4-3.1-1.4-4-2.9c-0.9-1.5-1.2-3.3-0.9-5.1
		l86.1-388.3c0.7-3,3.2-5.2,6.2-5.2c0.5,0,0.9,0.1,1.4,0.2l207.7,47.9c3.5,0.8,5.6,4.4,4.8,7.9L188-3609
		C187.3-3606,184.7-3603.8,181.8-3603.8z"/>
	<path class="st9" d="M58.6-4048.5c0.2,0,0.4,0,0.7,0.1l207.7,47.9c1.7,0.4,2.8,2.2,2.4,4.1l-84.6,386.8c-0.3,1.5-1.6,2.6-3,2.6
		c-0.2,0-0.4,0-0.6-0.1l-209.3-46.4c-1.1-0.2-1.7-1-2-1.4c-0.5-0.8-0.6-1.7-0.4-2.6l86.1-388.3C55.9-4047.4,57.2-4048.5,58.6-4048.5
		 M58.6-4055c-4.4,0-8.4,3.1-9.4,7.7L-36.9-3659c-1.2,5.4,2.1,10.7,7.4,11.9l209.3,46.4c0.7,0.2,1.4,0.2,2.1,0.2
		c4.4,0,8.4-3.1,9.4-7.7l84.6-386.8c1.2-5.3-2.1-10.6-7.3-11.8l-207.7-47.9C60-4055,59.3-4055,58.6-4055L58.6-4055z"/>
</g>
<path class="st7" d="M40.6-3882.2l10,98.2c0.4,3.9,3.9,6.7,7.8,6.4l133.7-13.6c3.9-0.4,6.7-3.9,6.4-7.8l-8.6-84.1
	c-0.4-3.9-3.9-6.7-7.8-6.4l-79.5,8.1c-3.9,0.4-7.4-2.4-7.8-6.4l0,0c-0.4-3.9-3.9-6.7-7.8-6.4L47-3890
	C43.1-3889.6,40.2-3886.1,40.6-3882.2z"/>
<path class="st1" d="M145-3993.6l64.6-30.1c0,0,7.6,14.2,19.1,13.7l-27.6,40.2c0,0-1.6,14.3-13.5,14.9
	C175.8-3954.4,145.4-3986.3,145-3993.6z"/>
<polygon class="st10" points="196.7,-3959.3 201.2,-3969.9 245.5,-4039.3 246.9,-4009.1 "/>
<path class="st11" d="M119-3913.3c0,0,38.2,20.5,51.6,6.7l-53.2,84c0,0-16.2,4.9-19.5-0.2L119-3913.3z"/>
<path class="st1" d="M137.2-3905.6l19.4-44c0,0,22.9,38.6,14,43C161.8-3902.2,160.3-3898.5,137.2-3905.6z"/>
<path class="st11" d="M292.5-4091.5c0,0,17.9,79,40.7,86.3l52.1-6.9l-13.8-83.9c0,0-47.2,19.5-58.6,15.1
	C301.4-4085.4,292.5-4091.5,292.5-4091.5z"/>
<path class="st1" d="M292.5-4091.5c0,0-0.4-9.4,8.1-13.4l21.4,24.4C322.1-4080.6,309.4-4074.6,292.5-4091.5z"/>
<path class="st12" d="M67.3-3844.6c0,0,3.1,56.7-16.6,60.7c0,0,0.6,6.4,7.8,6.4s145.1-15.4,145.1-15.4s4.9,0,4.9-9.8
	c0-9.8-6.5-73.3-6.5-73.3L65.1-3862L67.3-3844.6z"/>
<path class="st11" d="M454.4-4141.7l-7.3,42.4c0,0,15.5-32.6,24.8-32.6L454.4-4141.7z"/>
<path class="st1" d="M531.8-4112.2l-32.6,61.1c-71.3,7.9-52.1-44.6-52.1-48.2c0-3.7,13.5-23.1,13.5-23.1s0.8,17.4,17.5,20.2
	S531.8-4112.2,531.8-4112.2z"/>
<path class="st10" d="M558-4145.8l-58.8-18.1c0,0,25.6-36.7,21.1-51.7l43.1,56.5C563.3-4159.1,567.3-4151.3,558-4145.8z"/>
<polygon class="st1" points="507.2,-4150.4 541.4,-4150.9 504.5,-4162.3 "/>
<path class="st1" d="M502.9-4169.5c0,0-13.1-54.3-17.2-58c0,0,44-0.2,36.2,24.7C513.3-4175.2,508.5-4175.2,502.9-4169.5z"/>
<text transform="matrix(1 0 0 1 0 110.9316)" class="st1 st42 st43"></text>
</svg>
