<?xml version="1.0" encoding="utf-8"?>
<!-- Generator: Adobe Illustrator 22.1.0, SVG Export Plug-In . SVG Version: 6.00 Build 0)  -->
<svg version="1.1" id="Layer_1" xmlns="http://www.w3.org/2000/svg" xmlns:xlink="http://www.w3.org/1999/xlink" x="0px" y="0px"
	 viewBox="0 0 637.6 615.1" style="enable-background:new 0 0 637.6 615.1;" xml:space="preserve">
<style type="text/css">
	.st0{fill:#DB5526;}
	.st1{fill:#FFFFFF;}
	.st2{fill:none;stroke:#808285;stroke-width:3.9862;stroke-miterlimit:10;}
	.st3{fill:none;stroke:#808285;stroke-width:3.881;stroke-miterlimit:10;}
	.st4{fill:none;stroke:#DDDDDD;stroke-miterlimit:10;}
	.st5{fill:#58595B;}
	.st6{fill:none;}
	.st7{fill:#33C0CC;}
	.st8{fill:#355DA5;}
	.st9{fill:#E2E3E1;}
	.st10{fill:#BEBEC0;}
	.st11{fill:#DDDDDD;}
	.st12{fill:#86D1D1;}
	.st13{fill:#C6C7C9;}
	.st14{fill:#DD7454;}
	.st15{fill:#FEEC58;}
	.st16{fill:#FBD736;}
	.st17{fill:#231F20;}
	.st18{fill:#DD7454;stroke:#FFFFFF;stroke-width:3;stroke-miterlimit:10;}
	.st19{fill:none;stroke:#FFFFFF;stroke-width:3.5191;stroke-miterlimit:10;}
	.st20{fill:none;stroke:#FFFFFF;stroke-width:1.7595;stroke-miterlimit:10;}
	.st21{fill:none;stroke:#FFFFFF;stroke-width:3.4938;stroke-miterlimit:10;}
	.st22{fill:none;stroke:#FFFFFF;stroke-width:2.9115;stroke-miterlimit:10;}
	.st23{fill:none;stroke:#FFFFFF;stroke-width:3.3705;stroke-miterlimit:10;}
	.st24{fill:#DC5726;}
	.st25{fill:#2DC0CD;}
	.st26{fill:#85D2DE;}
	.st27{fill:#D0E0E2;}
	.st28{fill:#C0B7B6;}
	.st29{fill:#B6442B;}
	.st30{fill:#DFDEDE;}
	.st31{fill:#309496;}
	.st32{fill:#E6E7E8;}
	.st33{fill:#8F8D8F;}
	.st34{fill:#BCBEC0;}
	.st35{fill:#787678;}
	.st36{clip-path:url(#SVGID_2_);}
	.st37{clip-path:url(#SVGID_4_);fill:none;stroke:#2AACE2;stroke-width:0.5;stroke-miterlimit:10;}
	.st38{fill:#F1F5F9;}
	.st39{fill:#DD5526;}
	.st40{fill:none;stroke:#DDDDDD;stroke-width:1.629;stroke-miterlimit:10;}
	.st41{fill:#CD5127;}
</style>
<circle class="st0" cx="3920" cy="-1205.6" r="79.9"/>
<path class="st1" d="M3873.1-1242.1v60.6c0,2.4,2,4.4,4.4,4.4h82.5c2.4,0,4.4-2,4.4-4.4l0-51.9c0-2.4-2-4.4-4.4-4.4h-49
	c-2.4,0-4.4-2-4.4-4.4l0,0c0-2.4-2-4.4-4.4-4.4h-24.8C3875.1-1246.5,3873.1-1244.6,3873.1-1242.1z"/>
<circle class="st0" cx="4124.5" cy="-1202.3" r="79.9"/>
<path class="st1" d="M4150.6-1152.6h-52.2c-5.8,0-10.6-4.7-10.6-10.6v-72.8c0-5.8,4.7-10.6,10.6-10.6h52.2c5.8,0,10.6,4.7,10.6,10.6
	v72.8C4161.1-1157.3,4156.4-1152.6,4150.6-1152.6z"/>
<circle class="st0" cx="3922" cy="-1023" r="78.3"/>
<path class="st2" d="M4170.9-719.3v-99.2c0,0,81-13.1,83.4,54.4c2.5,70.5-84.5,52.8-84.5,52.8"/>
<path class="st3" d="M4179.7-719.7v-89.1c0,0,60.7-8.9,62.2,45.5c0.6,20.2-9.9,31.1-20.5,37c-9.1,5-19.6,6.8-29.9,5.6l-2.5-0.3v-78"
	/>
<rect x="2413.5" y="-1759.8" class="st4" width="1280" height="500"/>
<g id="IjoVtQ.tif">
	
		<image style="overflow:visible;" width="454" height="346" id="Layer_0_4_" xlink:href="8604E2B66299BBE4.png"  transform="matrix(1 0 0 1 2973.0889 -1178.5323)">
	</image>
</g>
<polygon class="st5" points="3721.6,-1182.3 2379.1,-1297.7 2379.1,-1797.7 3738.6,-1836.6 "/>
<path class="st6" d="M3284.2-1292.7"/>
<circle class="st0" cx="2725.5" cy="-1508" r="116.2"/>
<polygon class="st0" points="2652.8,-1598.7 2374.5,-1418.8 2374.5,-1259.8 2557.3,-1259.8 2798.7,-1417.7 "/>
<circle class="st7" cx="3342.4" cy="-1511.7" r="116.2"/>
<polygon class="st7" points="3415.1,-1421 3693.5,-1600.8 3693.5,-1759.8 3510.7,-1759.8 3269.2,-1602 "/>
<g id="rTydHl.tif">
	
		<image style="overflow:visible;" width="88" height="88" id="Layer_0_5_" xlink:href="8604E2B66299BBE5.png"  transform="matrix(1 0 0 1 3796.1506 -1657.3324)">
	</image>
</g>
<g id="j1Rxuq.tif">
	
		<image style="overflow:visible;" width="88" height="88" id="Layer_0_6_" xlink:href="8604E2B66299BBE3.png"  transform="matrix(1 0 0 1 2706.1023 -993.9987)">
	</image>
</g>
<image style="overflow:visible;" width="1920" height="1244" xlink:href="../../../interactive-design-2/SAAS High-Fid/Moodboards/smartphone.png"  transform="matrix(0.3155 6.963499e-02 -6.963499e-02 0.3155 2289.5405 -1749.2181)">
</image>
<g>
	<path class="st8" d="M2600.5-1366.3c-0.3,0-0.6,0-0.8-0.1l-128.5-28.5c-1-0.2-1.9-0.9-2.5-1.8c-0.6-0.9-0.8-2-0.5-3.1l52.9-238.4
		c0.4-1.9,2-3.2,3.8-3.2c0.3,0,0.6,0,0.9,0.1l127.5,29.4c2.1,0.5,3.5,2.7,3,4.9l-51.9,237.4
		C2603.9-1367.7,2602.3-1366.3,2600.5-1366.3z"/>
	<path class="st9" d="M2524.9-1639.3c0.1,0,0.3,0,0.4,0l127.5,29.4c1.1,0.2,1.7,1.4,1.5,2.5l-51.9,237.4c-0.2,0.9-1,1.6-1.9,1.6
		c-0.1,0-0.3,0-0.4,0l-128.5-28.5c-0.7-0.1-1-0.6-1.2-0.9c-0.3-0.5-0.4-1.1-0.3-1.6l52.9-238.4
		C2523.3-1638.7,2524-1639.3,2524.9-1639.3 M2524.9-1643.3c-2.7,0-5.2,1.9-5.8,4.7l-52.9,238.4c-0.7,3.3,1.3,6.6,4.5,7.3l128.5,28.5
		c0.4,0.1,0.8,0.1,1.3,0.1c2.7,0,5.2-1.9,5.8-4.8l51.9-237.4c0.7-3.3-1.3-6.5-4.5-7.3l-127.5-29.4
		C2525.8-1643.3,2525.4-1643.3,2524.9-1643.3L2524.9-1643.3z"/>
</g>
<path class="st7" d="M2513.9-1537.2l6.1,60.3c0.2,2.4,2.4,4.1,4.8,3.9l82.1-8.4c2.4-0.2,4.1-2.4,3.9-4.8l-5.3-51.6
	c-0.2-2.4-2.4-4.1-4.8-3.9l-48.8,5c-2.4,0.2-4.5-1.5-4.8-3.9l0,0c-0.2-2.4-2.4-4.1-4.8-3.9l-24.6,2.5
	C2515.4-1541.8,2513.6-1539.6,2513.9-1537.2z"/>
<g>
	<path class="st1" d="M2578-1605.6l39.7-18.5c0,0,4.7,8.7,11.7,8.4l-16.9,24.7c0,0-1,8.8-8.3,9.1
		C2596.9-1581.6,2578.2-1601.2,2578-1605.6z"/>
	<polygon class="st10" points="2609.7,-1584.6 2612.4,-1591.1 2639.7,-1633.7 2640.5,-1615.1 	"/>
</g>
<g>
	<path class="st11" d="M2562-1556.3c0,0,23.5,12.6,31.7,4.1l-32.6,51.6c0,0-10,3-11.9-0.1L2562-1556.3z"/>
	<path class="st1" d="M2573.2-1551.6l11.9-27c0,0,14,23.7,8.6,26.4C2588.2-1549.5,2587.3-1547.3,2573.2-1551.6z"/>
</g>
<g>
	<path class="st11" d="M2668.5-1665.7c0,0,11,48.5,25,53l32-4.2l-8.5-51.5c0,0-29,12-36,9.2S2668.5-1665.7,2668.5-1665.7z"/>
	<path class="st1" d="M2668.5-1665.7c0,0-0.2-5.8,5-8.2l13.2,14.9C2686.6-1659,2678.9-1655.3,2668.5-1665.7z"/>
</g>
<path class="st12" d="M2530.3-1514.2c0,0,1.9,34.8-10.2,37.2c0,0,0.4,3.9,4.8,3.9c4.4,0,89.1-9.5,89.1-9.5s3,0,3-6s-4-45-4-45
	l-84,8.7L2530.3-1514.2z"/>
<g>
	<path class="st11" d="M2767.9-1696.5l-4.5,26c0,0,9.5-20,15.2-20L2767.9-1696.5z"/>
	<path class="st1" d="M2815.4-1678.4l-20,37.5c-43.8,4.9-32-27.4-32-29.6s8.3-14.2,8.3-14.2s0.5,10.7,10.7,12.4
		S2815.4-1678.4,2815.4-1678.4z"/>
</g>
<g>
	<path class="st10" d="M2831.5-1699l-36.1-11.1c0,0,15.7-22.5,12.9-31.7l26.4,34.7C2834.8-1707.2,2837.2-1702.4,2831.5-1699z"/>
	<polygon class="st1" points="2800.3,-1701.9 2821.3,-1702.2 2798.6,-1709.2 	"/>
	<path class="st1" d="M2797.7-1713.6c0,0-8-33.3-10.5-35.6c0,0,27-0.1,22.2,15.1C2804-1717.1,2801.1-1717.1,2797.7-1713.6z"/>
</g>
<g>
	<path class="st1" d="M3445.3-1400.5l36.5,35.7c0,0-7.6,8.7-4.3,16.3l-33.9-8.3c0,0-10,2.5-13.4-5.3
		C3426.8-1370,3440.5-1398.5,3445.3-1400.5z"/>
	<polygon class="st10" points="3435.3,-1357.3 3443.6,-1356.9 3501.3,-1344.7 3481.4,-1336.2 	"/>
</g>
<g>
	<path class="st11" d="M3617.4-1592.8l0.1,23.5c0,0,5.2-19,10.2-19.9L3617.4-1592.8z"/>
	<path class="st1" d="M3661.8-1584.3l-11.7,36c-37.6,11.1-32.3-19-32.6-20.9s5-13.7,5-13.7s2.1,9.3,11.3,9.2
		S3661.8-1584.3,3661.8-1584.3z"/>
</g>
<g>
	<path class="st10" d="M3614.5-1399l-37.5-4.6c0,0,11.5-24.9,7.2-33.5l32.1,29.5C3616.4-1407.6,3619.6-1403.4,3614.5-1399z"/>
	<polygon class="st1" points="3583.4,-1396.3 3604,-1400.3 3580.5,-1403.2 	"/>
	<path class="st1" d="M3578.7-1407.4c0,0-13.7-31.4-16.6-33.2c0,0,26.6-4.9,24.5,11C3584.4-1412,3581.5-1411.5,3578.7-1407.4z"/>
</g>
<g>
	<path class="st1" d="M3591.9-1499.2c0,0-5.2,10.4,0.4,19.6l6.6-6.5c0,0,33,7.8,51.5,16.7c18.5,8.9,24.3,11.7,24.3,11.7
		s-24.8-31.6-26.2-41.3C3648.6-1499,3606.4-1490,3591.9-1499.2z"/>
	<path class="st13" d="M3595.3-1479.2l78.2,20.5c0,0-53.3-26.8-74.5-27.3c0,0-5.3,3.7-6.6,6.5L3595.3-1479.2z"/>
</g>
<g>
	<path class="st11" d="M3467.7-1431.7l0.1,26.4c0,0,5.8-21.4,11.5-22.4L3467.7-1431.7z"/>
	<path class="st1" d="M3517.6-1422.2l-13.1,40.5c-42.2,12.5-36.3-21.3-36.7-23.5c-0.4-2.2,5.7-15.4,5.7-15.4s2.4,10.4,12.7,10.3
		C3496.6-1410.4,3517.6-1422.2,3517.6-1422.2z"/>
</g>
<polygon class="st7" points="2358.3,-1152.6 851.6,-1252.5 802.5,-1836.6 2234.4,-1806.6 "/>
<g>
	<circle class="st14" cx="1654.8" cy="-1555.6" r="116.2"/>
	<polygon class="st14" points="1562.8,-1484.6 1737.4,-1203 1896.3,-1200 1982,-1251.7 1746.4,-1627.1 	"/>
</g>
<g>
	<circle class="st0" cx="1402.2" cy="-1416" r="116.2"/>
	<polygon class="st0" points="1494.8,-1486.3 1322.4,-1769.2 1163.4,-1773.4 1059.2,-1751.8 1310.1,-1345.1 	"/>
</g>
<rect x="1358.2" y="-1209" class="st1" width="765.1" height="203.8"/>
<image style="overflow:visible;" width="5032" height="3355" xlink:href="../../../interactive-design-2/SAAS High-Fid/Moodboards/Man with phone.png"  transform="matrix(0.1493 0 0 0.1497 648.305 -1763.343)">
</image>
<path class="st15" d="M1326.5-1586.8H1270c-6.1,0-11.1-5-11.1-11.1v-47.4c0-6.1,5-11.1,11.1-11.1h56.5c6.1,0,11.1,5,11.1,11.1v47.4
	C1337.5-1591.8,1332.5-1586.8,1326.5-1586.8z"/>
<path class="st9" d="M1269.1-1656.4c0,0-1.7-34.5,28.2-34.5c33.7,0,30.8,34.5,30.8,34.5l-10.4-0.2c0,0-1.5-26.3-19.1-25.4
	c-18.4,1-18.9,25.6-18.9,25.6H1269.1z"/>
<path class="st16" d="M1329-1586.8h-29.7c-4.7,0-8.5-3.8-8.5-8.5v-52.5c0-4.7,3.8-8.5,8.5-8.5h29.7c4.7,0,8.5,3.8,8.5,8.5v52.5
	C1337.5-1590.6,1333.7-1586.8,1329-1586.8z"/>
<path class="st17" d="M1296.5-1639.9c-0.2,0-0.3,0-0.5,0c-1.6,0.3-9.6,2.1-8.2,11.7c0,0,0.4,2.5,2.2,4c0.8,0.7,1.1,1.7,0.9,2.7
	l-3.2,13.4c-0.1,0.2-0.1,0.4-0.1,0.7v1.4c0,1.5,1.2,2.8,2.8,2.8h12.8c1.5,0,2.8-1.2,2.8-2.8v-1.7c0-0.3,0-0.5-0.1-0.8l-3.7-12.6
	c-0.3-1,0-2,0.7-2.7c1.4-1.4,3.4-4.1,3.1-7.8C1305.5-1637,1300.7-1639.8,1296.5-1639.9z"/>
<g>
	<circle class="st1" cx="1296.8" cy="-1552.5" r="4.8"/>
	<circle class="st1" cx="1296.8" cy="-1531.9" r="4.8"/>
	<circle class="st1" cx="1296.8" cy="-1511.3" r="4.8"/>
	<circle class="st1" cx="1296.8" cy="-1573.1" r="4.8"/>
	<circle class="st1" cx="1296.8" cy="-1491.2" r="4.8"/>
</g>
<polygon class="st0" points="3085.6,-1993.5 1631.5,-2021.8 1659.7,-2626.4 3053.5,-2649.8 "/>
<g>
	<circle class="st14" cx="2337.1" cy="-2269.6" r="116.2"/>
	<polygon class="st14" points="2266,-2361.5 1693.4,-2005.1 1982,-2027.4 2033.8,-1941.8 2408.8,-2178.1 	"/>
</g>
<g>
	<circle class="st7" cx="2596.4" cy="-2427.7" r="116.2"/>
	<polygon class="st7" points="2669.8,-2337.5 3019.1,-2566.7 2945.7,-2678.2 2891.9,-2762.5 2522.6,-2517.4 	"/>
</g>
<image style="overflow:visible;" width="1572" height="1176" xlink:href="../../../interactive-design-2/SAAS High-Fid/Moodboards/Phone.png"  transform="matrix(-0.343 0.1429 0.1429 0.343 2885.3765 -2621.6482)">
</image>
<polygon class="st18" points="2521.6,-2232.2 2702.9,-2144.8 2897.6,-2454.8 2724.3,-2496.8 "/>
<g>
	<circle class="st8" cx="2588.1" cy="-2488.3" r="50.3"/>
</g>
<path class="st19" d="M2578.7-2517.9l25.8,4.2c4.9,0.8,8.3,5.5,7.4,10.4l-6.9,39.4c-0.9,5.1-5.8,8.4-10.8,7.5l-24.4-4.6
	c-4.5-0.8-7.4-5.1-6.5-9.6l7.9-42C2571.8-2516.1,2575.2-2518.5,2578.7-2517.9z"/>
<line class="st20" x1="2577.6" y1="-2504.1" x2="2603.6" y2="-2500.1"/>
<line class="st20" x1="2576" y1="-2496.2" x2="2601.9" y2="-2492.2"/>
<line class="st20" x1="2574.6" y1="-2489.1" x2="2600.5" y2="-2485.2"/>
<line class="st20" x1="2573.1" y1="-2481.4" x2="2599" y2="-2477.5"/>
<line class="st20" x1="2571.5" y1="-2474.2" x2="2597.4" y2="-2470.2"/>
<g>
	<circle class="st8" cx="2684.7" cy="-2448.3" r="42.6"/>
</g>
<path class="st1" d="M2664.5-2452.2c-0.6-7.5,5-14.3,12.5-14.9c2.6-0.2,5.5,0,8.5,0.7c10.5,2.7,11.6,12.7,11.6,12.7
	c4.2,0,8.5,1.1,10.2,2.8c1.8,1.8,1.9,6,1.9,6c5.7,0,6.5,0,8.3,3.5c1.8,3.5-2.8,8.1-2.8,8.1l-53.5,1.1c0,0-8.1,1.1-8.1-10.1
	C2653.1-2453.3,2664.5-2452.2,2664.5-2452.2L2664.5-2452.2z"/>
<g>
	<circle class="st8" cx="2839.2" cy="-2426.2" r="43.6"/>
</g>
<path class="st21" d="M2814-2444.8l-6,26.6c-0.8,3.4,1.4,6.8,4.8,7.5l43.7,9.9c3.4,0.8,6.8-1.4,7.5-4.8l6-26.6
	c0.8-3.4-1.4-6.8-4.8-7.5l-43.7-9.9c-1.7-0.4-3.4,0-4.8,0.8C2815.5-2447.9,2814.4-2446.5,2814-2444.8z"/>
<path class="st22" d="M2837.9-2420.2l-17.6-27.8c-0.5-0.8,0.2-1.8,1.1-1.6l43.6,9.9c1.3,0.3,1.6,2,0.4,2.7L2837.9-2420.2z"/>
<polyline class="st23" points="2812.8,-2410.7 2831.7,-2427.9 2837.6,-2419.2 2847,-2424.4 2856.4,-2400.8 "/>
<g>
	<circle class="st8" cx="2856.2" cy="-2294.1" r="70.5"/>
</g>
<path class="st1" d="M2812.5-2320.6l-6.1,49c-0.2,2,1.2,3.8,3.1,4l85.5,10.6c2,0.2,3.8-1.2,4-3.1l6.1-48.8c0.2-2-1.2-3.8-3.1-4
	l-37.5-4.7c-2-0.2-3.4-2-3.1-4l0.1-0.5c0.2-2-1.2-3.8-3.1-4l-27.9-3.5c-2-0.2-3.8,1.2-4,3.1l0,0c-0.2,1.9-1.9,3.3-3.8,3.1l-6.2-0.4
	C2814.4-2323.9,2812.7-2322.5,2812.5-2320.6z"/>
<g>
	<circle class="st8" cx="2839.2" cy="-2293.5" r="18.9"/>
</g>
<circle class="st1" cx="2839.2" cy="-2293.5" r="11.4"/>
<g>
	<path class="st8" d="M2893.6-2298.3l-11.8-1.5c-2.1-0.3-3.5-2.1-3.3-4.2l0,0c0.3-2.1,2.1-3.5,4.2-3.3l11.8,1.5
		c2.1,0.3,3.5,2.1,3.3,4.2l0,0C2897.5-2299.5,2895.6-2298,2893.6-2298.3z"/>
</g>
<rect x="5138.3" y="-1675.8" class="st5" width="907.3" height="183.6"/>
<path class="st7" d="M2642-2309.1l38.9-54c2.1-2.8,5.8-3.8,9-2.3l31.9,15.1c3.9,1.9,5.4,6.7,3.1,10.4l0,0c-2.3,3.7-0.9,8.6,3.1,10.4
	l47.4,22.2c4,1.9,5.4,6.9,3,10.6l-34.6,51.5c-2.2,3.3-6.6,4.2-9.9,2.1l-89.8-55.8C2640.5-2300.9,2639.5-2305.7,2642-2309.1z"/>
<path class="st12" d="M2640.9-2303l-15.3-63.1l95,50.3l23.2,70.8c0,0-3.4,6.1-9.9,2.1c-6.5-4-89.8-55.8-89.8-55.8L2640.9-2303z"/>
<g>
	<circle class="st1" cx="2614.6" cy="-2426.2" r="2.7"/>
	<circle class="st1" cx="2619.3" cy="-2415.5" r="2.7"/>
	<circle class="st1" cx="2624.1" cy="-2404.9" r="2.7"/>
	<circle class="st1" cx="2609.9" cy="-2436.8" r="2.7"/>
	<circle class="st1" cx="2628.7" cy="-2394.5" r="2.7"/>
</g>
<g>
	<circle class="st1" cx="2767.8" cy="-2301.4" r="2.7"/>
	<circle class="st1" cx="2756.2" cy="-2302.2" r="2.7"/>
	<circle class="st1" cx="2744.6" cy="-2303" r="2.7"/>
	<circle class="st1" cx="2779.4" cy="-2300.6" r="2.7"/>
	<circle class="st1" cx="2733.2" cy="-2303.7" r="2.7"/>
</g>
<g>
	<g>
		<circle class="st1" cx="2743.4" cy="-2347.7" r="2.7"/>
		<circle class="st1" cx="2734.4" cy="-2340.4" r="2.7"/>
		<circle class="st1" cx="2725.4" cy="-2333" r="2.7"/>
		<circle class="st1" cx="2752.4" cy="-2355.1" r="2.7"/>
		<circle class="st1" cx="2716.6" cy="-2325.8" r="2.7"/>
	</g>
	<g>
		<circle class="st1" cx="2786.7" cy="-2386.3" r="2.7"/>
		<circle class="st1" cx="2778.1" cy="-2378.5" r="2.7"/>
		<circle class="st1" cx="2769.4" cy="-2370.7" r="2.7"/>
		<circle class="st1" cx="2795.4" cy="-2394.1" r="2.7"/>
		<circle class="st1" cx="2760.9" cy="-2363.1" r="2.7"/>
	</g>
</g>
<g>
	<g>
		<circle class="st1" cx="2687.6" cy="-2375.4" r="2.7"/>
		<circle class="st1" cx="2688.5" cy="-2363.7" r="2.7"/>
		<circle class="st1" cx="2689.3" cy="-2352.1" r="2.7"/>
		<circle class="st1" cx="2686.8" cy="-2387" r="2.7"/>
		<circle class="st1" cx="2690.1" cy="-2340.8" r="2.7"/>
	</g>
	<g>
		<circle class="st1" cx="2679.8" cy="-2444.6" r="2.7"/>
		<circle class="st1" cx="2685.2" cy="-2398.6" r="2.7"/>
	</g>
</g>
<text transform="matrix(1 0 0 1 3879.1035 -970.8057)" class="st1" style="font-family:'Roboto-Black'; font-size:145.6408px;">D</text>
<g id="pLhPJw.tif">
	
		<image style="overflow:visible;" width="276" height="457" id="Layer_0_8_" xlink:href="8604E2B66299BBEC.png"  transform="matrix(1 0 0 1 4262.5854 -1051.8379)">
	</image>
</g>
<g id="QpYm1F.tif">
	
		<image style="overflow:visible;" width="276" height="457" id="Layer_0_9_" xlink:href="8604E2B66299BBE6.png"  transform="matrix(1 0 0 1 -796.9644 -3048.2188)">
	</image>
</g>
<circle class="st7" cx="2051.1" cy="-921.4" r="84.2"/>
<g>
	<path class="st10" d="M-736.3-2470.8l-36.1-11.1c0,0,15.7-22.5,12.9-31.7l26.4,34.7C-733-2479-730.5-2474.2-736.3-2470.8z"/>
	<polygon class="st1" points="-767.4,-2473.6 -746.4,-2473.9 -769.1,-2480.9 	"/>
	<path class="st1" d="M-770.1-2485.4c0,0-8-33.3-10.5-35.6c0,0,27-0.1,22.2,15.1C-763.7-2488.8-766.6-2488.9-770.1-2485.4z"/>
</g>
<g>
	<path class="st11" d="M2030.5-944.8c0,0,11,48.5,25,53l32-4.2l-8.5-51.5c0,0-29,12-36,9.2C2036-941.1,2030.5-944.8,2030.5-944.8z"
		/>
	<path class="st1" d="M2030.5-944.8c0,0-0.2-5.8,5-8.2l13.2,14.9C2048.6-938.1,2040.9-934.5,2030.5-944.8z"/>
</g>
<circle class="st0" cx="3398.3" cy="277.7" r="128.7"/>
<polygon class="st1" points="3303.3,215.8 3303.3,337.3 3385.5,337.3 3385.5,240.9 3360.6,240.9 3360.6,215.8 "/>
<polygon class="st10" points="3469,215.8 3493.3,240.9 3469,240.9 "/>
<polygon class="st10" points="3360.6,215.8 3385.5,240.9 3360.6,240.9 "/>
<polygon class="st1" points="3410.9,215.8 3469,215.8 3469,240.9 3493.3,240.9 3493.3,339.6 3410.9,339.6 "/>
<g>
	<g>
		<path class="st10" d="M3429.6,253.7c15,0,30,0,45,0c1.6,0,1.6-2.5,0-2.5c-15,0-30,0-45,0C3428,251.2,3428,253.7,3429.6,253.7
			L3429.6,253.7z"/>
	</g>
</g>
<g>
	<g>
		<path class="st10" d="M3451.1,268.4c7.8,0,15.7,0,23.5,0c1.2,0,1.2-1.8,0-1.8c-7.8,0-15.7,0-23.5,0
			C3450,266.6,3450,268.4,3451.1,268.4L3451.1,268.4z"/>
	</g>
</g>
<g>
	<g>
		<path class="st10" d="M3429.6,286.8c15,0,30,0,45,0c1.6,0,1.6-2.5,0-2.5c-15,0-30,0-45,0C3428,284.3,3428,286.8,3429.6,286.8
			L3429.6,286.8z"/>
	</g>
</g>
<g>
	<g>
		<path class="st10" d="M3451.1,304.1c7.5,0,15,0,22.5,0c1.6,0,1.6-2.5,0-2.5c-7.5,0-15,0-22.5,0
			C3449.5,301.6,3449.5,304.1,3451.1,304.1L3451.1,304.1z"/>
	</g>
</g>
<g>
	<g>
		<path class="st10" d="M3429.6,320c15,0,30,0,45,0c1.6,0,1.6-2.5,0-2.5c-15,0-30,0-45,0C3428,317.5,3428,320,3429.6,320L3429.6,320
			z"/>
	</g>
</g>
<polygon class="st7" points="3365.5,256.4 3365.5,278.7 3417.1,278.7 3417.1,286.8 3446.8,267.4 3417.1,248.3 3417.1,256 "/>
<polygon class="st7" points="3429.1,316 3429.1,293.7 3377.5,293.7 3377.5,285.6 3347.8,305.1 3377.5,324.2 3377.5,316.4 "/>
<g>
	<g>
		<path class="st10" d="M3311.4,253.8c15,0,30,0,45,0c1.6,0,1.6-2.5,0-2.5c-15,0-30,0-45,0C3309.8,251.3,3309.8,253.8,3311.4,253.8
			L3311.4,253.8z"/>
	</g>
</g>
<g>
	<g>
		<path class="st10" d="M3311.4,268.8c15,0,30,0,45,0c1.6,0,1.6-2.5,0-2.5c-15,0-30,0-45,0C3309.8,266.3,3309.8,268.8,3311.4,268.8
			L3311.4,268.8z"/>
	</g>
</g>
<g>
	<g>
		<path class="st10" d="M3311.4,286.9c15,0,30,0,45,0c1.6,0,1.6-2.5,0-2.5c-15,0-30,0-45,0C3309.8,284.4,3309.8,286.9,3311.4,286.9
			L3311.4,286.9z"/>
	</g>
</g>
<g>
	<g>
		<path class="st10" d="M3311.4,304.1c7.5,0,15,0,22.5,0c1.6,0,1.6-2.5,0-2.5c-7.5,0-15,0-22.5,0
			C3309.8,301.6,3309.8,304.1,3311.4,304.1L3311.4,304.1z"/>
	</g>
</g>
<g>
	<g>
		<path class="st10" d="M3311.4,320.1c15,0,30,0,45,0c1.6,0,1.6-2.5,0-2.5c-15,0-30,0-45,0C3309.8,317.6,3309.8,320.1,3311.4,320.1
			L3311.4,320.1z"/>
	</g>
</g>
<circle class="st24" cx="3421.9" cy="-157.6" r="120.5"/>
<g>
	<g>
		<path class="st1" d="M3339.6-139.4c0.1-0.9,0.2-1.8,0.3-2.7c0-0.5,0.3-2,0-0.1c0.1-0.5,0.1-1,0.2-1.6c0.2-1.4,0.5-2.8,0.7-4.1
			c1.5-7.5,3.7-15.2,6.6-22.1c8.5-20.1,24.1-36.8,45.4-43.6c18-5.8,37.4-4.8,55.8-1.1c6.8,1.4,9.8-9.1,2.9-10.5
			c-31.8-6.3-66.5-4.4-91.5,18.3c-15.3,13.9-24.8,33.5-29.1,53.5c-1,4.6-1.9,9.4-2.2,14.1C3328.3-132.4,3339.2-132.5,3339.6-139.4
			L3339.6-139.4z"/>
	</g>
</g>
<g>
	<g>
		<path class="st1" d="M3479-194.5c-1.2-0.9-0.2-0.2,0.4,0.3c1,0.9,2,1.8,2.9,2.7c3.2,3.3,6,6.9,8.4,10.8
			c8.9,14.3,12.5,30.9,12.7,47.5c0,5.6,8.7,5.6,8.7,0c-0.2-24.4-8-53.6-28.7-69C3478.9-205.3,3474.5-197.8,3479-194.5L3479-194.5z"
			/>
	</g>
</g>
<path class="st25" d="M3421-162.2c0,0-15.7,17.6-13.3,24.6c1.3,3.8,3.9,6.2,7.2,7.1c4.3,1.2,8.9-0.8,11.3-4.6l51.6-80
	c1.2-1.9,2-4.4,0.8-6.2c-0.4-0.6-0.8-1.3-1.9-1.9c-3.3-1.9-5.2-0.7-8.7,3.7C3463.8-214.4,3421-162.2,3421-162.2z"/>
<g>
	<line class="st24" x1="3354" y1="-140.9" x2="3374.4" y2="-140.9"/>
	<g>
		<path class="st1" d="M3354-136.6c6.8,0,13.6,0,20.4,0c5.6,0,5.6-8.7,0-8.7c-6.8,0-13.6,0-20.4,0
			C3348.4-145.3,3348.4-136.6,3354-136.6L3354-136.6z"/>
	</g>
</g>
<g>
	<line class="st24" x1="3364" y1="-175.3" x2="3381.4" y2="-164.6"/>
	<g>
		<path class="st1" d="M3361.8-171.6c5.8,3.6,11.6,7.2,17.4,10.8c4.8,3,9.1-4.6,4.4-7.5c-5.8-3.6-11.6-7.2-17.4-10.8
			C3361.4-182.1,3357-174.5,3361.8-171.6L3361.8-171.6z"/>
	</g>
</g>
<g>
	<line class="st24" x1="3387.8" y1="-200.3" x2="3398.3" y2="-182.8"/>
	<g>
		<path class="st1" d="M3384-198.1c3.5,5.8,7,11.7,10.5,17.5c2.9,4.8,10.4,0.4,7.5-4.4c-3.5-5.8-7-11.7-10.5-17.5
			C3388.7-207.3,3381.1-202.9,3384-198.1L3384-198.1z"/>
	</g>
</g>
<g>
	<line class="st24" x1="3421.2" y1="-208.1" x2="3421.4" y2="-187.6"/>
	<g>
		<path class="st1" d="M3416.9-208.1c0.1,6.8,0.1,13.6,0.2,20.4c0.1,5.6,8.8,5.6,8.7,0c-0.1-6.8-0.1-13.6-0.2-20.4
			C3425.5-213.7,3416.8-213.7,3416.9-208.1L3416.9-208.1z"/>
	</g>
</g>
<g>
	<line class="st24" x1="3479.1" y1="-172.8" x2="3461.5" y2="-162.3"/>
	<g>
		<path class="st1" d="M3476.9-176.5c-5.9,3.5-11.7,6.9-17.6,10.4c-4.8,2.8-0.4,10.4,4.4,7.5c5.9-3.5,11.7-6.9,17.6-10.4
			C3486.1-171.8,3481.8-179.4,3476.9-176.5L3476.9-176.5z"/>
	</g>
</g>
<g>
	<line class="st24" x1="3487.6" y1="-139.4" x2="3467.1" y2="-139.4"/>
	<g>
		<path class="st1" d="M3487.6-143.8c-6.8,0-13.6,0-20.4,0c-5.6,0-5.6,8.7,0,8.7c6.8,0,13.6,0,20.4,0
			C3493.2-135.1,3493.2-143.8,3487.6-143.8L3487.6-143.8z"/>
	</g>
</g>
<circle class="st24" cx="3746.9" cy="83.4" r="120.5"/>
<g>
	<line class="st24" x1="3662.6" y1="88" x2="3834" y2="88"/>
	<g>
		<path class="st1" d="M3662.6,93c19.3,0,38.5,0,57.8,0c30.7,0,61.5,0,92.2,0c7.1,0,14.3,0,21.4,0c6.4,0,6.4-10,0-10
			c-19.3,0-38.5,0-57.8,0c-30.7,0-61.5,0-92.2,0c-7.1,0-14.3,0-21.4,0C3656.2,83,3656.2,93,3662.6,93L3662.6,93z"/>
	</g>
</g>
<circle class="st25" cx="3688.1" cy="61.2" r="21.8"/>
<circle class="st25" cx="3804" cy="61.2" r="21.8"/>
<path class="st1" d="M3722.2,127.1l19.3-31.3c3-4.8,9.9-4.9,13-0.1l19.9,31.3c3.2,5.1-0.4,11.8-6.5,11.8h-39.3
	C3722.7,138.8,3719,132.2,3722.2,127.1z"/>
<ellipse transform="matrix(0.5 -0.866 0.866 0.5 1860.3292 3324.9246)" class="st26" cx="3809.6" cy="51.4" rx="10.8" ry="15.8"/>
<ellipse transform="matrix(0.5 -0.866 0.866 0.5 1864.8987 3324.9246)" class="st27" cx="3811.9" cy="47.4" rx="5.1" ry="9.5"/>
<ellipse transform="matrix(0.5 -0.866 0.866 0.5 1802.0792 3224.0327)" class="st26" cx="3693.1" cy="51.4" rx="10.8" ry="15.8"/>
<ellipse transform="matrix(0.5 -0.866 0.866 0.5 1806.6487 3224.0327)" class="st27" cx="3695.4" cy="47.4" rx="5.1" ry="9.5"/>
<circle class="st24" cx="4020.9" cy="184.3" r="120.5"/>
<path class="st1" d="M3957,129.1c10.2-0.2,37.1,6.1,57.6-14.5c2.8-2.8,6.8-6.4,14,0.7c6.7,6.7,12.8,30,49.8,20.7
	c6-1.5-5.4-0.9-6.2,5.2c-4.3,32.2,5.2,116-46,120c-51.5,4.1-71.6-84.7-75.3-117.9C3950.1,137.8,3951.2,129.3,3957,129.1z"/>
<path class="st28" d="M4021.5,111.3l0,150.1c0,0,20.9,3.4,38.4-18.5c17.5-22,23.7-45.2,28-74c4.3-28.8,4.3-28.8,4.3-28.8
	s2.3-7.4-5.5-10.4c0,0-0.4-1-7.7-0.5c-7.3,0.6-23.6,2.5-37-4.1c0,0-8.4-4.6-13.5-9.7C4028.6,115.4,4025.2,110.4,4021.5,111.3z"/>
<path class="st25" d="M4042.9,223.8h-40.8c-3.1,0-5.6-2.5-5.6-5.6v-47.3c0-3.1,2.5-5.6,5.6-5.6h40.8c3.1,0,5.6,2.5,5.6,5.6v47.3
	C4048.4,221.2,4045.9,223.8,4042.9,223.8z"/>
<path class="st25" d="M4000.1,168.9c0,0-1.3-26.1,21.4-26.1c25.5,0,23.3,26.1,23.3,26.1l-7.9-0.2c0,0-1.1-19.9-14.4-19.2
	c-13.9,0.7-14.3,19.4-14.3,19.4H4000.1z"/>
<path class="st1" d="M4022.6,181.3c-0.1,0-0.3,0-0.4,0c-1.2,0.2-7.3,1.6-6.2,8.9c0,0,0.3,1.9,1.7,3c0.6,0.5,0.9,1.3,0.7,2.1
	l-2.4,10.1c0,0.2-0.1,0.3-0.1,0.5v1.1c0,1.2,0.9,2.1,2.1,2.1h4.8h4.8c1.2,0,2.1-0.9,2.1-2.1v-1.2c0-0.2,0-0.4-0.1-0.6l-2.8-9.6
	c-0.2-0.7,0-1.5,0.5-2.1c1-1.1,2.5-3.1,2.4-5.9C4029.4,183.5,4025.8,181.4,4022.6,181.3z"/>
<circle class="st24" cx="4578.9" cy="51.4" r="120.5"/>
<circle class="st24" cx="4948.7" cy="60.2" r="120.5"/>
<path class="st28" d="M4511.3,99.8V-0.9c0-5.5,4.5-9.9,9.9-9.9h35.1c2.7,0,5.3,1.1,7.2,3.1l6.5,6.7c1.8,1.9,4.3,3,6.9,3l60.4,1.4
	c5.4,0.1,9.7,4.5,9.7,9.9v54.9c0,4.8-3.5,9-8.3,9.8l-97.3,24.4C4535.5,103.5,4511.3,115.6,4511.3,99.8z"/>
<path class="st29" d="M4578.9,171.9l-58.1-60.4l126.3-61.3l44.3,44.3C4691.4,94.5,4665.6,169.6,4578.9,171.9z"/>
<circle class="st24" cx="5364.9" cy="50.2" r="120.5"/>
<path class="st1" d="M4526.6,27.8l-15.3,72c-1.3,6,3.3,11.7,9.5,11.7h113.7c4.6,0,8.5-3.2,9.5-7.7l15.3-74.3
	c1.2-6-3.4-11.6-9.5-11.6H4539C4533,17.8,4527.9,22,4526.6,27.8z"/>
<line class="st10" x1="3481" y1="179.8" x2="3505.3" y2="204.9"/>
<path class="st1" d="M3505.3,303.6"/>
<path class="st29" d="M4904.4,121.8l58.7,58c0,0,77.3-4.6,102.5-90.5l-64.3-73.5L4904.4,121.8z"/>
<polygon class="st1" points="4904.4,-15 4968.6,-15 4972.8,12.8 5001.3,15.8 5001.3,121.8 4904.4,121.8 "/>
<polygon class="st10" points="4968.6,-15 5001.3,15.8 4968.9,15.8 "/>
<path class="st29" d="M5266.2,89l60.3,75.4c0,0,96.7,34.7,148.3-64.9l-49.6-31.7l-40.3-26.3l-53.7,3.3l-12.3,34L5266.2,89z"/>
<g>
	<path class="st1" d="M5261.8,83.1c2.3-11.3,8.8-27.6,27.4-30.4c0.5-0.1,0.9-0.1,1.4-0.1h19.1c1.2,0,2.5,0.3,3.6,0.7
		c4.8,2.1,17.1,9.2,22.5,29.3c1.6,5.8-2.8,11.5-8.8,11.5h-56.3C5264.9,94.1,5260.6,88.7,5261.8,83.1z"/>
	<circle class="st1" cx="5297.8" cy="33.9" r="21.2"/>
</g>
<g>
	<path class="st1" d="M5360.7-16.8l8.7,0.2c2.6,0.1,4.6,2.2,4.5,4.7l-0.1,2.5c0,1.8,0.9,3.4,2.5,4.2c2.5,1.3,6.4,3.4,9.3,5.8
		c1.3,1,3,1.3,4.5,0.8l3.8-1.4c2-0.7,4.3,0,5.5,1.9l4.3,6.7c1.2,1.9,0.9,4.3-0.7,5.8l-3.2,3c-0.9,0.8-1.4,2-1.4,3.2l-0.3,11.7
		c0,1.2,0.4,2.4,1.3,3.3l3.2,3.4c1.5,1.5,1.7,3.9,0.5,5.6l-4.6,7.3c-1.3,2-3.8,2.7-5.9,1.7l-3.4-1.6c-1.3-0.6-2.8-0.6-4.1,0
		l-9.6,4.9c-1.4,0.7-2.4,2.1-2.5,3.7l-0.3,2.9c-0.2,2.4-2.3,4.3-4.7,4.2l-8.9-0.2c-2.3-0.1-4.2-1.8-4.5-4.2l-0.3-3.1
		c-0.1-1.4-0.9-2.6-2-3.4l-9.4-6.3c-1.4-0.9-3.2-1-4.6-0.3l-2.5,1.3c-2,1-4.5,0.4-5.8-1.5l-4-5.7c-1.3-1.9-1.1-4.4,0.6-6l3.7-3.5
		c0.9-0.8,1.4-2,1.4-3.2l0.3-12c0-1.2-0.4-2.4-1.3-3.3l-3.5-3.7c-1.6-1.7-1.7-4.2-0.3-6l4.7-5.9c1.5-1.9,4.3-2.3,6.3-0.9v0
		c2.3,1.6,5.3,1.7,7.6,0.3l8.2-5c1.3-0.8,2.2-2.2,2.2-3.8l0.1-3.8C5356-14.9,5358.1-16.9,5360.7-16.8z"/>
	<circle class="st24" cx="5364.7" cy="25.5" r="13.1"/>
</g>
<g>
	<path class="st1" d="M5394.7,82.3c2.3-11.3,8.8-27.6,27.4-30.4c0.5-0.1,0.9-0.1,1.4-0.1h19.1c1.2,0,2.5,0.3,3.6,0.7
		c4.8,2.1,17.1,9.2,22.5,29.3c1.6,5.8-2.8,11.5-8.8,11.5h-56.3C5397.8,93.2,5393.5,87.9,5394.7,82.3z"/>
	<circle class="st1" cx="5430.7" cy="33" r="21.2"/>
</g>
<circle class="st24" cx="5013.2" cy="398.2" r="120.5"/>
<path class="st29" d="M4953.4,461.7l65.5,57c0,0,112-7.2,114.8-120.5l-80.6-69.8l-51.6,61l-19.9,19.9l-13.7-11.6l-14.6,42.5V461.7z"
	/>
<path class="st1" d="M4947.5,389.4h13.2c4.4,0,7.8,3.9,7.3,8.2c-1.5,12.3-3,35.8,4.4,53.8c2,4.8-1.4,10.1-6.6,10.2
	c-0.1,0-0.2,0-0.3,0h-12.1c-3.1,0-5.9-2-6.9-4.9c-0.6-1.6-1.2-3.7-2-6.6c-2.7-10.2-4-51.2-4-51.2c0,0,0,0,0,0
	C4940.5,398.9,4943,389.4,4947.5,389.4z"/>
<path class="st1" d="M4979.3,393.8c-0.7,0.7-1.3,1.6-1.6,2.6c-1.5,4.3-5.4,16.8-3.2,27c2.6,11.8,3.8,22.8,11,29.1
	c0.9,0.8,1.9,1.3,3,1.5c6.8,1.5,34.5,7.1,58.2,5.4c27.2-2,27.2-12,27.2-12v-6.5c0-1.6,0.6-3.2,1.6-4.5c1.8-2.1,4.4-6.1,4.4-10.9
	c0-2.8-0.4-5-0.9-6.5c-0.8-2.5-0.1-5.1,1.8-7l0,0c1.4-1.4,2.2-3.3,2.1-5.3c-0.2-2.6-0.8-6.2-3.3-8.4c-1.6-1.5-2.5-3.6-2.3-5.8
	l0.7-8.7c0.1-1.5-0.2-3-1-4.2c-1.8-3-6.4-7.6-16.6-7.6h-9.3c-5.5,0-8.9-6.1-5.9-10.8l4-6.3c3.5-5.5,5.5-12,5.4-18.5
	c-0.1-4.9-1.2-9.8-5.2-11.6c-9-4.2-12,2.2-12,2.2s-8.5,17.5-11.2,20.2C5023.6,349.8,4989,384.2,4979.3,393.8z"/>
<circle class="st24" cx="5689.1" cy="170.3" r="120.5"/>
<path class="st29" d="M5607.9,259.4c-3.2-2.8-8.4-69.2-8.4-69.2l38.1-7.5l90.5,101.6C5728.2,284.3,5666.3,310.5,5607.9,259.4z"/>
<path class="st29" d="M5735.8,172.1l42.4-11.8l30.7,22.3c0,0-4,44.5-34.2,71.6l-32.1-34.5L5735.8,172.1z"/>
<g>
	<path class="st1" d="M5633.9,145.6c-4.7-3.8-10.6-5.9-16.6-5.7c-8.9,0.2-20.3,3.3-22,18.8c-2.8,24.7,0.6,54.4,25.2,62.8
		c21.9,7.5,17.3-56.5,16-71.1C5636.2,148.5,5635.3,146.8,5633.9,145.6L5633.9,145.6z"/>
	<path class="st1" d="M5739.6,147.3c4.7-3.8,10.6-5.9,16.6-5.7c8.9,0.2,20.3,3.3,22,18.8c2.8,24.7-0.6,54.4-25.2,62.8
		c-21.9,7.5-17.3-56.5-16-71.1C5737.2,150.2,5738.1,148.5,5739.6,147.3L5739.6,147.3z"/>
	<path class="st1" d="M5608.8,154.8c0,0,4.6-72.8,72.8-72.8c68.2,0,75.9,52.7,79.2,60c3.3,7.3-6.4,7.3-6.4,7.3s-16.5-61.8-69.2-57.2
		c-52.8,4.6-57,26.3-69.1,62.7H5608.8z"/>
	<circle class="st1" cx="5669.1" cy="245.3" r="14.1"/>
	<path class="st1" d="M5660.5,245.3v-3.9c0,0-36.6-4.2-36.6-28.2h-7.9C5616,213.2,5624.3,245.3,5660.5,245.3z"/>
</g>
<circle class="st24" cx="5969.5" cy="236.9" r="120.5"/>
<path class="st29" d="M5942.3,354.3c-5-1-20-59.2-20-59.2l94.9-35.7l64,22.9C6081.2,282.2,6046,374.4,5942.3,354.3z"/>
<path class="st1" d="M6007,305.2h-74.6c-5.6,0-10.2-4.6-10.2-10.2v-86.4c0-5.6,4.6-10.2,10.2-10.2h74.6c5.6,0,10.2,4.6,10.2,10.2
	v86.4C6017.2,300.7,6012.6,305.2,6007,305.2z"/>
<path class="st1" d="M5928.8,205c0,0-2.4-47.7,39-47.7c46.6,0,42.5,47.7,42.5,47.7l-14.4-0.3c0,0-2.1-36.3-26.4-35
	c-25.5,1.4-26.2,35.4-26.2,35.4H5928.8z"/>
<path class="st24" d="M5969.9,227.7c-0.2,0-0.5,0-0.7,0.1c-2.3,0.4-13.3,2.9-11.3,16.2c0,0,0.6,3.4,3.1,5.5c1.1,0.9,1.6,2.4,1.2,3.8
	l-4.5,18.5c-0.1,0.3-0.1,0.6-0.1,0.9v2c0,2.1,1.7,3.8,3.8,3.8h8.8h8.8c2.1,0,3.8-1.7,3.8-3.8v-2.3c0-0.4-0.1-0.7-0.2-1.1l-5.1-17.5
	c-0.4-1.3,0-2.8,0.9-3.8c1.9-1.9,4.7-5.7,4.3-10.8C5982.4,231.8,5975.8,227.9,5969.9,227.7z"/>
<text transform="matrix(1 0 0 1 4968.5859 -561.2543)" class="st24" style="font-family:'FontAwesome5BrandsRegular'; font-size:63.2937px;"></text>
<text transform="matrix(1 0 0 1 4817.5171 -168.8047)" class="st24" style="font-family:'FontAwesome5BrandsRegular'; font-size:63.7536px;"></text>
<rect x="5336.1" y="-633.6" class="st7" width="579.3" height="334"/>
<path class="st1" d="M5415.7-499.1l47.3,29l119.3-34.6l-28-11.7c0,0-18.7-11.7-27-22.5c0,0-9.3,11.1-19.5,15.1
	C5497.6-519.8,5415.7-499.1,5415.7-499.1z"/>
<g>
	<g>
		<path class="st1" d="M5415-485.3c11.2,6.7,22.3,13.5,33.5,20.2c3,1.8,6,3.6,9,5.5c1.3,0.8,3,2.2,4.4,2.7c1.8,0.5,3.7-0.5,5.4-1
			c29.2-8.5,58.3-17,87.5-25.5c9.7-2.8,19.5-5.7,29.2-8.5c1.8-0.5,1.1-3.4-0.8-2.9c-23.6,6.9-47.3,13.8-70.9,20.7
			c-13.8,4-27.7,8.1-41.5,12.1c-2.7,0.8-5.5,1.8-8.3,2.4c-0.6,0.1,1.4,0.4,0.8,0.1c-0.6-0.3-1.1-0.7-1.7-1c-2.4-1.5-4.9-2.9-7.3-4.4
			c-12.6-7.6-25.3-15.3-37.9-22.9C5414.8-488.8,5413.3-486.3,5415-485.3L5415-485.3z"/>
	</g>
</g>
<g>
	<g>
		<path class="st1" d="M5415-472.7c11.1,6.6,22.2,13.2,33.3,19.8c3.1,1.9,6.3,3.7,9.4,5.6c1.6,0.9,3.3,2.4,5.1,3
			c1.8,0.6,3.3-0.2,5.1-0.8c28.6-8.7,57.2-17.4,85.8-26.1c9.7-2.9,19.4-5.9,29-8.8c1.8-0.6,1.1-3.4-0.8-2.9
			c-23.6,7.2-47.1,14.3-70.7,21.5c-13.4,4.1-26.9,8.2-40.3,12.3c-2.4,0.7-4.9,1.8-7.4,2.3c0.5-0.1,1.4,0.5,0.6-0.1
			c-0.6-0.4-1.3-0.8-2-1.2c-2.6-1.5-5.2-3.1-7.8-4.6c-12.6-7.5-25.2-15-37.9-22.5C5414.8-476.3,5413.3-473.7,5415-472.7L5415-472.7z
			"/>
	</g>
</g>
<g>
	<g>
		<path class="st1" d="M5415-460c11.1,6.5,22.3,13.1,33.4,19.6c3.1,1.8,6.2,3.6,9.2,5.4c1.5,0.9,3.1,2.3,4.8,2.8
			c1.8,0.6,3.4-0.2,5.3-0.8c28.6-8.6,57.2-17.2,85.8-25.8c9.8-2.9,19.5-5.9,29.3-8.8c1.8-0.6,1.1-3.4-0.8-2.9
			c-23.6,7.1-47.2,14.2-70.8,21.3c-13.5,4.1-26.9,8.1-40.4,12.2c-2.5,0.7-5.1,1.8-7.6,2.3c0.1,0,1.5,0.5,0.7-0.1
			c-0.6-0.4-1.4-0.8-2-1.2c-2.5-1.4-4.9-2.9-7.4-4.3c-12.6-7.4-25.3-14.8-37.9-22.3C5414.8-463.6,5413.3-461,5415-460L5415-460z"/>
	</g>
</g>
<g>
	<g>
		<path class="st1" d="M5415-448.1c11.1,6.6,22.2,13.1,33.2,19.7c3.1,1.8,6.1,3.6,9.2,5.5c1.4,0.8,3.1,2.3,4.7,2.8
			c1.8,0.5,3.5-0.4,5.3-0.9c28.8-8.6,57.6-17.3,86.3-25.9c9.7-2.9,19.3-5.8,29-8.7c1.8-0.6,1.1-3.4-0.8-2.9
			c-23.5,7.1-47.1,14.1-70.6,21.2c-13.6,4.1-27.1,8.1-40.7,12.2c-2.6,0.8-5.2,1.8-7.8,2.4c-0.3,0.1,1.5,0.5,0.7,0
			c-0.6-0.4-1.2-0.7-1.8-1c-2.5-1.5-5-3-7.5-4.4c-12.6-7.5-25.2-14.9-37.7-22.4C5414.8-451.6,5413.3-449.1,5415-448.1L5415-448.1z"
			/>
	</g>
</g>
<path class="st29" d="M5685-448.8l27,99.2c1.1,3.9,5.1,6.3,9.1,5.2l135-36.7c3.9-1.1,6.3-5.1,5.2-9.1l-23.1-84.9
	c-1.1-3.9-5.1-6.3-9.1-5.2l-80.2,21.8c-3.9,1.1-8-1.3-9.1-5.2l0,0c-1.1-3.9-5.1-6.3-9.1-5.2l-40.5,11
	C5686.3-456.8,5684-452.8,5685-448.8z"/>
<g>
	<path class="st1" d="M5601.5-574.4l9.4,50.2c0,0-11.2,2.8-12.9,10.8l-23-26.3c0,0-9.6-3.7-7.9-12S5596.4-575.5,5601.5-574.4z"/>
	<polygon class="st10" points="5568.5,-544.7 5575.1,-539.7 5615.3,-496.6 5594.1,-501 	"/>
</g>
<g>
	<path class="st11" d="M5455.8-577.3l-5.8,32.2c0,0,11.9-24.7,19-24.7L5455.8-577.3z"/>
	<path class="st1" d="M5514.6-554.6l-25.1,46.3c-54.2,5.7-39.4-34.1-39.4-36.9c0-2.8,10.3-17.5,10.3-17.5s0.5,13.2,13.2,15.5
		S5514.6-554.6,5514.6-554.6z"/>
</g>
<g>
	<path class="st10" d="M5781.2-528.2l-34,16.5c0,0-3.9-27.2-12.2-32l43,7.3C5778-536.4,5783-534.6,5781.2-528.2z"/>
	<polygon class="st1" points="5756.5,-509 5771.6,-523.6 5750.3,-513.2 	"/>
	<path class="st1" d="M5746.5-515.8c0,0-28.6-18.9-32-18.8c0,0,19.7-18.5,26.6-4.1C5748.8-522.7,5746.6-520.7,5746.5-515.8z"/>
</g>
<g>
	<path class="st1" d="M5759-504.2c0,0-10.3,5.6-10.9,16.3l9.2-1.5c0,0,22.5,25.4,32.6,43.3c10,17.9,13.2,23.6,13.2,23.6
		s-2.1-40.1,2.3-48.9C5805.3-471.5,5765.6-488.4,5759-504.2z"/>
	<path class="st13" d="M5750.3-485.9l52.2,61.7c0,0-28.2-52.6-45.3-65.2c0,0-6.4,0-9.2,1.5L5750.3-485.9z"/>
</g>
<path class="st1" d="M5409.5-604.9l-7.3,19.2c0,0,16,17.5,31,8.9c14.9-8.7,10.2-25.9,10.2-25.9l-13-9.9
	C5430.4-612.6,5423.8-587.8,5409.5-604.9z"/>
<path class="st24" d="M5718.8-413.8c0,0,12.8,57.7-6.8,65.1c0,0,1.7,6.4,9.1,5.2c7.4-1.2,146.4-40.5,146.4-40.5s5-0.8,3.4-10.9
	c-1.7-10-19.1-74.2-19.1-74.2l-138.1,37.7L5718.8-413.8z"/>
<g>
	<path class="st11" d="M5643.8-527.6l-15.1,21.7c0,0,17.1-14.1,22.3-11.7L5643.8-527.6z"/>
	<path class="st1" d="M5679.2-491.1l-34,25.6c-41.7-14.1-17.5-38.3-16.5-40.4c0.9-2,13.5-9.4,13.5-9.4s-4.1,9.9,4.5,15.8
		C5655.2-493.6,5679.2-491.1,5679.2-491.1z"/>
</g>
<g>
	<path class="st10" d="M5694.3-519.5l-28-25.3c0,0,23.7-13.8,25.1-23.3l9.3,42.6C5700.8-525.5,5701-520.1,5694.3-519.5z"/>
	<polygon class="st1" points="5667.3,-535.2 5686.5,-526.6 5668.9,-542.5 	"/>
	<path class="st1" d="M5669.8-547c0,0,6.8-33.6,5.5-36.7c0,0,24.5,11.3,13.8,23.1C5677.1-547.4,5674.4-548.7,5669.8-547z"/>
</g>
<g>
	<rect x="5336.1" y="-984.3" class="st14" width="579.3" height="334"/>
	<path class="st7" d="M5767.5-743.2h-301.4c-12.1,0-22-9.9-22-22v-160.1c0-12.1,9.9-22,22-22h301.4c12.1,0,22,9.9,22,22v160.1
		C5789.6-753.1,5779.7-743.2,5767.5-743.2z"/>
	<path class="st30" d="M5749.3-760.7h-262.1c-13.8,0-25-11.3-25-25V-904c0-13.8,11.3-25,25-25h262.1c13.8,0,25,11.3,25,25v118.3
		C5774.3-772,5763.1-760.7,5749.3-760.7z"/>
	<path class="st7" d="M5823.6-706.3h-104.5c-9.8,0-17.9-8-17.9-17.9v-154.9c0-9.8,8-17.9,17.9-17.9h104.5c9.8,0,17.9,8,17.9,17.9
		v154.9C5841.4-714.3,5833.4-706.3,5823.6-706.3z"/>
	<path class="st7" d="M5650.5-710.1h-64.8c-1.2,0-2.1-0.9-2.1-2.1v-34.6c0-1.2,0.9-2.1,2.1-2.1h64.8c1.2,0,2.1,0.9,2.1,2.1v34.6
		C5652.6-711,5651.6-710.1,5650.5-710.1z"/>
	<path class="st30" d="M5811-726.5h-77.5c-7.6,0-13.9-6.3-13.9-13.9v-125.9c0-7.6,6.3-13.9,13.9-13.9h77.5c7.6,0,13.9,6.3,13.9,13.9
		v125.9C5824.9-732.8,5818.7-726.5,5811-726.5z"/>
	<path class="st7" d="M5688.6-706.3h-141c-1.1,0-2-0.9-2-2v-3.6c0-1.1,0.9-2,2-2h141c1.1,0,2,0.9,2,2v3.6
		C5690.6-707.2,5689.7-706.3,5688.6-706.3z"/>
	<path class="st29" d="M5545.9-892.1l-0.9,81.2c0,3.2,2.6,5.9,5.8,5.9l110.5,1.2c3.2,0,5.9-2.6,5.9-5.8l0.7-69.5
		c0-3.2-2.6-5.9-5.8-5.9l-65.7-0.7c-3.2,0-5.8-2.7-5.8-5.9l0,0c0-3.2-2.6-5.9-5.8-5.9l-33.2-0.4
		C5548.5-897.9,5545.9-895.3,5545.9-892.1z"/>
	<path class="st24" d="M5564.2-858c0,0-2.7,46.6-19.2,48c0,0-0.1,5.2,5.8,5.9c5.9,0.7,120,0.8,120,0.8s4,0.5,4.9-7.5
		s1.4-60.5,1.4-60.5l-113.1-1.1L5564.2-858z"/>
	<polygon class="st1" points="5745.8,-845.1 5786.7,-845.1 5789.3,-827.4 5807.5,-825.5 5807.5,-758.1 5745.8,-758.1 	"/>
	<polygon class="st10" points="5786.7,-845.1 5807.5,-825.5 5786.9,-825.5 	"/>
	<circle class="st1" cx="5772.9" cy="-860.7" r="8.7"/>
	<g>
		<g>
			<path class="st1" d="M5623.3-877.2c10.6-14.2,28.7-27.2,46.3-32.9c30-9.8,66.1,0.5,87.2,23.8c5.1,5.7,12.3,14.5,12.5,22.7
				c0.1,2.6,4.1,2.6,4,0c-0.2-7.6-5.5-15.4-10-21.1c-8.8-11.4-20.8-20-34-25.5c-16.3-6.8-34.7-9.7-52.1-6.1
				c-14.6,3-28.1,10.2-39.7,19.5c-6.5,5.2-12.7,11-17.7,17.6C5618.3-877.2,5621.8-875.2,5623.3-877.2L5623.3-877.2z"/>
		</g>
	</g>
	<rect x="5583.6" y="-743.2" class="st31" width="69" height="13.7"/>
	<path class="st7" d="M5471.6-676.7h-48.2c-10.7,0-19.5-8.7-19.5-19.5v-129.1c0-10.7,8.7-19.5,19.5-19.5h48.2
		c10.7,0,19.5,8.7,19.5,19.5v129.1C5491-685.4,5482.3-676.7,5471.6-676.7z"/>
	<path class="st30" d="M5472.7-706.3h-50.4c-5.4,0-9.8-4.4-9.8-9.8v-94.7c0-5.4,4.4-9.8,9.8-9.8h50.4c5.4,0,9.8,4.4,9.8,9.8v94.7
		C5482.5-710.7,5478.1-706.3,5472.7-706.3z"/>
	<circle class="st31" cx="5447.5" cy="-692.9" r="9.2"/>
	<rect x="5431.5" y="-833.3" class="st31" width="27.8" height="2.5"/>
	<polygon class="st1" points="5426.8,-795.5 5455,-795.5 5456.8,-783.3 5469.3,-782 5469.3,-735.5 5426.8,-735.5 	"/>
	<polygon class="st10" points="5455,-795.5 5469.3,-782 5455.1,-782 	"/>
	<circle class="st1" cx="5449.2" cy="-809" r="5.1"/>
	<g>
		<g>
			<path class="st1" d="M5579.8-876.7c-15.5-15.3-39.7-23.2-61.2-21.9c-17.1,1.1-36.1,7.3-48.2,19.8c-10.1,10.4-16,24.4-19.4,38.4
				c-1.5,6.4-2.6,12.9-3,19.4c-0.2,3.1-0.7,7.1,0.3,10.2c0.5,1.4,2.8,0.8,2.3-0.6c-0.8-2.4-0.5-5.4-0.3-7.9c0.2-5.3,1-10.5,2-15.7
				c2.7-13.5,7.5-27.1,16.2-37.9c11.1-14,29.4-21.2,46.8-23.1c15-1.6,30.2,1.3,43.8,7.9c6.8,3.4,13.8,7.6,19.2,12.9
				C5579.2-873.9,5580.8-875.6,5579.8-876.7L5579.8-876.7z"/>
		</g>
	</g>
</g>
<rect x="5347.2" y="-1335.1" class="st5" width="579.3" height="334"/>
<path class="st32" d="M5514.3-1163.7l55-67.5c0,0,6.2,10.2,20,7s49.9,3.5,49.9,3.5l97.1,83.5l5,13c0,0,11.7,17,4,24.7
	c-7.7,7.7-27,0-27,0s14.8,13.5,1.7,26.7c-13.2,13.2-33.7-7.3-33.7-7.3s16.5,15.2,5.7,26c-10.8,10.8-32.7-8-32.7-8s6.6,11.3-2.3,20.2
	c-8.9,8.9-28.7-5.9-28.7-5.9l-20.3-20.3l-80.3-68.2C5527.7-1136.4,5526.7-1151.2,5514.3-1163.7z"/>
<path class="st33" d="M5558.9-1198.2l30.4-15.5l13.8-13.8c0,0,27.2-18.8,55.2-11.2c0,0,18,5,21.5,8.5c0,0,24.4,0.8,35.5-10.3
	l61,80.3c0,0-23.3,14-35,36c0,0-33-22-51-35s-41.7-40.3-41.7-40.3s-18-1.7-36,9c-16.4,9.7-10.9,13.6-36,11.7
	c-5.6-0.4-11.1-1.5-16.4-3.2c-0.5-0.2-0.8-0.3-0.9-0.3C5551.2-1187,5550.6-1193.8,5558.9-1198.2z"/>
<path class="st34" d="M5620.1-1056l3.2,3.2c0,0,25.5-20.3,19.5-32.8c-4.8-10-8.9-10.9-13.5-10.8c-1.8,0-3.2-1.5-3-3.3
	c0.4-3.9,0.3-10.3-3.8-14.4c-5.2-5.2-8.7-6.4-14.7-4.8c-1.5,0.4-3-0.9-2.6-2.5c0.8-3.4,1.3-8.3-1.2-12.2c-3.6-5.5-9-9.8-17.8-8
	c-2.3,0.5-4.4-1.3-4.3-3.6c0.1-2.8-0.3-6.2-2.4-8.2c-4.1-4.1-11.3-9.3-24.1-6.1c-8.9,2.3-28.6,18.8-28.6,18.8l0.7,4.4l27.9,5.5
	L5620.1-1056z"/>
<path class="st33" d="M5520.2-1121.4c0.5-5.7,3.3-11,7.5-14.9c8.5-7.8,27.1-23.3,38.1-20.3c14.5,4,14.8,19.2,9.5,24.5
	c0,0,15-16,25.5,0c0,0,7,10.5-4,21.5c0,0,16.2-12.5,23.5-1.8c7.3,10.7-1.5,19.5-1.5,19.5s12.3-5.2,18.5,4.5c4.4,6.9,3.3,13-5,21.3
	c-8.3,8.3-24.3,21.3-24.3,21.3s-10,8.7-18.7,0c-8.7-8.7,2.7-20,2.7-20s-14.7,15-26.7,7.7s-2.3-23-2.3-23s-19.3,11.7-25.7-2.7
	c-6.3-14.3,8.7-23.3,8.7-23.3s-15.5,3.2-22.7-4C5520.5-1114,5519.8-1117.8,5520.2-1121.4z"/>
<path class="st14" d="M5445.4-1190.4l56.2,47.3l81.3-99.3l-72.7-58.7c0,0-40.7,37.3-54.7,79
	C5441.6-1180.4,5445.4-1190.4,5445.4-1190.4z"/>
<path class="st7" d="M5708.5-1244l74.7,100l61.8-47.3c0,0-14.9-59.2-64.4-108.8L5708.5-1244z"/>
<circle class="st1" cx="5750.7" cy="-1247.9" r="7.1"/>
<circle class="st1" cx="5773.5" cy="-1265.8" r="7.1"/>
<path class="st35" d="M5648.6-1199.5l9.3,1.6c0,0,15.9,25.9,86.1,69l-2.8,4.7C5741.3-1124.2,5678.9-1157.8,5648.6-1199.5z"/>
<g>
	<g>
		<defs>
			<rect id="SVGID_1_" x="-1937.5" y="-7333.8" width="1920" height="6000"/>
		</defs>
		<clipPath id="SVGID_2_">
			<use xlink:href="#SVGID_1_"  style="overflow:visible;"/>
		</clipPath>
		<g class="st36">
			<defs>
				<rect id="SVGID_3_" x="-1937.5" y="-7333.8" width="1920" height="6000"/>
			</defs>
			<clipPath id="SVGID_4_">
				<use xlink:href="#SVGID_3_"  style="overflow:visible;"/>
			</clipPath>
			<rect x="-1937.5" y="-7333.8" class="st37" width="1920" height="24"/>
			<rect x="-1937.5" y="-7309.8" class="st37" width="1920" height="24"/>
			<rect x="-1937.5" y="-7285.8" class="st37" width="1920" height="24"/>
			<rect x="-1937.5" y="-7261.8" class="st37" width="1920" height="24"/>
			<rect x="-1937.5" y="-7237.8" class="st37" width="1920" height="24"/>
			<rect x="-1937.5" y="-7213.8" class="st37" width="1920" height="24"/>
			<rect x="-1937.5" y="-7189.8" class="st37" width="1920" height="24"/>
			<rect x="-1937.5" y="-7165.8" class="st37" width="1920" height="24"/>
			<rect x="-1937.5" y="-7141.8" class="st37" width="1920" height="24"/>
			<rect x="-1937.5" y="-7117.8" class="st37" width="1920" height="24"/>
			<rect x="-1937.5" y="-7093.8" class="st37" width="1920" height="24"/>
			<rect x="-1937.5" y="-7069.8" class="st37" width="1920" height="24"/>
			<rect x="-1937.5" y="-7045.8" class="st37" width="1920" height="24"/>
			<rect x="-1937.5" y="-7021.8" class="st37" width="1920" height="24"/>
			<rect x="-1937.5" y="-6997.8" class="st37" width="1920" height="24"/>
			<rect x="-1937.5" y="-6973.8" class="st37" width="1920" height="24"/>
			<rect x="-1937.5" y="-6949.8" class="st37" width="1920" height="24"/>
			<rect x="-1937.5" y="-6925.8" class="st37" width="1920" height="24"/>
			<rect x="-1937.5" y="-6901.8" class="st37" width="1920" height="24"/>
			<rect x="-1937.5" y="-6877.8" class="st37" width="1920" height="24"/>
			<rect x="-1937.5" y="-6853.8" class="st37" width="1920" height="24"/>
			<rect x="-1937.5" y="-6829.8" class="st37" width="1920" height="24"/>
			<rect x="-1937.5" y="-6805.8" class="st37" width="1920" height="24"/>
			<rect x="-1937.5" y="-6781.8" class="st37" width="1920" height="24"/>
			<rect x="-1937.5" y="-6757.8" class="st37" width="1920" height="24"/>
			<rect x="-1937.5" y="-6733.8" class="st37" width="1920" height="24"/>
			<rect x="-1937.5" y="-6709.8" class="st37" width="1920" height="24"/>
			<rect x="-1937.5" y="-6685.8" class="st37" width="1920" height="24"/>
			<rect x="-1937.5" y="-6661.8" class="st37" width="1920" height="24"/>
			<rect x="-1937.5" y="-6637.8" class="st37" width="1920" height="24"/>
			<rect x="-1937.5" y="-6613.8" class="st37" width="1920" height="24"/>
			<rect x="-1937.5" y="-6589.8" class="st37" width="1920" height="24"/>
			<rect x="-1937.5" y="-6565.8" class="st37" width="1920" height="24"/>
			<rect x="-1937.5" y="-6541.8" class="st37" width="1920" height="24"/>
			<rect x="-1937.5" y="-6517.8" class="st37" width="1920" height="24"/>
			<rect x="-1937.5" y="-6493.8" class="st37" width="1920" height="24"/>
			<rect x="-1937.5" y="-6469.8" class="st37" width="1920" height="24"/>
			<rect x="-1937.5" y="-6445.8" class="st37" width="1920" height="24"/>
			<rect x="-1937.5" y="-6421.8" class="st37" width="1920" height="24"/>
			<rect x="-1937.5" y="-6397.8" class="st37" width="1920" height="24"/>
			<rect x="-1937.5" y="-6373.8" class="st37" width="1920" height="24"/>
			<rect x="-1937.5" y="-6349.8" class="st37" width="1920" height="24"/>
			<rect x="-1937.5" y="-6325.8" class="st37" width="1920" height="24"/>
			<rect x="-1937.5" y="-6301.8" class="st37" width="1920" height="24"/>
			<rect x="-1937.5" y="-6277.8" class="st37" width="1920" height="24"/>
			<rect x="-1937.5" y="-6253.8" class="st37" width="1920" height="24"/>
			<rect x="-1937.5" y="-6229.8" class="st37" width="1920" height="24"/>
			<rect x="-1937.5" y="-6205.8" class="st37" width="1920" height="24"/>
			<rect x="-1937.5" y="-6181.8" class="st37" width="1920" height="24"/>
			<rect x="-1937.5" y="-6157.8" class="st37" width="1920" height="24"/>
			<rect x="-1937.5" y="-6133.8" class="st37" width="1920" height="24"/>
			<rect x="-1937.5" y="-6109.8" class="st37" width="1920" height="24"/>
			<rect x="-1937.5" y="-6085.8" class="st37" width="1920" height="24"/>
			<rect x="-1937.5" y="-6061.8" class="st37" width="1920" height="24"/>
			<rect x="-1937.5" y="-6037.8" class="st37" width="1920" height="24"/>
			<rect x="-1937.5" y="-6013.8" class="st37" width="1920" height="24"/>
			<rect x="-1937.5" y="-5989.8" class="st37" width="1920" height="24"/>
			<rect x="-1937.5" y="-5965.8" class="st37" width="1920" height="24"/>
			<rect x="-1937.5" y="-5941.8" class="st37" width="1920" height="24"/>
			<rect x="-1937.5" y="-5917.8" class="st37" width="1920" height="24"/>
			<rect x="-1937.5" y="-5893.8" class="st37" width="1920" height="24"/>
			<rect x="-1937.5" y="-5869.8" class="st37" width="1920" height="24"/>
			<rect x="-1937.5" y="-5845.8" class="st37" width="1920" height="24"/>
			<rect x="-1937.5" y="-5821.8" class="st37" width="1920" height="24"/>
			<rect x="-1937.5" y="-5797.8" class="st37" width="1920" height="24"/>
			<rect x="-1937.5" y="-5773.8" class="st37" width="1920" height="24"/>
			<rect x="-1937.5" y="-5749.8" class="st37" width="1920" height="24"/>
			<rect x="-1937.5" y="-5725.8" class="st37" width="1920" height="24"/>
			<rect x="-1937.5" y="-5701.8" class="st37" width="1920" height="24"/>
			<rect x="-1937.5" y="-5677.8" class="st37" width="1920" height="24"/>
			<rect x="-1937.5" y="-5653.8" class="st37" width="1920" height="24"/>
			<rect x="-1937.5" y="-5629.8" class="st37" width="1920" height="24"/>
			<rect x="-1937.5" y="-5605.8" class="st37" width="1920" height="24"/>
			<rect x="-1937.5" y="-5581.8" class="st37" width="1920" height="24"/>
			<rect x="-1937.5" y="-5557.8" class="st37" width="1920" height="24"/>
			<rect x="-1937.5" y="-5533.8" class="st37" width="1920" height="24"/>
			<rect x="-1937.5" y="-5509.8" class="st37" width="1920" height="24"/>
			<rect x="-1937.5" y="-5485.8" class="st37" width="1920" height="24"/>
			<rect x="-1937.5" y="-5461.8" class="st37" width="1920" height="24"/>
			<rect x="-1937.5" y="-5437.8" class="st37" width="1920" height="24"/>
			<rect x="-1937.5" y="-5413.8" class="st37" width="1920" height="24"/>
			<rect x="-1937.5" y="-5389.8" class="st37" width="1920" height="24"/>
			<rect x="-1937.5" y="-5365.8" class="st37" width="1920" height="24"/>
			<rect x="-1937.5" y="-5341.8" class="st37" width="1920" height="24"/>
			<rect x="-1937.5" y="-5317.8" class="st37" width="1920" height="24"/>
			<rect x="-1937.5" y="-5293.8" class="st37" width="1920" height="24"/>
			<rect x="-1937.5" y="-5269.8" class="st37" width="1920" height="24"/>
			<rect x="-1937.5" y="-5245.8" class="st37" width="1920" height="24"/>
			<rect x="-1937.5" y="-5221.8" class="st37" width="1920" height="24"/>
			<rect x="-1937.5" y="-5197.8" class="st37" width="1920" height="24"/>
			<rect x="-1937.5" y="-5173.8" class="st37" width="1920" height="24"/>
			<rect x="-1937.5" y="-5149.8" class="st37" width="1920" height="24"/>
			<rect x="-1937.5" y="-5125.8" class="st37" width="1920" height="24"/>
			<rect x="-1937.5" y="-5101.8" class="st37" width="1920" height="24"/>
			<rect x="-1937.5" y="-5077.8" class="st37" width="1920" height="24"/>
			<rect x="-1937.5" y="-5053.8" class="st37" width="1920" height="24"/>
			<rect x="-1937.5" y="-5029.8" class="st37" width="1920" height="24"/>
			<rect x="-1937.5" y="-5005.8" class="st37" width="1920" height="24"/>
			<rect x="-1937.5" y="-4981.8" class="st37" width="1920" height="24"/>
			<rect x="-1937.5" y="-4957.8" class="st37" width="1920" height="24"/>
			<rect x="-1937.5" y="-4933.8" class="st37" width="1920" height="24"/>
			<rect x="-1937.5" y="-4909.8" class="st37" width="1920" height="24"/>
			<rect x="-1937.5" y="-4885.8" class="st37" width="1920" height="24"/>
			<rect x="-1937.5" y="-4861.8" class="st37" width="1920" height="24"/>
			<rect x="-1937.5" y="-4837.8" class="st37" width="1920" height="24"/>
			<rect x="-1937.5" y="-4813.8" class="st37" width="1920" height="24"/>
			<rect x="-1937.5" y="-4789.8" class="st37" width="1920" height="24"/>
			<rect x="-1937.5" y="-4765.8" class="st37" width="1920" height="24"/>
			<rect x="-1937.5" y="-4741.8" class="st37" width="1920" height="24"/>
			<rect x="-1937.5" y="-4717.8" class="st37" width="1920" height="24"/>
			<rect x="-1937.5" y="-4693.8" class="st37" width="1920" height="24"/>
			<rect x="-1937.5" y="-4669.8" class="st37" width="1920" height="24"/>
			<rect x="-1937.5" y="-4645.8" class="st37" width="1920" height="24"/>
			<rect x="-1937.5" y="-4621.8" class="st37" width="1920" height="24"/>
			<rect x="-1937.5" y="-4597.8" class="st37" width="1920" height="24"/>
			<rect x="-1937.5" y="-4573.8" class="st37" width="1920" height="24"/>
			<rect x="-1937.5" y="-4549.8" class="st37" width="1920" height="24"/>
			<rect x="-1937.5" y="-4525.8" class="st37" width="1920" height="24"/>
			<rect x="-1937.5" y="-4501.8" class="st37" width="1920" height="24"/>
			<rect x="-1937.5" y="-4477.8" class="st37" width="1920" height="24"/>
			<rect x="-1937.5" y="-4453.8" class="st37" width="1920" height="24"/>
			<rect x="-1937.5" y="-4429.8" class="st37" width="1920" height="24"/>
			<rect x="-1937.5" y="-4405.8" class="st37" width="1920" height="24"/>
			<rect x="-1937.5" y="-4381.8" class="st37" width="1920" height="24"/>
			<rect x="-1937.5" y="-4357.8" class="st37" width="1920" height="24"/>
			<rect x="-1937.5" y="-4333.8" class="st37" width="1920" height="24"/>
			<rect x="-1937.5" y="-4309.8" class="st37" width="1920" height="24"/>
			<rect x="-1937.5" y="-4285.8" class="st37" width="1920" height="24"/>
			<rect x="-1937.5" y="-4261.8" class="st37" width="1920" height="24"/>
			<rect x="-1937.5" y="-4237.8" class="st37" width="1920" height="24"/>
			<rect x="-1937.5" y="-4213.8" class="st37" width="1920" height="24"/>
			<rect x="-1937.5" y="-4189.8" class="st37" width="1920" height="24"/>
			<rect x="-1937.5" y="-4165.8" class="st37" width="1920" height="24"/>
			<rect x="-1937.5" y="-4141.8" class="st37" width="1920" height="24"/>
			<rect x="-1937.5" y="-4117.8" class="st37" width="1920" height="24"/>
			<rect x="-1937.5" y="-4093.8" class="st37" width="1920" height="24"/>
			<rect x="-1937.5" y="-4069.8" class="st37" width="1920" height="24"/>
			<rect x="-1937.5" y="-4045.8" class="st37" width="1920" height="24"/>
			<rect x="-1937.5" y="-4021.8" class="st37" width="1920" height="24"/>
			<rect x="-1937.5" y="-3997.8" class="st37" width="1920" height="24"/>
			<rect x="-1937.5" y="-3973.8" class="st37" width="1920" height="24"/>
			<rect x="-1937.5" y="-3949.8" class="st37" width="1920" height="24"/>
			<rect x="-1937.5" y="-3925.8" class="st37" width="1920" height="24"/>
			<rect x="-1937.5" y="-3901.8" class="st37" width="1920" height="24"/>
			<rect x="-1937.5" y="-3877.8" class="st37" width="1920" height="24"/>
			<rect x="-1937.5" y="-3853.8" class="st37" width="1920" height="24"/>
			<rect x="-1937.5" y="-3829.8" class="st37" width="1920" height="24"/>
			<rect x="-1937.5" y="-3805.8" class="st37" width="1920" height="24"/>
			<rect x="-1937.5" y="-3781.8" class="st37" width="1920" height="24"/>
			<rect x="-1937.5" y="-3757.8" class="st37" width="1920" height="24"/>
			<rect x="-1937.5" y="-3733.8" class="st37" width="1920" height="24"/>
			<rect x="-1937.5" y="-3709.8" class="st37" width="1920" height="24"/>
			<rect x="-1937.5" y="-3685.8" class="st37" width="1920" height="24"/>
			<rect x="-1937.5" y="-3661.8" class="st37" width="1920" height="24"/>
			<rect x="-1937.5" y="-3637.8" class="st37" width="1920" height="24"/>
			<rect x="-1937.5" y="-3613.8" class="st37" width="1920" height="24"/>
			<rect x="-1937.5" y="-3589.8" class="st37" width="1920" height="24"/>
			<rect x="-1937.5" y="-3565.8" class="st37" width="1920" height="24"/>
			<rect x="-1937.5" y="-3541.8" class="st37" width="1920" height="24"/>
			<rect x="-1937.5" y="-3517.8" class="st37" width="1920" height="24"/>
			<rect x="-1937.5" y="-3493.8" class="st37" width="1920" height="24"/>
			<rect x="-1937.5" y="-3469.8" class="st37" width="1920" height="24"/>
			<rect x="-1937.5" y="-3445.8" class="st37" width="1920" height="24"/>
			<rect x="-1937.5" y="-3421.8" class="st37" width="1920" height="24"/>
			<rect x="-1937.5" y="-3397.8" class="st37" width="1920" height="24"/>
			<rect x="-1937.5" y="-3373.8" class="st37" width="1920" height="24"/>
			<rect x="-1937.5" y="-3349.8" class="st37" width="1920" height="24"/>
			<rect x="-1937.5" y="-3325.8" class="st37" width="1920" height="24"/>
			<rect x="-1937.5" y="-3301.8" class="st37" width="1920" height="24"/>
			<rect x="-1937.5" y="-3277.8" class="st37" width="1920" height="24"/>
			<rect x="-1937.5" y="-3253.8" class="st37" width="1920" height="24"/>
			<rect x="-1937.5" y="-3229.8" class="st37" width="1920" height="24"/>
			<rect x="-1937.5" y="-3205.8" class="st37" width="1920" height="24"/>
			<rect x="-1937.5" y="-3181.8" class="st37" width="1920" height="24"/>
			<rect x="-1937.5" y="-3157.8" class="st37" width="1920" height="24"/>
			<rect x="-1937.5" y="-3133.8" class="st37" width="1920" height="24"/>
			<rect x="-1937.5" y="-3109.8" class="st37" width="1920" height="24"/>
			<rect x="-1937.5" y="-3085.8" class="st37" width="1920" height="24"/>
			<rect x="-1937.5" y="-3061.8" class="st37" width="1920" height="24"/>
			<rect x="-1937.5" y="-3037.8" class="st37" width="1920" height="24"/>
			<rect x="-1937.5" y="-3013.8" class="st37" width="1920" height="24"/>
			<rect x="-1937.5" y="-2989.8" class="st37" width="1920" height="24"/>
			<rect x="-1937.5" y="-2965.8" class="st37" width="1920" height="24"/>
			<rect x="-1937.5" y="-2941.8" class="st37" width="1920" height="24"/>
			<rect x="-1937.5" y="-2917.8" class="st37" width="1920" height="24"/>
			<rect x="-1937.5" y="-2893.8" class="st37" width="1920" height="24"/>
			<rect x="-1937.5" y="-2869.8" class="st37" width="1920" height="24"/>
			<rect x="-1937.5" y="-2845.8" class="st37" width="1920" height="24"/>
			<rect x="-1937.5" y="-2821.8" class="st37" width="1920" height="24"/>
			<rect x="-1937.5" y="-2797.8" class="st37" width="1920" height="24"/>
			<rect x="-1937.5" y="-2773.8" class="st37" width="1920" height="24"/>
			<rect x="-1937.5" y="-2749.8" class="st37" width="1920" height="24"/>
			<rect x="-1937.5" y="-2725.8" class="st37" width="1920" height="24"/>
			<rect x="-1937.5" y="-2701.8" class="st37" width="1920" height="24"/>
			<rect x="-1937.5" y="-2677.8" class="st37" width="1920" height="24"/>
			<rect x="-1937.5" y="-2653.8" class="st37" width="1920" height="24"/>
			<rect x="-1937.5" y="-2629.8" class="st37" width="1920" height="24"/>
			<rect x="-1937.5" y="-2605.8" class="st37" width="1920" height="24"/>
			<rect x="-1937.5" y="-2581.8" class="st37" width="1920" height="24"/>
			<rect x="-1937.5" y="-2557.8" class="st37" width="1920" height="24"/>
			<rect x="-1937.5" y="-2533.8" class="st37" width="1920" height="24"/>
			<rect x="-1937.5" y="-2509.8" class="st37" width="1920" height="24"/>
			<rect x="-1937.5" y="-2485.8" class="st37" width="1920" height="24"/>
			<rect x="-1937.5" y="-2461.8" class="st37" width="1920" height="24"/>
			<rect x="-1937.5" y="-2437.8" class="st37" width="1920" height="24"/>
			<rect x="-1937.5" y="-2413.8" class="st37" width="1920" height="24"/>
			<rect x="-1937.5" y="-2389.8" class="st37" width="1920" height="24"/>
			<rect x="-1937.5" y="-2365.8" class="st37" width="1920" height="24"/>
			<rect x="-1937.5" y="-2341.8" class="st37" width="1920" height="24"/>
			<rect x="-1937.5" y="-2317.8" class="st37" width="1920" height="24"/>
			<rect x="-1937.5" y="-2293.8" class="st37" width="1920" height="24"/>
			<rect x="-1937.5" y="-2269.8" class="st37" width="1920" height="24"/>
			<rect x="-1937.5" y="-2245.8" class="st37" width="1920" height="24"/>
			<rect x="-1937.5" y="-2221.8" class="st37" width="1920" height="24"/>
			<rect x="-1937.5" y="-2197.8" class="st37" width="1920" height="24"/>
			<rect x="-1937.5" y="-2173.8" class="st37" width="1920" height="24"/>
			<rect x="-1937.5" y="-2149.8" class="st37" width="1920" height="24"/>
			<rect x="-1937.5" y="-2125.8" class="st37" width="1920" height="24"/>
			<rect x="-1937.5" y="-2101.8" class="st37" width="1920" height="24"/>
			<rect x="-1937.5" y="-2077.8" class="st37" width="1920" height="24"/>
			<rect x="-1937.5" y="-2053.8" class="st37" width="1920" height="24"/>
			<rect x="-1937.5" y="-2029.8" class="st37" width="1920" height="24"/>
			<rect x="-1937.5" y="-2005.8" class="st37" width="1920" height="24"/>
			<rect x="-1937.5" y="-1981.8" class="st37" width="1920" height="24"/>
			<rect x="-1937.5" y="-1957.8" class="st37" width="1920" height="24"/>
			<rect x="-1937.5" y="-1933.8" class="st37" width="1920" height="24"/>
			<rect x="-1937.5" y="-1909.8" class="st37" width="1920" height="24"/>
			<rect x="-1937.5" y="-1885.8" class="st37" width="1920" height="24"/>
			<rect x="-1937.5" y="-1861.8" class="st37" width="1920" height="24"/>
			<rect x="-1937.5" y="-1837.8" class="st37" width="1920" height="24"/>
			<rect x="-1937.5" y="-1813.8" class="st37" width="1920" height="24"/>
			<rect x="-1937.5" y="-1789.8" class="st37" width="1920" height="24"/>
			<rect x="-1937.5" y="-1765.8" class="st37" width="1920" height="24"/>
			<rect x="-1937.5" y="-1741.8" class="st37" width="1920" height="24"/>
			<rect x="-1937.5" y="-1717.8" class="st37" width="1920" height="24"/>
			<rect x="-1937.5" y="-1693.8" class="st37" width="1920" height="24"/>
			<rect x="-1937.5" y="-1669.8" class="st37" width="1920" height="24"/>
			<rect x="-1937.5" y="-1645.8" class="st37" width="1920" height="24"/>
			<rect x="-1937.5" y="-1621.8" class="st37" width="1920" height="24"/>
			<rect x="-1937.5" y="-1597.8" class="st37" width="1920" height="24"/>
			<rect x="-1937.5" y="-1573.8" class="st37" width="1920" height="24"/>
			<rect x="-1937.5" y="-1549.8" class="st37" width="1920" height="24"/>
			<rect x="-1937.5" y="-1525.8" class="st37" width="1920" height="24"/>
			<rect x="-1937.5" y="-1501.8" class="st37" width="1920" height="24"/>
			<rect x="-1937.5" y="-1477.8" class="st37" width="1920" height="24"/>
			<rect x="-1937.5" y="-1453.8" class="st37" width="1920" height="24"/>
			<rect x="-1937.5" y="-1429.8" class="st37" width="1920" height="24"/>
			<rect x="-1937.5" y="-1405.8" class="st37" width="1920" height="24"/>
			<rect x="-1937.5" y="-1381.8" class="st37" width="1920" height="24"/>
			<rect x="-1937.5" y="-1357.8" class="st37" width="1920" height="24"/>
		</g>
	</g>
</g>
<g id="vEoRqg.tif">
	<rect x="735.3" y="-808.5" class="st5" width="378.7" height="360.4"/>
	
		<image style="overflow:visible;" width="375" height="411" id="Layer_0_3_" xlink:href="8604E2B66299BBE7.png"  transform="matrix(1 0 0 2.1019 242.3473 -966.7841)">
	</image>
</g>
<rect x="-803.7" y="-1105.6" class="st4" width="1280" height="500"/>
<rect x="-803.7" y="-1105.6" class="st5" width="1280" height="500"/>
<path class="st6" d="M1388.3-459.1"/>
<circle class="st0" cx="886.4" cy="-551.4" r="49.4"/>
<polygon class="st0" points="855.5,-589.9 737.2,-513.5 737.2,-445.9 814.9,-445.9 917.5,-513 "/>
<circle class="st7" cx="971.9" cy="-708.7" r="47.5"/>
<polygon class="st7" points="1001.7,-671.6 1115.5,-745.2 1115.5,-810.2 1040.8,-810.2 942,-745.7 "/>
<image style="overflow:visible;" width="1920" height="1244" xlink:href="../../../interactive-design-2/SAAS High-Fid/Moodboards/smartphone.png"  transform="matrix(0.1341 2.959901e-02 -2.959901e-02 0.1341 701.0612 -653.9082)">
</image>
<g>
	<path class="st8" d="M833.2-491.2c-0.1,0-0.2,0-0.4,0l-54.6-12.1c-0.4-0.1-0.8-0.4-1.1-0.8c-0.2-0.4-0.3-0.9-0.2-1.3l22.5-101.3
		c0.2-0.8,0.8-1.3,1.6-1.3c0.1,0,0.2,0,0.4,0l54.2,12.5c0.9,0.2,1.5,1.1,1.3,2.1l-22.1,100.9C834.7-491.7,834-491.2,833.2-491.2z"/>
	<path class="st9" d="M801.1-607.2c0.1,0,0.1,0,0.2,0l54.2,12.5c0.4,0.1,0.7,0.6,0.6,1.1L834-492.7c-0.1,0.4-0.4,0.7-0.8,0.7
		c-0.1,0-0.1,0-0.2,0l-54.6-12.1c-0.3-0.1-0.4-0.3-0.5-0.4c-0.1-0.2-0.2-0.5-0.1-0.7l22.5-101.3
		C800.4-606.9,800.7-607.2,801.1-607.2 M801.1-608.9c-1.2,0-2.2,0.8-2.5,2l-22.5,101.3c-0.3,1.4,0.6,2.8,1.9,3.1l54.6,12.1
		c0.2,0,0.4,0.1,0.5,0.1c1.2,0,2.2-0.8,2.5-2l22.1-100.9c0.3-1.4-0.5-2.8-1.9-3.1l-54.2-12.5C801.5-608.9,801.3-608.9,801.1-608.9
		L801.1-608.9z"/>
</g>
<path class="st7" d="M796.4-563.8l2.6,25.6c0.1,1,1,1.8,2,1.7l34.9-3.6c1-0.1,1.8-1,1.7-2l-2.2-21.9c-0.1-1-1-1.8-2-1.7l-20.7,2.1
	c-1,0.1-1.9-0.6-2-1.7l0,0c-0.1-1-1-1.8-2-1.7l-10.5,1.1C797.1-565.7,796.3-564.8,796.4-563.8z"/>
<g>
	<path class="st1" d="M823.7-592.9l16.9-7.9c0,0,2,3.7,5,3.6l-7.2,10.5c0,0-0.4,3.7-3.5,3.9C831.7-582.6,823.8-591,823.7-592.9z"/>
	<polygon class="st10" points="837.1,-583.9 838.3,-586.7 849.9,-604.8 850.2,-596.9 	"/>
</g>
<g>
	<path class="st11" d="M816.9-571.9c0,0,10,5.4,13.5,1.7l-13.9,21.9c0,0-4.2,1.3-5.1-0.1L816.9-571.9z"/>
	<path class="st1" d="M821.6-569.9l5.1-11.5c0,0,6,10.1,3.7,11.2C828-569,827.6-568.1,821.6-569.9z"/>
</g>
<g>
	<path class="st11" d="M862.1-618.4c0,0,4.7,20.6,10.6,22.5l13.6-1.8l-3.6-21.9c0,0-12.3,5.1-15.3,3.9
		C864.5-616.8,862.1-618.4,862.1-618.4z"/>
	<path class="st1" d="M862.1-618.4c0,0-0.1-2.4,2.1-3.5l5.6,6.4C869.9-615.6,866.5-614,862.1-618.4z"/>
</g>
<path class="st12" d="M803.4-554c0,0,0.8,14.8-4.3,15.8c0,0,0.2,1.7,2,1.7s37.9-4,37.9-4s1.3,0,1.3-2.6s-1.7-19.1-1.7-19.1
	l-35.7,3.7L803.4-554z"/>
<g>
	<path class="st11" d="M904.4-631.5l-1.9,11.1c0,0,4-8.5,6.5-8.5L904.4-631.5z"/>
	<path class="st1" d="M924.6-623.8l-8.5,16c-18.6,2.1-13.6-11.6-13.6-12.6c0-1,3.5-6,3.5-6s0.2,4.5,4.6,5.3S924.6-623.8,924.6-623.8
		z"/>
</g>
<g>
	<path class="st10" d="M931.4-632.6l-15.3-4.7c0,0,6.7-9.6,5.5-13.5l11.2,14.8C932.8-636,933.9-634,931.4-632.6z"/>
	<polygon class="st1" points="918.2,-633.8 927.1,-633.9 917.5,-636.9 	"/>
	<path class="st1" d="M917-638.8c0,0-3.4-14.2-4.5-15.1c0,0,11.5-0.1,9.4,6.4C919.8-640.3,918.5-640.3,917-638.8z"/>
</g>
<g>
	<path class="st11" d="M400.2-938.5l0.1,23.5c0,0,5.2-19,10.2-19.9L400.2-938.5z"/>
	<path class="st1" d="M444.6-930.1l-11.7,36c-37.6,11.1-32.3-19-32.6-20.9s5-13.7,5-13.7s2.1,9.3,11.3,9.2
		C425.9-919.6,444.6-930.1,444.6-930.1z"/>
</g>
<g id="vEoRqg.tif_1_">
	<rect x="1215.6" y="-814" class="st5" width="378.7" height="360.4"/>
</g>
<rect x="216.5" y="-423" class="st1" width="765.1" height="203.8"/>
<path class="st9" d="M698.5-112.6c0,0-1.7-34.5,28.2-34.5c33.7,0,30.8,34.5,30.8,34.5l-10.4-0.2c0,0-1.5-26.3-19.1-25.4
	c-18.4,1-18.9,25.6-18.9,25.6H698.5z"/>
<rect x="1193.6" y="-814" class="st7" width="729.8" height="370.7"/>
<g>
	<circle class="st14" cx="1697.8" cy="-607.5" r="66.3"/>
	<polygon class="st14" points="1646.4,-574.2 1745.9,-413.6 1836.6,-411.9 1885.4,-441.4 1751.1,-655.5 	"/>
</g>
<g>
	<circle class="st0" cx="1433.5" cy="-614" r="66.3"/>
	<polygon class="st0" points="1486.3,-654.1 1388,-815.4 1297.4,-817.8 1238,-805.5 1381,-573.6 	"/>
</g>
<image style="overflow:visible;" width="5032" height="3355" xlink:href="../../../interactive-design-2/SAAS High-Fid/Moodboards/Man with phone.png"  transform="matrix(8.321908e-02 -7.543009e-04 9.743549e-04 0.1075 1024.7419 -812.9759)">
</image>
<path class="st0" d="M1787.7-677.9l-2.4-1.7c-1-0.7-1.8-1.5-2.5-2.5l-9.2-9.7l-4.5-5.1c-1.4-1.6-2.6-3.2-3.7-5l-1.3-2
	c-1.5-2-2.2-2.6-4.3-3.9l-2.3-1.4l-71.6-122.1l97.1-3.3l12.5,82.8L1787.7-677.9z"/>
<polygon class="st38" points="1201.5,-361.5 1181.3,-341.3 1154.4,-321.1 1144.5,-335.1 1151,-375.5 1187,-375.5 "/>
<path class="st39" d="M1367.3-623.2l-9.2-5.5l-1.2-2.4c0,0-0.5-0.5-4-4s-12.5-18.5-12.5-18.5l-3.5-6.2l-1.6-1.6l0,0
	c0-1.1-0.5-2.2-1.3-2.9c-2.4-2.1-7.4-6.3-10.8-8.2c-4.5-2.5-130.6-219.5-130.6-219.5l146.7,36.3l72,168.8L1367.3-623.2z"/>
<rect x="491.9" y="-5260.4" class="st40" width="2085.1" height="814.5"/>
<g id="IjoVtQ.tif_1_">
	
		<image style="overflow:visible;" width="454" height="346" id="Layer_0_1_" xlink:href="5EB4C45C40382847.png"  transform="matrix(1.629 0 0 1.629 1403.4628 -4127.3286)">
	</image>
</g>
<polygon class="st5" points="3173.2,-2806.8 423.5,-3285.5 423.5,-5359.6 3208,-5521 "/>
<path class="st6" d="M1910.3-4499.6"/>
<circle class="st0" cx="1918.9" cy="-3998.2" r="189.4"/>
<polygon class="st0" points="1800.5,-4146 1347.1,-3853 1347.1,-3594 1644.8,-3594 2038.2,-3851.2 "/>
<image style="overflow:visible;" width="1920" height="1244" xlink:href="../../../interactive-design-2/SAAS High-Fid/Moodboards/smartphone.png"  transform="matrix(0.5139 0.1134 -0.1134 0.5139 1208.7554 -4391.2266)">
</image>
<g>
	<path class="st8" d="M1715.3-3767.5c-0.4,0-0.9-0.1-1.3-0.1l-209.3-46.4c-1.7-0.4-3.1-1.4-4-2.9c-0.9-1.5-1.2-3.3-0.9-5.1
		l86.1-388.3c0.7-3,3.2-5.2,6.2-5.2c0.5,0,0.9,0.1,1.4,0.2l207.7,47.9c3.5,0.8,5.6,4.4,4.8,7.9l-84.6,386.8
		C1720.9-3769.7,1718.3-3767.5,1715.3-3767.5z"/>
	<path class="st9" d="M1592.2-4212.2c0.2,0,0.4,0,0.7,0.1l207.7,47.9c1.7,0.4,2.8,2.2,2.4,4.1l-84.6,386.8c-0.3,1.5-1.6,2.6-3,2.6
		c-0.2,0-0.4,0-0.6-0.1l-209.3-46.4c-1.1-0.2-1.7-1-2-1.4c-0.5-0.8-0.6-1.7-0.4-2.6l86.1-388.3
		C1589.5-4211.1,1590.8-4212.2,1592.2-4212.2 M1592.2-4218.8c-4.4,0-8.4,3.1-9.4,7.7l-86.1,388.3c-1.2,5.4,2.1,10.7,7.4,11.9
		l209.3,46.4c0.7,0.2,1.4,0.2,2.1,0.2c4.4,0,8.4-3.1,9.4-7.7l84.6-386.8c1.2-5.3-2.1-10.6-7.3-11.8l-207.7-47.9
		C1593.6-4218.7,1592.9-4218.8,1592.2-4218.8L1592.2-4218.8z"/>
</g>
<path class="st7" d="M1574.2-4045.9l10,98.2c0.4,3.9,3.9,6.7,7.8,6.4l133.7-13.6c3.9-0.4,6.7-3.9,6.4-7.8l-8.6-84.1
	c-0.4-3.9-3.9-6.7-7.8-6.4l-79.5,8.1c-3.9,0.4-7.4-2.4-7.8-6.4l0,0c-0.4-3.9-3.9-6.7-7.8-6.4l-40.1,4.1
	C1576.7-4053.3,1573.8-4049.8,1574.2-4045.9z"/>
<path class="st1" d="M1678.6-4157.4l64.6-30.1c0,0,7.6,14.2,19.1,13.7l-27.6,40.2c0,0-1.6,14.3-13.5,14.9S1679-4150.1,1678.6-4157.4
	z"/>
<polygon class="st10" points="1730.2,-4123.1 1734.8,-4133.6 1779.1,-4203 1780.5,-4172.8 "/>
<path class="st11" d="M1652.6-4077c0,0,38.2,20.5,51.6,6.7l-53.2,84c0,0-16.2,4.9-19.5-0.2L1652.6-4077z"/>
<path class="st1" d="M1670.8-4069.3l19.4-44c0,0,22.9,38.6,14,43C1695.3-4066,1693.8-4062.2,1670.8-4069.3z"/>
<path class="st11" d="M1826.1-4255.2c0,0,17.9,79,40.7,86.3l52.1-6.9l-13.8-83.9c0,0-47.2,19.5-58.6,15.1
	C1835-4249.1,1826.1-4255.2,1826.1-4255.2z"/>
<path class="st1" d="M1826.1-4255.2c0,0-0.4-9.4,8.1-13.4l21.4,24.4C1855.6-4244.3,1843-4238.3,1826.1-4255.2z"/>
<path class="st12" d="M1600.9-4008.3c0,0,3.1,56.7-16.6,60.7c0,0,0.6,6.4,7.8,6.4c7.2,0,145.1-15.4,145.1-15.4s4.9,0,4.9-9.8
	c0-9.8-6.5-73.3-6.5-73.3l-136.8,14.1L1600.9-4008.3z"/>
<path class="st11" d="M1988-4305.4l-7.3,42.4c0,0,15.5-32.6,24.8-32.6L1988-4305.4z"/>
<path class="st1" d="M2065.4-4275.9l-32.6,61.1c-71.3,7.9-52.1-44.6-52.1-48.2c0-3.7,13.5-23.1,13.5-23.1s0.8,17.4,17.5,20.2
	S2065.4-4275.9,2065.4-4275.9z"/>
<path class="st10" d="M2091.5-4309.5l-58.8-18.1c0,0,25.6-36.7,21.1-51.7l43.1,56.5C2096.9-4322.8,2100.9-4315,2091.5-4309.5z"/>
<polygon class="st1" points="2040.8,-4314.1 2075,-4314.6 2038.1,-4326 "/>
<path class="st1" d="M2036.5-4333.2c0,0-13.1-54.3-17.2-58c0,0,44-0.2,36.2,24.7C2046.8-4338.9,2042.1-4338.9,2036.5-4333.2z"/>
<text transform="matrix(1 0 0 1 1533.5698 -52.791)" class="st1" style="font-family:'FontAwesome5BrandsRegular'; font-size:121.7512px;"></text>
<text transform="matrix(1 0 0 1 1685.9233 406.3904)" class="st1" style="font-family:'FontAwesome5BrandsRegular'; font-size:82.5015px;"></text>
<path class="st41" d="M562.1,0H75.4C33.8,0,0,33.8,0,75.4v325.3c0,41.7,33.8,75.4,75.4,75.4h303.2l132,139v-139h51.5
	c41.7,0,75.4-33.8,75.4-75.4V75.4C637.6,33.8,603.8,0,562.1,0z"/>
<g>
	<defs>
		<circle id="SVGID_5_" cx="-774.5" cy="2616.5" r="634.7"/>
	</defs>
	<clipPath id="SVGID_6_">
		<use xlink:href="#SVGID_5_"  style="overflow:visible;"/>
	</clipPath>
	<g style="clip-path:url(#SVGID_6_);">
		
			<image style="overflow:visible;" width="4480" height="6720" xlink:href="../../../../../../Downloads/clarisse-meyer-581036-unsplash.jpg"  transform="matrix(0.5 0 0 0.5 -1894.4531 1051.359)">
		</image>
	</g>
</g>
</svg>
